<svg width="152" height="167" viewBox="0 0 152 167" fill="none" xmlns="http://www.w3.org/2000/svg">
<path d="M115.959 16.7434C119.05 15.8351 122.316 15.7012 125.471 16.3535C128.626 17.0057 131.572 18.4242 134.052 20.4843C136.847 22.7711 138.784 25.941 139.546 29.4746C142.191 41.8184 130.407 44.2999 130.407 44.2999C130.407 44.2999 144.365 48.365 135.937 62.0419C127.508 75.7188 106.913 67.5066 106.913 67.5066C106.913 67.5066 109.269 87.4458 92.0382 92.8355C74.807 98.2251 63.6117 89.7386 57.1273 83.0789C50.6429 76.4191 17.3119 74.0641 17.3119 74.0641L3.83128 62.746C3.83128 62.746 -13.8549 26.7917 34.0114 23.0614C34.0114 23.0614 35.0499 1.05667 63.3043 0.65023C81.4246 0.389575 90.841 9.12619 95.2648 15.4269C96.4889 17.1874 98.2308 18.5216 100.248 19.2435C102.265 19.9654 104.456 20.0391 106.517 19.4543L115.959 16.7434Z" fill="#E6E9FC"/>
<path d="M63.1599 38.4925C63.7836 38.4925 64.2892 37.986 64.2892 37.3612C64.2892 36.7365 63.7836 36.23 63.1599 36.23C62.5362 36.23 62.0306 36.7365 62.0306 37.3612C62.0306 37.986 62.5362 38.4925 63.1599 38.4925Z" fill="#7077D8"/>
<path d="M74.6529 60.7193C76.1692 60.7193 77.3984 59.488 77.3984 57.969C77.3984 56.4501 76.1692 55.2188 74.6529 55.2188C73.1366 55.2188 71.9073 56.4501 71.9073 57.969C71.9073 59.488 73.1366 60.7193 74.6529 60.7193Z" fill="#7077D8"/>
<path d="M62.3046 77.3201C63.845 77.3201 65.0938 76.0691 65.0938 74.526C65.0938 72.9829 63.845 71.7319 62.3046 71.7319C60.7642 71.7319 59.5154 72.9829 59.5154 74.526C59.5154 76.0691 60.7642 77.3201 62.3046 77.3201Z" fill="#7077D8"/>
<path d="M74.1748 27.9258C77.7508 27.9258 80.6497 25.2304 80.6497 21.9053C80.6497 18.5803 77.7508 15.8848 74.1748 15.8848C70.5988 15.8848 67.6998 18.5803 67.6998 21.9053C67.6998 25.2304 70.5988 27.9258 74.1748 27.9258Z" fill="#7077D8"/>
<path d="M30.1105 40.9245C30.7809 40.9245 31.3243 40.3801 31.3243 39.7086C31.3243 39.0371 30.7809 38.4927 30.1105 38.4927C29.4401 38.4927 28.8967 39.0371 28.8967 39.7086C28.8967 40.3801 29.4401 40.9245 30.1105 40.9245Z" fill="#7077D8"/>
<path d="M32.8234 86.6611H127.765V159.677C127.765 159.825 127.705 159.968 127.6 160.073C127.495 160.178 127.353 160.237 127.204 160.237H33.3841C33.2354 160.237 33.0927 160.178 32.9876 160.073C32.8824 159.968 32.8234 159.825 32.8234 159.677V86.6611Z" fill="#7077D8"/>
<path d="M103.947 58.0479H59.8012L32.8234 86.6607H127.765L103.947 58.0479Z" fill="#161D50"/>
<path d="M41.816 46.6025L59.8012 58.0478L32.8234 86.6606L12.3855 71.1279L41.816 46.6025Z" fill="#929AEA"/>
<path d="M121.932 46.6025L103.947 58.0478L127.765 86.6606L151.363 71.1279L121.932 46.6025Z" fill="#929AEA"/>
<path d="M71.3997 47.1881C71.9073 46.9475 72.3021 46.52 72.5018 45.995C72.7015 45.47 72.6906 44.8882 72.4713 44.3711L64.3805 25.2929C64.2659 25.0227 64.0979 24.7784 63.8865 24.5748C63.675 24.3712 63.4246 24.2124 63.1503 24.108C62.8759 24.0037 62.5833 23.9559 62.29 23.9675C61.9967 23.9792 61.7088 24.05 61.4436 24.1758L59.8848 24.9149C59.6196 25.0406 59.3826 25.2187 59.1879 25.4384C58.9933 25.6581 58.8451 25.915 58.7523 26.1934C58.6594 26.4719 58.6239 26.7662 58.6477 27.0588C58.6715 27.3513 58.7543 27.636 58.8909 27.8958L68.5404 46.2347C68.8019 46.7318 69.2455 47.1086 69.7784 47.2863C70.3113 47.4639 70.8922 47.4288 71.3997 47.1881Z" fill="#5CEEA7"/>
<path d="M81.5433 45.3384C81.9106 45.3123 82.2536 45.1452 82.5006 44.8721C82.7476 44.5989 82.8796 44.241 82.8689 43.8729L82.4692 30.2909C82.4635 30.0985 82.419 29.9092 82.3383 29.7345C82.2577 29.5598 82.1425 29.4031 81.9997 29.274C81.857 29.1449 81.6896 29.046 81.5077 28.9833C81.3257 28.9205 81.1329 28.8952 80.941 28.9089L79.8125 28.9893C79.6206 29.0029 79.4334 29.0553 79.2622 29.1431C79.0911 29.2309 78.9394 29.3525 78.8164 29.5004C78.6933 29.6483 78.6015 29.8196 78.5464 30.0039C78.4912 30.1883 78.4739 30.3818 78.4954 30.573L80.0236 44.0747C80.0649 44.4407 80.2461 44.7766 80.5293 45.0121C80.8125 45.2477 81.1758 45.3646 81.5433 45.3384Z" fill="#5CEEA7"/>
<path d="M89.3744 50.3593C90.3848 50.9435 91.8031 50.4074 92.5898 49.1439L106.559 26.71C107.393 25.3698 107.195 23.7364 106.124 23.1168L104.63 22.2533C103.558 21.6336 102.044 22.2771 101.299 23.6689L88.8237 46.9662C88.1211 48.2783 88.364 49.7751 89.3744 50.3593Z" fill="#5CEEA7"/>
<path d="M109.041 118.312C109.041 118.312 107.233 109.706 116.275 110.386C116.275 110.386 114.24 105.177 122.039 104.045C122.039 104.045 119.44 102.234 121.248 97.3648C123.057 92.4961 123.622 90.5713 123.622 90.5713C123.622 90.5713 122.718 98.0442 125.43 99.1765C128.143 100.309 132.777 99.4029 135.264 102.007C137.75 104.611 137.298 108.008 137.298 108.008C137.298 108.008 148.036 107.253 146.114 117.142L143.854 118.312L109.041 118.312Z" fill="#5CEEA7"/>
<path d="M106.027 117.142H148.375C148.375 117.142 149.732 119.854 145.211 119.875L141.933 166.999H112.884L108.928 120.35C108.928 120.35 105.387 121.52 106.027 117.142Z" fill="#DCF9E7"/>
<path d="M141.556 119.855C141.556 119.855 139.672 124.53 139.964 125.826C140.255 127.122 142.05 128.392 143.022 126.429C143.995 124.467 141.728 122.009 141.556 119.855Z" fill="#DCF9E7"/>
<path d="M118.196 122.01V138.655H134.699V122.463L118.196 122.01Z" fill="#BDF9D3"/>
<path d="M144.419 95.4399L138.539 110.159C138.539 110.159 137.751 111.178 138.881 111.707C140.011 112.235 140.539 111.103 140.539 111.103L146.115 96.61C146.115 96.61 146.266 95.6287 144.419 95.4399Z" fill="#DCF9E7"/>
</svg>
