<svg width="45" height="45" viewBox="0 0 45 45" fill="none" xmlns="http://www.w3.org/2000/svg">
<path fill-rule="evenodd" clip-rule="evenodd" d="M22.0498 6C12.6689 6 5.0498 13.6342 5.0498 23C5.0498 32.3809 12.6689 40 22.0498 40C31.4156 40 39.0498 32.3809 39.0498 23C39.0498 13.6342 31.4156 6 22.0498 6ZM37.49 23C37.49 15.0044 30.0454 7.55979 22.0498 7.55979C14.0542 7.55979 6.59453 15.0044 6.59453 23C6.59453 30.9956 14.0542 38.4553 22.0498 38.4553C30.0454 38.4553 37.49 30.9956 37.49 23Z" fill="#57E1D1"/>
<path fill-rule="evenodd" clip-rule="evenodd" d="M18.2251 15.3512V14.0713H20.7698H23.7512C26.7929 14.0713 29.2774 16.5708 29.2774 19.5974C29.2774 22.639 26.7929 25.1235 23.7512 25.1235H20.7698V32.3512V33.6311H18.2251V32.3512V15.3512ZM23.7512 16.6311H20.7698V22.5788H23.7512C25.4226 22.5788 26.7176 21.2688 26.7176 19.5974C26.7176 17.926 25.4226 16.6311 23.7512 16.6311Z" fill="#57E1D1"/>
<path fill-rule="evenodd" clip-rule="evenodd" d="M18.2256 15.3512V14.0713H20.7703H23.7517C26.7933 14.0713 29.2778 16.5708 29.2778 19.5974C29.2778 22.639 26.7933 25.1235 23.7517 25.1235H20.7703V32.3512V33.6311H18.2256V32.3512V15.3512ZM23.7517 16.6311H20.7703V22.5788H23.7517C25.4231 22.5788 26.7181 21.2688 26.7181 19.5974C26.7181 17.926 25.4231 16.6311 23.7517 16.6311Z" fill="#161D50"/>
</svg>
