<svg width="188" height="122" viewBox="0 0 188 122" fill="none" xmlns="http://www.w3.org/2000/svg">
<mask id="mask0_853_16148" style="mask-type:alpha" maskUnits="userSpaceOnUse" x="0" y="0" width="188" height="122">
<rect x="0.871094" y="0.587891" width="186.256" height="121.412" fill="#C4C4C4"/>
</mask>
<g mask="url(#mask0_853_16148)">
<path d="M107.291 48.6606C107.291 71.0545 89.1685 89.2083 66.8135 89.2083C44.4585 89.2083 26.3362 71.0545 26.3362 48.6606C26.3321 43.3346 27.3763 38.0601 29.4091 33.1388C31.4418 28.2175 34.4232 23.7459 38.1827 19.9799C41.9422 16.2139 46.406 13.2273 51.3187 11.191C56.2315 9.15477 61.4968 8.10874 66.8135 8.1128C89.1685 8.1128 107.291 26.2667 107.291 48.6606Z" fill="#C8CEFC"/>
<path d="M72.8329 78.5939C72.8329 78.5939 74.2622 66.2938 67.8228 61.6456C61.2634 56.9107 54.7849 60.0114 54.7849 60.0114C54.7849 60.0114 50.5639 51.0679 41.2333 51.7356C31.9027 52.4032 29.6811 60.3312 29.6811 60.3312C29.6811 60.3312 18.7954 58.4119 18.1289 68.6489C18.1289 68.6489 8.46506 69.5252 7.90967 78.5939H72.8329Z" fill="#7077D8"/>
<path d="M12.6447 79.2574C13.6353 79.2574 14.4383 78.453 14.4383 77.4607C14.4383 76.4684 13.6353 75.6639 12.6447 75.6639C11.6541 75.6639 10.8511 76.4684 10.8511 77.4607C10.8511 78.453 11.6541 79.2574 12.6447 79.2574Z" fill="#929AEA"/>
<path d="M63.0358 69.5506C64.0421 69.5506 64.8579 68.7334 64.8579 67.7253C64.8579 66.7171 64.0421 65.8999 63.0358 65.8999C62.0294 65.8999 61.2136 66.7171 61.2136 67.7253C61.2136 68.7334 62.0294 69.5506 63.0358 69.5506Z" fill="#929AEA"/>
<path d="M43.8211 83.2839C46.1573 83.2839 48.0511 81.523 48.0511 79.3508C48.0511 77.1785 46.1573 75.4176 43.8211 75.4176C41.4849 75.4176 39.5911 77.1785 39.5911 79.3508C39.5911 81.523 41.4849 83.2839 43.8211 83.2839Z" fill="#929AEA"/>
<path d="M68.6394 77.2527C69.0774 77.2527 69.4324 76.897 69.4324 76.4583C69.4324 76.0196 69.0774 75.6639 68.6394 75.6639C68.2015 75.6639 67.8464 76.0196 67.8464 76.4583C67.8464 76.897 68.2015 77.2527 68.6394 77.2527Z" fill="#929AEA"/>
<path d="M31.9173 73.8599C32.3552 73.8599 32.7102 73.5042 32.7102 73.0655C32.7102 72.6268 32.3552 72.2711 31.9173 72.2711C31.4793 72.2711 31.1243 72.6268 31.1243 73.0655C31.1243 73.5042 31.4793 73.8599 31.9173 73.8599Z" fill="#929AEA"/>
<path d="M39.9779 61.855C41.3715 61.855 42.5012 60.7233 42.5012 59.3273C42.5012 57.9313 41.3715 56.7996 39.9779 56.7996C38.5843 56.7996 37.4546 57.9313 37.4546 59.3273C37.4546 60.7233 38.5843 61.855 39.9779 61.855Z" fill="#929AEA"/>
<path d="M-70.2886 110.495C-70.2886 110.495 -30.3197 111.123 -10.6068 93.4172C9.10622 75.7118 28.5602 65.6216 46.9268 80.6617C65.2933 95.7017 81.5794 121.974 81.5794 121.974L-70.2886 125.401V110.495Z" fill="#BDF9D3"/>
<path d="M299.667 104.534C299.667 104.534 252.157 105.28 228.724 84.2334C205.292 63.1872 182.167 51.1931 160.335 69.0711C138.503 86.949 119.144 121.132 119.144 121.132L299.667 133.855V104.534Z" fill="#BDF9D3"/>
<path d="M0.871094 118.174C0.871094 118.174 38.9103 103.105 55.5962 82.089C72.2822 61.0732 83.834 49.2452 102.737 49.0413C121.64 48.8374 145.008 89.7575 145.008 89.7575C145.008 89.7575 165.19 118.506 178.25 122.252H0.871094V118.174Z" fill="#9AF7C2"/>
<path d="M98.4126 78.0512V69.235C98.4126 69.235 98.008 67.6174 101.249 67.7791V65.11C101.249 65.11 101.087 63.6542 102.869 63.4924C104.191 63.4012 105.517 63.4012 106.839 63.4924V59.9234C106.839 59.9234 106.715 58.8821 108.276 58.8012C109.836 58.7204 110.102 59.9234 110.102 59.9234V63.4924H111.778V59.9234C111.778 59.9234 111.457 58.7125 113.32 58.7973C115.183 58.8821 114.616 59.9234 114.616 59.9234L114.697 63.5733H116.074V59.9234C116.074 59.9234 116.074 58.7849 117.452 58.7931C118.829 58.8012 118.91 59.9234 118.91 59.9234V63.4924H120.53V59.9234C120.53 59.9234 120.287 58.7848 122.151 58.793C124.014 58.8012 123.771 59.9234 123.771 59.9234V63.4924C123.771 63.4924 129.199 64.7865 129.28 58.2351C129.361 51.6836 129.28 20.8676 129.28 20.8676H151.478V58.1542C151.478 58.1542 151.316 63.4924 155.448 63.4924H156.825V59.9234C156.871 59.6128 157.027 59.3289 157.265 59.1236C157.503 58.9184 157.807 58.8055 158.121 58.8055C158.436 58.8055 158.74 58.9184 158.978 59.1236C159.216 59.3289 159.372 59.6128 159.418 59.9234V63.4924H161.362V59.9234C161.362 59.9234 161.235 58.8055 162.878 58.8055C164.521 58.8055 164.522 59.9234 164.522 59.9234V63.4924H166.385V59.9234C166.385 59.9234 166.385 58.8055 167.762 58.8055C169.139 58.8055 169.139 59.9234 169.139 59.9234V63.4924H171.084V59.9234C171.084 59.9234 171.003 58.8055 172.38 58.8055C173.757 58.8055 173.676 59.9234 173.676 59.9234L173.677 63.4924H178.456C178.456 63.4924 179.914 63.3306 179.914 64.8674V68.1835C179.914 68.1835 182.993 68.0218 183.074 69.3159C183.155 70.61 183.074 78.0512 183.074 78.0512L98.4126 78.0512Z" fill="#252E6C"/>
<path d="M137.285 71.7255H144.288C144.676 71.7255 145.049 71.8795 145.323 72.1537C145.598 72.4278 145.752 72.7997 145.752 73.1874V78.0512H135.821V73.1874C135.821 72.9954 135.859 72.8053 135.933 72.628C136.006 72.4506 136.114 72.2894 136.25 72.1537C136.386 72.0179 136.547 71.9102 136.725 71.8367C136.903 71.7633 137.093 71.7255 137.285 71.7255Z" fill="#929AEA"/>
<path d="M137.502 35.5243H135.821V70.436H137.502V35.5243Z" fill="#C8CEFC"/>
<path d="M140.211 37.4885H138.53V70.436H140.211V37.4885Z" fill="#C8CEFC"/>
<path d="M142.988 39.5105H141.307V70.436H142.988V39.5105Z" fill="#C8CEFC"/>
<path d="M145.752 41.1414H144.071V70.436H145.752V41.1414Z" fill="#C8CEFC"/>
<path d="M129.514 77.2649H150.699V79.4076H129.514V77.2649Z" fill="#7077D8"/>
<path d="M129.513 81.3683H154.158V83.329H129.513V81.3683Z" fill="#7077D8"/>
<path d="M129.514 85.2866H157.76V87.2473H129.514V85.2866Z" fill="#7077D8"/>
<path d="M129.514 89.2081H161.723V91.1688H129.514V89.2081Z" fill="#7077D8"/>
<path d="M129.514 96.7803H169.058V98.741H129.514V96.7803Z" fill="#7077D8"/>
<path d="M129.514 100.702H169.058V102.662H129.514V100.702Z" fill="#7077D8"/>
<path d="M129.514 93.1265H165.368V95.0871H129.514V93.1265Z" fill="#7077D8"/>
<path d="M130.493 79.4077H153.445V81.3684H130.493V79.4077Z" fill="#252E6C"/>
<path d="M130.493 83.3291H156.941V85.2898H130.493V83.3291Z" fill="#252E6C"/>
<path d="M130.493 87.2473H160.65V89.208H130.493V87.2473Z" fill="#252E6C"/>
<path d="M130.493 91.166H164.474V93.1267H130.493V91.166Z" fill="#252E6C"/>
<path d="M130.493 94.8578H168.078V96.8185H130.493V94.8578Z" fill="#252E6C"/>
<path d="M130.493 98.741H168.078V100.702H130.493V98.741Z" fill="#252E6C"/>
<path d="M130.493 102.641H168.078V104.601H130.493V102.641Z" fill="#252E6C"/>
<path d="M107.81 73.5538C107.81 73.5538 104.984 80.4409 98.1091 78.3654C91.2341 76.2898 90.4806 71.3001 90.4806 71.3001L77.552 70.6622V41.0093L83.4811 37.4738H100.559L107.81 73.5538Z" fill="white"/>
<path d="M135.223 77.8052C135.223 77.8052 142.51 96.2706 141.689 105.516C140.869 114.761 141.074 120.91 142.92 127.697C144.766 134.483 148.662 145.166 149.278 151.741C149.893 158.315 147.787 168.998 135.509 169.409C123.231 169.82 113.387 168.587 104.569 156.26C104.569 156.26 102.005 158.726 105.953 172.285C109.901 185.844 109.901 198.582 109.901 204.54C109.901 204.54 102.415 202.074 87.2901 203.102C72.1647 204.129 67.8579 200.431 59.8595 199.198C51.8612 197.966 44.6831 203.513 33.6084 196.322C33.6084 196.322 36.8898 180.503 42.8373 171.463C48.7848 162.424 52.0663 155.028 53.912 146.194C55.7578 137.36 62.5257 127.627 69.0885 126.433C75.6513 125.238 66.1002 107.96 66.1479 103.846C66.1882 100.375 72.2414 88.2285 75.6506 83.2439C84.3121 70.58 92.2831 74.0556 92.2831 74.0556L135.223 77.8052Z" fill="#7077D8"/>
<path d="M101.417 44.6761C101.417 44.6761 103.488 54.2003 99.3457 55.6147C95.2038 57.0292 93.2269 55.1862 93.2269 55.1862C93.2269 55.1862 91.5325 53.4375 90.0264 55.1862C88.5202 56.9349 86.261 56.9349 85.1313 54.7661C85.1313 54.7661 83.9687 52.6636 81.311 56.2796C78.6532 59.8956 82.7389 67.4057 82.7389 67.4057L85.2379 69.9886L88.9667 71.2999L92.7351 70.8628C92.7351 70.8628 105.31 69.7899 105.627 60.1737C105.944 50.5575 101.417 44.6761 101.417 44.6761Z" fill="#7077D8"/>
<path d="M125.796 63.0049C125.796 63.0049 131.383 72.5882 135.666 76.0179C136.195 76.4413 135.277 77.6169 134.229 78.4098C132.204 79.9385 129.885 81.0301 127.417 81.6155C122.764 82.5861 117.994 82.8637 113.26 82.4393C113.26 82.4393 106.951 82.5478 107.188 76.9558C107.418 71.4979 103.876 46.9573 98.5783 41.5395C93.2803 36.1217 77.8278 38.7754 78.9316 44.0826C80.0353 49.3898 81.2168 52.7315 81.5547 55.1009C81.8926 57.4702 81.2168 59.4165 82.2305 62.2936C83.2441 65.1707 83.6665 67.9631 85.6939 69.317C86.764 70.0286 87.9804 70.4893 89.2528 70.6651C90.5251 70.8409 91.8206 70.7272 93.0431 70.3325C93.0431 70.3325 93.8033 71.9403 92.2828 74.0558C92.2828 74.0558 86.8641 73.2515 82.397 76.2849C79.7066 78.1299 77.4126 80.4962 75.6503 83.244C75.6503 83.244 72.7111 84.5154 70.44 82.3741C70.44 82.3741 69.8192 32.6502 84.1441 28.4724C97.3848 24.6108 107.715 26.9617 115.151 38.5461C122.065 49.3176 124.24 60.8446 125.796 63.0049Z" fill="#929AEA"/>
<path d="M103.829 28.2924C103.829 28.2924 90.0311 37.2406 79.0017 32.5903C79.0017 32.5903 78.3951 30.3181 80.8295 30.5843C82.6641 30.7849 87.4645 33.1031 100.312 27.2348C100.312 27.2348 103.517 25.8931 103.829 28.2924Z" fill="#161D50"/>
<path d="M106.653 29.8689C106.653 29.8689 91.0206 40.1014 77.5618 34.9953C77.5618 34.9953 77.3405 32.5873 79.0014 32.5905C81.3272 32.5951 87.2655 36.4229 103.829 28.2926C103.829 28.2926 106.34 27.4697 106.653 29.8689Z" fill="#252E6C"/>
<path d="M92.2499 58.5552L85.3865 59.1432C85.4338 59.5769 85.5659 59.997 85.7754 60.3795C85.9848 60.762 86.2674 61.0994 86.6071 61.3725C86.9467 61.6455 87.3368 61.8489 87.7549 61.9709C88.173 62.0929 88.611 62.1311 89.0439 62.0834C92.3853 61.9025 92.2499 58.5552 92.2499 58.5552Z" fill="white"/>
<path d="M91.9793 47.3727L94.5146 46.9176C94.8706 46.8537 95.1075 46.5127 95.0437 46.1561L94.9925 45.87C94.9287 45.5133 94.5884 45.276 94.2324 45.3399L91.6971 45.795C91.3411 45.8589 91.1043 46.1998 91.168 46.5564L91.2192 46.8426C91.283 47.1992 91.6233 47.4366 91.9793 47.3727Z" fill="#252E6C"/>
<path d="M80.2574 49.4762L82.7929 49.0211C83.1489 48.9572 83.3858 48.6163 83.322 48.2597L83.2708 47.9735C83.207 47.6169 82.8667 47.3796 82.5107 47.4435L79.9752 47.8986C79.6192 47.9625 79.3823 48.3034 79.4461 48.66L79.4973 48.9461C79.5611 49.3028 79.9014 49.5401 80.2574 49.4762Z" fill="#252E6C"/>
<path d="M55.5229 113.631C56.9362 112.614 56.9616 110.227 55.5796 108.3C54.1975 106.372 51.9314 105.634 50.5181 106.651C49.1047 107.668 49.0794 110.054 50.4614 111.982C51.8435 113.91 54.1096 114.648 55.5229 113.631Z" fill="#E6E9FC"/>
</g>
</svg>
