<svg width="217" height="117" viewBox="0 0 217 117" fill="none" xmlns="http://www.w3.org/2000/svg">
<path d="M116.552 38.832C118.979 38.1213 121.543 38.0165 124.02 38.5269C126.497 39.0372 128.811 40.1471 130.757 41.759C132.952 43.5484 134.472 46.0286 135.07 48.7935C137.147 58.4518 127.895 60.3935 127.895 60.3935C127.895 60.3935 138.854 63.5742 132.237 74.2757C125.62 84.9771 109.451 78.5515 109.451 78.5515C109.451 78.5515 111.301 94.1529 97.7724 98.37C84.2442 102.587 75.4548 95.9468 70.3639 90.7359C65.273 85.5251 39.105 83.6824 39.105 83.6824L28.5214 74.8265C28.5214 74.8265 14.636 46.6942 52.2157 43.7755C52.2157 43.7755 53.031 26.558 75.2135 26.2399C89.4397 26.036 96.8325 32.8719 100.306 37.8019C101.267 39.1794 102.634 40.2233 104.218 40.7881C105.801 41.353 107.522 41.4107 109.139 40.9531L116.552 38.832Z" fill="#929AEA"/>
<path d="M126.503 71.7634H1.88306V77.6267C1.88306 77.6267 6.46813 75.1139 6.89797 78.4643C7.32782 81.8148 6.89797 105.029 6.89797 105.029H12.1995V78.9443C12.1995 78.9443 13.489 75.1139 16.0681 76.5498C18.6472 77.9857 44.868 116.955 44.868 116.955L48.88 114.442V78.225C48.88 78.225 48.4501 75.2335 50.8859 75.2335C53.3218 75.2335 53.0352 78.1054 53.0352 78.1054V112.886L56.9039 110.732V78.9443C56.9039 78.9443 56.3307 75.9515 58.9098 75.9515C61.4889 75.9515 60.7725 78.9443 60.7725 78.9443V109.297L64.6411 107.741V78.3447C64.6411 78.3447 64.7844 76.0712 66.7904 76.0712C68.7963 76.0712 68.9396 78.225 68.9396 78.225V106.544L72.5237 105.946V77.8661C72.5237 77.8661 72.271 75.4729 74.5277 75.5626C76.7844 75.6523 76.3545 77.9857 76.3545 77.9857V106.006L80.7605 106.544L80.868 77.9857C80.868 77.9857 80.4381 75.5626 83.0172 75.4729C85.5963 75.3831 85.2739 78.1652 85.2739 78.1652V107.083L88.6053 108.339V78.1652C88.6053 78.1652 88.6053 75.7421 90.5396 75.6524C92.4739 75.5626 93.0112 78.1652 93.0112 78.1652V110.493L96.8799 112.288V77.9857C96.8799 77.9857 96.6649 75.5626 99.3515 75.4729C102.038 75.3831 101.716 78.3447 101.716 78.3447V113.365L105.584 111.032V78.4344C105.584 78.4344 105.369 75.3831 107.734 75.2934C110.098 75.2036 110.098 78.3447 110.098 78.3447V108.16L113.751 105.378V77.8062C113.751 77.8062 113.644 75.1139 115.686 75.1139C117.728 75.1139 117.728 77.896 117.728 77.896V103.583L121.811 99.4546V76.9985C121.811 76.9985 121.489 74.7549 123.423 74.6652C125.357 74.5754 125.68 76.3703 125.68 76.3703L125.572 78.7934L126.503 71.7634Z" fill="#C8CEFC"/>
<path d="M194.913 17.4468H174.524V89.8782H194.913V17.4468Z" fill="#C8CEFC"/>
<path d="M180.729 22.0908H179.138C178.905 22.0908 178.716 22.2798 178.716 22.5129V24.1068C178.716 24.3399 178.905 24.5288 179.138 24.5288H180.729C180.961 24.5288 181.15 24.3399 181.15 24.1068V22.5129C181.15 22.2798 180.961 22.0908 180.729 22.0908Z" fill="#DCF9E7"/>
<path d="M185.242 22.0908H183.651C183.419 22.0908 183.23 22.2798 183.23 22.5129V24.1068C183.23 24.3399 183.419 24.5288 183.651 24.5288H185.242C185.475 24.5288 185.664 24.3399 185.664 24.1068V22.5129C185.664 22.2798 185.475 22.0908 185.242 22.0908Z" fill="#DCF9E7"/>
<path d="M189.756 22.0908H188.165C187.932 22.0908 187.743 22.2798 187.743 22.5129V24.1068C187.743 24.3399 187.932 24.5288 188.165 24.5288H189.756C189.989 24.5288 190.177 24.3399 190.177 24.1068V22.5129C190.177 22.2798 189.989 22.0908 189.756 22.0908Z" fill="#DCF9E7"/>
<path d="M180.729 26.5071H179.138C178.905 26.5071 178.716 26.696 178.716 26.9291V28.523C178.716 28.7561 178.905 28.9451 179.138 28.9451H180.729C180.961 28.9451 181.15 28.7561 181.15 28.523V26.9291C181.15 26.696 180.961 26.5071 180.729 26.5071Z" fill="#DCF9E7"/>
<path d="M185.242 26.5071H183.651C183.419 26.5071 183.23 26.696 183.23 26.9291V28.523C183.23 28.7561 183.419 28.9451 183.651 28.9451H185.242C185.475 28.9451 185.664 28.7561 185.664 28.523V26.9291C185.664 26.696 185.475 26.5071 185.242 26.5071Z" fill="#DCF9E7"/>
<path d="M189.756 26.5071H188.165C187.932 26.5071 187.743 26.696 187.743 26.9291V28.523C187.743 28.7561 187.932 28.9451 188.165 28.9451H189.756C189.989 28.9451 190.177 28.7561 190.177 28.523V26.9291C190.177 26.696 189.989 26.5071 189.756 26.5071Z" fill="#DCF9E7"/>
<path d="M180.729 30.9235H179.138C178.905 30.9235 178.716 31.1124 178.716 31.3455V32.9394C178.716 33.1725 178.905 33.3615 179.138 33.3615H180.729C180.961 33.3615 181.15 33.1725 181.15 32.9394V31.3455C181.15 31.1124 180.961 30.9235 180.729 30.9235Z" fill="#DCF9E7"/>
<path d="M185.242 30.9235H183.651C183.419 30.9235 183.23 31.1124 183.23 31.3455V32.9394C183.23 33.1725 183.419 33.3615 183.651 33.3615H185.242C185.475 33.3615 185.664 33.1725 185.664 32.9394V31.3455C185.664 31.1124 185.475 30.9235 185.242 30.9235Z" fill="#DCF9E7"/>
<path d="M189.756 30.9235H188.165C187.932 30.9235 187.743 31.1124 187.743 31.3455V32.9394C187.743 33.1725 187.932 33.3615 188.165 33.3615H189.756C189.989 33.3615 190.177 33.1725 190.177 32.9394V31.3455C190.177 31.1124 189.989 30.9235 189.756 30.9235Z" fill="#DCF9E7"/>
<path d="M180.729 35.3397H179.138C178.905 35.3397 178.716 35.5287 178.716 35.7618V37.3557C178.716 37.5888 178.905 37.7777 179.138 37.7777H180.729C180.961 37.7777 181.15 37.5888 181.15 37.3557V35.7618C181.15 35.5287 180.961 35.3397 180.729 35.3397Z" fill="#DCF9E7"/>
<path d="M185.242 35.3397H183.651C183.419 35.3397 183.23 35.5287 183.23 35.7618V37.3557C183.23 37.5888 183.419 37.7777 183.651 37.7777H185.242C185.475 37.7777 185.664 37.5888 185.664 37.3557V35.7618C185.664 35.5287 185.475 35.3397 185.242 35.3397Z" fill="#DCF9E7"/>
<path d="M189.756 35.3397H188.165C187.932 35.3397 187.743 35.5287 187.743 35.7618V37.3557C187.743 37.5888 187.932 37.7777 188.165 37.7777H189.756C189.989 37.7777 190.177 37.5888 190.177 37.3557V35.7618C190.177 35.5287 189.989 35.3397 189.756 35.3397Z" fill="#DCF9E7"/>
<path d="M180.729 39.756H179.138C178.905 39.756 178.716 39.9449 178.716 40.178V41.7719C178.716 42.005 178.905 42.194 179.138 42.194H180.729C180.961 42.194 181.15 42.005 181.15 41.7719V40.178C181.15 39.9449 180.961 39.756 180.729 39.756Z" fill="#DCF9E7"/>
<path d="M185.242 39.756H183.651C183.419 39.756 183.23 39.9449 183.23 40.178V41.7719C183.23 42.005 183.419 42.194 183.651 42.194H185.242C185.475 42.194 185.664 42.005 185.664 41.7719V40.178C185.664 39.9449 185.475 39.756 185.242 39.756Z" fill="#DCF9E7"/>
<path d="M189.756 39.756H188.165C187.932 39.756 187.743 39.9449 187.743 40.178V41.7719C187.743 42.005 187.932 42.194 188.165 42.194H189.756C189.989 42.194 190.177 42.005 190.177 41.7719V40.178C190.177 39.9449 189.989 39.756 189.756 39.756Z" fill="#DCF9E7"/>
<path d="M180.729 44.1722H179.138C178.905 44.1722 178.716 44.3612 178.716 44.5943V46.1882C178.716 46.4213 178.905 46.6102 179.138 46.6102H180.729C180.961 46.6102 181.15 46.4213 181.15 46.1882V44.5943C181.15 44.3612 180.961 44.1722 180.729 44.1722Z" fill="#DCF9E7"/>
<path d="M185.242 44.1722H183.651C183.419 44.1722 183.23 44.3612 183.23 44.5943V46.1882C183.23 46.4213 183.419 46.6102 183.651 46.6102H185.242C185.475 46.6102 185.664 46.4213 185.664 46.1882V44.5943C185.664 44.3612 185.475 44.1722 185.242 44.1722Z" fill="#DCF9E7"/>
<path d="M189.756 44.1722H188.165C187.932 44.1722 187.743 44.3612 187.743 44.5943V46.1882C187.743 46.4213 187.932 46.6102 188.165 46.6102H189.756C189.989 46.6102 190.177 46.4213 190.177 46.1882V44.5943C190.177 44.3612 189.989 44.1722 189.756 44.1722Z" fill="#DCF9E7"/>
<path d="M180.729 48.5886H179.138C178.905 48.5886 178.716 48.7776 178.716 49.0107V50.6046C178.716 50.8377 178.905 51.0266 179.138 51.0266H180.729C180.961 51.0266 181.15 50.8377 181.15 50.6046V49.0107C181.15 48.7776 180.961 48.5886 180.729 48.5886Z" fill="#DCF9E7"/>
<path d="M185.242 48.5886H183.651C183.419 48.5886 183.23 48.7776 183.23 49.0107V50.6046C183.23 50.8377 183.419 51.0266 183.651 51.0266H185.242C185.475 51.0266 185.664 50.8377 185.664 50.6046V49.0107C185.664 48.7776 185.475 48.5886 185.242 48.5886Z" fill="#DCF9E7"/>
<path d="M189.756 48.5886H188.165C187.932 48.5886 187.743 48.7776 187.743 49.0107V50.6046C187.743 50.8377 187.932 51.0266 188.165 51.0266H189.756C189.989 51.0266 190.177 50.8377 190.177 50.6046V49.0107C190.177 48.7776 189.989 48.5886 189.756 48.5886Z" fill="#DCF9E7"/>
<path d="M180.729 53.0049H179.138C178.905 53.0049 178.716 53.1938 178.716 53.4269V55.0208C178.716 55.2539 178.905 55.4429 179.138 55.4429H180.729C180.961 55.4429 181.15 55.2539 181.15 55.0208V53.4269C181.15 53.1938 180.961 53.0049 180.729 53.0049Z" fill="#DCF9E7"/>
<path d="M185.242 53.0049H183.651C183.419 53.0049 183.23 53.1938 183.23 53.4269V55.0208C183.23 55.2539 183.419 55.4429 183.651 55.4429H185.242C185.475 55.4429 185.664 55.2539 185.664 55.0208V53.4269C185.664 53.1938 185.475 53.0049 185.242 53.0049Z" fill="#DCF9E7"/>
<path d="M189.756 53.0049H188.165C187.932 53.0049 187.743 53.1938 187.743 53.4269V55.0208C187.743 55.2539 187.932 55.4429 188.165 55.4429H189.756C189.989 55.4429 190.177 55.2539 190.177 55.0208V53.4269C190.177 53.1938 189.989 53.0049 189.756 53.0049Z" fill="#DCF9E7"/>
<path d="M180.729 57.5531H179.138C178.905 57.5531 178.716 57.7421 178.716 57.9751V59.569C178.716 59.8021 178.905 59.9911 179.138 59.9911H180.729C180.961 59.9911 181.15 59.8021 181.15 59.569V57.9751C181.15 57.7421 180.961 57.5531 180.729 57.5531Z" fill="#DCF9E7"/>
<path d="M185.242 57.5531H183.651C183.419 57.5531 183.23 57.7421 183.23 57.9751V59.569C183.23 59.8021 183.419 59.9911 183.651 59.9911H185.242C185.475 59.9911 185.664 59.8021 185.664 59.569V57.9751C185.664 57.7421 185.475 57.5531 185.242 57.5531Z" fill="#DCF9E7"/>
<path d="M189.756 57.5531H188.165C187.932 57.5531 187.743 57.7421 187.743 57.9751V59.569C187.743 59.8021 187.932 59.9911 188.165 59.9911H189.756C189.989 59.9911 190.177 59.8021 190.177 59.569V57.9751C190.177 57.7421 189.989 57.5531 189.756 57.5531Z" fill="#DCF9E7"/>
<path d="M180.729 61.9694H179.138C178.905 61.9694 178.716 62.1583 178.716 62.3914V63.9853C178.716 64.2184 178.905 64.4074 179.138 64.4074H180.729C180.961 64.4074 181.15 64.2184 181.15 63.9853V62.3914C181.15 62.1583 180.961 61.9694 180.729 61.9694Z" fill="#DCF9E7"/>
<path d="M185.242 61.9694H183.651C183.419 61.9694 183.23 62.1583 183.23 62.3914V63.9853C183.23 64.2184 183.419 64.4074 183.651 64.4074H185.242C185.475 64.4074 185.664 64.2184 185.664 63.9853V62.3914C185.664 62.1583 185.475 61.9694 185.242 61.9694Z" fill="#DCF9E7"/>
<path d="M189.756 61.9694H188.165C187.932 61.9694 187.743 62.1583 187.743 62.3914V63.9853C187.743 64.2184 187.932 64.4074 188.165 64.4074H189.756C189.989 64.4074 190.177 64.2184 190.177 63.9853V62.3914C190.177 62.1583 189.989 61.9694 189.756 61.9694Z" fill="#DCF9E7"/>
<path d="M180.729 66.3857H179.138C178.905 66.3857 178.716 66.5747 178.716 66.8078V68.4017C178.716 68.6348 178.905 68.8238 179.138 68.8238H180.729C180.961 68.8238 181.15 68.6348 181.15 68.4017V66.8078C181.15 66.5747 180.961 66.3857 180.729 66.3857Z" fill="#DCF9E7"/>
<path d="M185.242 66.3857H183.651C183.419 66.3857 183.23 66.5747 183.23 66.8078V68.4017C183.23 68.6348 183.419 68.8238 183.651 68.8238H185.242C185.475 68.8238 185.664 68.6348 185.664 68.4017V66.8078C185.664 66.5747 185.475 66.3857 185.242 66.3857Z" fill="#DCF9E7"/>
<path d="M189.756 66.3857H188.165C187.932 66.3857 187.743 66.5747 187.743 66.8078V68.4017C187.743 68.6348 187.932 68.8238 188.165 68.8238H189.756C189.989 68.8238 190.177 68.6348 190.177 68.4017V66.8078C190.177 66.5747 189.989 66.3857 189.756 66.3857Z" fill="#DCF9E7"/>
<path d="M180.729 70.802H179.138C178.905 70.802 178.716 70.991 178.716 71.2241V72.818C178.716 73.0511 178.905 73.24 179.138 73.24H180.729C180.961 73.24 181.15 73.0511 181.15 72.818V71.2241C181.15 70.991 180.961 70.802 180.729 70.802Z" fill="#DCF9E7"/>
<path d="M185.242 70.802H183.651C183.419 70.802 183.23 70.991 183.23 71.2241V72.818C183.23 73.0511 183.419 73.24 183.651 73.24H185.242C185.475 73.24 185.664 73.0511 185.664 72.818V71.2241C185.664 70.991 185.475 70.802 185.242 70.802Z" fill="#DCF9E7"/>
<path d="M189.756 70.802H188.165C187.932 70.802 187.743 70.991 187.743 71.2241V72.818C187.743 73.0511 187.932 73.24 188.165 73.24H189.756C189.989 73.24 190.177 73.0511 190.177 72.818V71.2241C190.177 70.991 189.989 70.802 189.756 70.802Z" fill="#DCF9E7"/>
<path d="M180.729 75.2183H179.138C178.905 75.2183 178.716 75.4072 178.716 75.6403V77.2342C178.716 77.4673 178.905 77.6562 179.138 77.6562H180.729C180.961 77.6562 181.15 77.4673 181.15 77.2342V75.6403C181.15 75.4072 180.961 75.2183 180.729 75.2183Z" fill="#DCF9E7"/>
<path d="M185.242 75.2183H183.651C183.419 75.2183 183.23 75.4072 183.23 75.6403V77.2342C183.23 77.4673 183.419 77.6562 183.651 77.6562H185.242C185.475 77.6562 185.664 77.4673 185.664 77.2342V75.6403C185.664 75.4072 185.475 75.2183 185.242 75.2183Z" fill="#DCF9E7"/>
<path d="M189.756 75.2183H188.165C187.932 75.2183 187.743 75.4072 187.743 75.6403V77.2342C187.743 77.4673 187.932 77.6562 188.165 77.6562H189.756C189.989 77.6562 190.177 77.4673 190.177 77.2342V75.6403C190.177 75.4072 189.989 75.2183 189.756 75.2183Z" fill="#DCF9E7"/>
<path d="M180.729 79.6345H179.138C178.905 79.6345 178.716 79.8235 178.716 80.0566V81.6505C178.716 81.8836 178.905 82.0725 179.138 82.0725H180.729C180.961 82.0725 181.15 81.8836 181.15 81.6505V80.0566C181.15 79.8235 180.961 79.6345 180.729 79.6345Z" fill="#DCF9E7"/>
<path d="M185.242 79.6345H183.651C183.419 79.6345 183.23 79.8235 183.23 80.0566V81.6505C183.23 81.8836 183.419 82.0725 183.651 82.0725H185.242C185.475 82.0725 185.664 81.8836 185.664 81.6505V80.0566C185.664 79.8235 185.475 79.6345 185.242 79.6345Z" fill="#DCF9E7"/>
<path d="M189.756 79.6345H188.165C187.932 79.6345 187.743 79.8235 187.743 80.0566V81.6505C187.743 81.8836 187.932 82.0725 188.165 82.0725H189.756C189.989 82.0725 190.177 81.8836 190.177 81.6505V80.0566C190.177 79.8235 189.989 79.6345 189.756 79.6345Z" fill="#DCF9E7"/>
<path d="M180.729 84.0508H179.138C178.905 84.0508 178.716 84.2397 178.716 84.4728V86.0667C178.716 86.2998 178.905 86.4888 179.138 86.4888H180.729C180.961 86.4888 181.15 86.2998 181.15 86.0667V84.4728C181.15 84.2397 180.961 84.0508 180.729 84.0508Z" fill="#DCF9E7"/>
<path d="M185.242 84.0508H183.651C183.419 84.0508 183.23 84.2397 183.23 84.4728V86.0667C183.23 86.2998 183.419 86.4888 183.651 86.4888H185.242C185.475 86.4888 185.664 86.2998 185.664 86.0667V84.4728C185.664 84.2397 185.475 84.0508 185.242 84.0508Z" fill="#DCF9E7"/>
<path d="M189.756 84.0508H188.165C187.932 84.0508 187.743 84.2397 187.743 84.4728V86.0667C187.743 86.2998 187.932 86.4888 188.165 86.4888H189.756C189.989 86.4888 190.177 86.2998 190.177 86.0667V84.4728C190.177 84.2397 189.989 84.0508 189.756 84.0508Z" fill="#DCF9E7"/>
<path d="M180.729 88.4672H179.138C178.905 88.4672 178.716 88.6561 178.716 88.8892V90.4831C178.716 90.7162 178.905 90.9052 179.138 90.9052H180.729C180.961 90.9052 181.15 90.7162 181.15 90.4831V88.8892C181.15 88.6561 180.961 88.4672 180.729 88.4672Z" fill="#DCF9E7"/>
<path d="M185.242 88.4672H183.651C183.419 88.4672 183.23 88.6561 183.23 88.8892V90.4831C183.23 90.7162 183.419 90.9052 183.651 90.9052H185.242C185.475 90.9052 185.664 90.7162 185.664 90.4831V88.8892C185.664 88.6561 185.475 88.4672 185.242 88.4672Z" fill="#DCF9E7"/>
<path d="M189.756 88.4672H188.165C187.932 88.4672 187.743 88.6561 187.743 88.8892V90.4831C187.743 90.7162 187.932 90.9052 188.165 90.9052H189.756C189.989 90.9052 190.177 90.7162 190.177 90.4831V88.8892C190.177 88.6561 189.989 88.4672 189.756 88.4672Z" fill="#DCF9E7"/>
<path d="M48.2275 71.7356H50.0375C50.0375 71.7356 51.4546 72.0916 51.4015 70.2579C51.3484 68.4243 51.4035 61.7231 51.4035 61.7231C51.4035 61.7231 51.7201 59.7553 49.2248 59.7021C46.7295 59.6489 12.9452 59.7021 12.9452 59.7021C12.9452 59.7021 11.4071 59.5309 8.58733 61.414C5.76754 63.2972 0.996857 66.9228 0.656395 69.097C0.315933 71.2711 2.01449 71.7356 2.01449 71.7356L48.2275 71.7356Z" fill="#BDF9D3"/>
<path d="M13.0122 61.1885V70.258H3.08856C3.08856 70.258 1.09316 70.258 2.23708 68.5647C3.14663 67.2183 9.66805 61.1885 13.0122 61.1885Z" fill="#5CEEA7"/>
<path d="M15.2311 61.1885H49.4316C49.8359 61.1885 50.1636 61.5167 50.1636 61.9217V64.9878C50.1636 65.3927 49.8359 65.721 49.4316 65.721H15.2311C14.8269 65.721 14.4992 65.3927 14.4992 64.9878V61.9217C14.4992 61.5167 14.8269 61.1885 15.2311 61.1885Z" fill="#5CEEA7"/>
<path d="M55.2192 59.823H96.8298C97.8822 59.823 98.7354 60.6776 98.7354 61.7318V69.8546C98.7354 70.9088 97.8822 71.7634 96.8298 71.7634H55.2192C54.1668 71.7634 53.3137 70.9088 53.3137 69.8546V61.7318C53.3137 60.6776 54.1668 59.823 55.2192 59.823Z" fill="#BDF9D3"/>
<path d="M55.402 61.1885H96.7236C97.1279 61.1885 97.4556 61.5167 97.4556 61.9217V64.9878C97.4556 65.3927 97.1279 65.721 96.7236 65.721H55.402C54.9977 65.721 54.67 65.3927 54.67 64.9878V61.9217C54.67 61.5167 54.9977 61.1885 55.402 61.1885Z" fill="#5CEEA7"/>
<path d="M59.9095 78.6709V54.043H53.6152L46.2554 42.0959H145.761C145.761 42.0959 155.3 43.9082 154.806 29.9042C154.806 29.9042 148.392 30.8928 148.228 23.9732C148.063 17.0536 158.425 18.3962 158.425 18.3962C158.425 18.3962 164.385 18.7102 164.51 13.5938C164.635 8.47951 167.275 9.71282 167.636 11.7937C168.055 14.2086 166.613 18.3962 174.707 18.3962C181.287 18.3962 182.437 21.1724 182.437 22.9846C182.437 24.7969 183.095 30.2337 176.845 30.2337V100.527H184.246C184.246 100.527 183.917 103.711 181.121 103.877C178.325 104.043 176.022 104.537 176.022 108.491V115.246H66.1187L59.9095 78.6709Z" fill="#252E6C"/>
<path d="M59.9094 54.9465H149.214C149.214 54.9465 155.135 54.0429 155.135 58.3352C155.135 61.8598 152.997 61.7014 149.214 61.7838C145.432 61.8661 59.9094 61.7838 59.9094 61.7838V54.9465Z" fill="#7077D8"/>
<path d="M59.9094 65.8003H149.214C149.214 65.8003 155.135 64.8967 155.135 69.189C155.135 72.7136 152.997 72.5551 149.214 72.6375C145.432 72.7199 59.9094 72.6375 59.9094 72.6375V65.8003Z" fill="#7077D8"/>
<path d="M59.9094 76.6542H149.214C149.214 76.6542 155.135 75.7505 155.135 80.0429C155.135 83.5675 152.997 83.409 149.214 83.4914C145.432 83.5738 59.9094 83.4914 59.9094 83.4914V76.6542Z" fill="#7077D8"/>
<path d="M59.9094 87.5079H149.214C149.214 87.5079 155.135 86.6043 155.135 90.8966C155.135 94.4212 152.997 94.2627 149.214 94.3451C145.432 94.4275 59.9094 94.3451 59.9094 94.3451V87.5079Z" fill="#7077D8"/>
<path d="M59.9094 99.044H149.214C149.214 99.044 155.135 98.1405 155.135 102.433C155.135 105.957 152.997 105.799 149.214 105.881C145.432 105.964 59.9094 105.881 59.9094 105.881V99.044Z" fill="#7077D8"/>
<path d="M156.992 22.7375H149.961V24.8381H156.992V22.7375Z" fill="#C8CEFC"/>
<path d="M164.996 22.7375H157.966V24.8381H164.996V22.7375Z" fill="#C8CEFC"/>
<path d="M173.377 22.7375H166.346V24.8381H173.377V22.7375Z" fill="#C8CEFC"/>
<path d="M181.46 22.7375H174.429V24.8381H181.46V22.7375Z" fill="#C8CEFC"/>
<path d="M166.405 0.24707H165.922V10.4421H166.405V0.24707Z" fill="#252E6C"/>
<path d="M39.8684 86.9778H105.331V110.176C105.331 111.521 104.798 112.81 103.848 113.761C102.899 114.712 101.612 115.246 100.27 115.246H39.8684V86.9778Z" fill="#7077D8"/>
<path d="M95.7887 74.833H49.4104C44.1405 74.833 39.8684 79.1125 39.8684 84.3916V88.5301C39.8684 93.8091 44.1405 98.0887 49.4104 98.0887H95.7887C101.059 98.0887 105.331 93.8091 105.331 88.5301V84.3916C105.331 79.1125 101.059 74.833 95.7887 74.833Z" fill="#929AEA"/>
<path d="M95.6432 77.3149H49.5559C45.5276 77.3149 42.262 80.5862 42.262 84.6216V88.3002C42.262 92.3355 45.5276 95.6068 49.5559 95.6068H95.6432C99.6716 95.6068 102.937 92.3355 102.937 88.3002V84.6216C102.937 80.5862 99.6716 77.3149 95.6432 77.3149Z" fill="#E6E9FC"/>
<path d="M93.1726 95.6068C93.1726 95.6068 93.0897 92.7855 95.5676 92.8007C98.1876 92.8166 98.022 95.6068 98.022 95.6068V115.246H98.783V95.568C98.783 95.568 99.0264 91.9125 95.6684 91.9125C92.1831 91.9125 92.3497 95.6068 92.3497 95.6068H93.1726Z" fill="#252E6C"/>
<path d="M85.196 95.6068C85.196 95.6068 85.1131 92.7855 87.5911 92.8007C90.2111 92.8166 90.0455 95.6068 90.0455 95.6068V115.246H90.8064V95.568C90.8064 95.568 91.0499 91.9125 87.6918 91.9125C84.2065 91.9125 84.3731 95.6068 84.3731 95.6068H85.196Z" fill="#252E6C"/>
<path d="M98.3552 99.699H90.4482V100.346H98.3552V99.699Z" fill="#252E6C"/>
<path d="M98.3552 103.072H90.4482V103.719H98.3552V103.072Z" fill="#252E6C"/>
<path d="M98.3552 106.427H90.4482V107.073H98.3552V106.427Z" fill="#252E6C"/>
<path d="M98.3552 109.8H90.4482V110.446H98.3552V109.8Z" fill="#252E6C"/>
<path d="M98.3552 113.147H90.4482V113.794H98.3552V113.147Z" fill="#252E6C"/>
<path d="M215.548 75.3353C216.778 74.0794 217.212 72.2361 216.682 70.5226C216.15 68.8091 214.765 67.5859 213.064 67.3263L197.935 65.0229C197.291 64.9245 196.734 64.5011 196.446 63.8888L189.682 49.524C188.923 47.9102 187.382 46.9072 185.664 46.9072C183.947 46.9072 182.406 47.9102 181.646 49.524L174.882 63.8888C174.594 64.5011 174.036 64.9245 173.391 65.0229L158.263 67.3276C156.563 67.5859 155.178 68.8091 154.646 70.5226C154.115 72.2361 154.549 74.0794 155.779 75.3353L166.725 86.5157C167.192 86.9929 167.406 87.6799 167.296 88.3511L164.712 104.14C164.422 105.914 165.104 107.672 166.494 108.731C167.883 109.792 169.691 109.929 171.213 109.089L184.743 101.634C185.32 101.317 186.008 101.317 186.585 101.634L200.116 109.089C200.776 109.453 201.492 109.633 202.204 109.633C203.128 109.633 204.049 109.33 204.835 108.731C206.225 107.672 206.907 105.914 206.617 104.14L204.032 88.3524C203.922 87.6799 204.136 86.9942 204.602 86.517L215.548 75.3353Z" fill="#5CEEA7"/>
</svg>
