<svg width="31" height="31" viewBox="0 0 31 31" fill="none" xmlns="http://www.w3.org/2000/svg">
<path d="M4.0417 16.6063C4.04192 14.0028 5.0175 11.4939 6.7761 9.57419C8.5347 7.65447 10.9487 6.46325 13.5422 6.23538C13.2411 6.20923 12.9366 6.19531 12.6287 6.19531C9.86759 6.19538 7.21956 7.29226 5.26714 9.24468C3.31472 11.1971 2.21784 13.8451 2.21777 16.6063C2.21777 22.3565 6.88611 27.0178 12.6357 27.0178C12.9436 27.0178 13.2477 27.0039 13.5477 26.9777C8.22456 26.5158 4.0417 22.0492 4.0417 16.6063Z" fill="#D4E1F4"/>
<path d="M19.7584 8.52614C17.7904 6.78814 15.2549 5.82946 12.6293 5.83057C6.68752 5.83057 1.85352 10.6646 1.85352 16.6064C1.85352 22.5482 6.68752 27.3823 12.6293 27.3823C14.3581 27.382 16.0615 26.9668 17.5965 26.1716L17.2646 25.5244C15.9435 26.2054 14.489 26.5881 13.0038 26.6453V25.5004C13.0038 25.4036 12.9654 25.3108 12.897 25.2424C12.8286 25.174 12.7358 25.1356 12.639 25.1356C12.5423 25.1356 12.4495 25.174 12.3811 25.2424C12.3127 25.3108 12.2743 25.4036 12.2743 25.5004V26.6454C9.86225 26.559 7.56235 25.6054 5.79684 23.9597L6.60077 23.1533C6.66819 23.0845 6.7057 22.9918 6.70511 22.8954C6.70452 22.7991 6.6659 22.7068 6.59764 22.6388C6.52938 22.5708 6.43701 22.5325 6.34064 22.5322C6.24427 22.5319 6.1517 22.5698 6.08307 22.6374L5.27647 23.4406C3.63071 21.6758 2.67696 19.3764 2.59038 16.9648H3.73544C3.83219 16.9648 3.92497 16.9264 3.99338 16.858C4.06179 16.7896 4.10023 16.6968 4.10023 16.6C4.10023 16.5033 4.06179 16.4105 3.99338 16.3421C3.92497 16.2737 3.83219 16.2353 3.73544 16.2353H2.59038C2.67687 13.8256 3.6306 11.5283 5.27611 9.76587L6.08247 10.5738C6.11612 10.6083 6.15627 10.6357 6.20059 10.6545C6.24491 10.6734 6.29253 10.6832 6.34069 10.6835C6.38885 10.6839 6.43659 10.6746 6.48116 10.6564C6.52572 10.6381 6.56623 10.6112 6.60033 10.5772C6.63443 10.5432 6.66145 10.5028 6.67982 10.4582C6.6982 10.4137 6.70756 10.366 6.70738 10.3179C6.70719 10.2697 6.69746 10.2221 6.67874 10.1777C6.66002 10.1333 6.63269 10.0931 6.59833 10.0593L5.79684 9.2531C7.56236 7.60744 9.86226 6.65388 12.2743 6.56749V7.71249C12.2743 7.80924 12.3127 7.90202 12.3811 7.97043C12.4495 8.03885 12.5423 8.07728 12.639 8.07728C12.7358 8.07728 12.8286 8.03885 12.897 7.97043C12.9654 7.90202 13.0038 7.80924 13.0038 7.71249V6.56737C15.3228 6.65206 17.5408 7.53743 19.2807 9.0729C19.3464 9.13096 19.4084 9.18999 19.4727 9.24957L18.6616 10.0595C18.6272 10.0932 18.5999 10.1334 18.5812 10.1777C18.5625 10.222 18.5527 10.2696 18.5524 10.3177C18.5522 10.3658 18.5614 10.4135 18.5797 10.458C18.598 10.5025 18.6249 10.543 18.6589 10.577C18.6928 10.6111 18.7332 10.6381 18.7777 10.6564C18.8222 10.6748 18.8698 10.6842 18.9179 10.684C18.966 10.6839 19.0137 10.6742 19.058 10.6556C19.1024 10.6369 19.1426 10.6097 19.1764 10.5754L19.9861 9.76562C21.4041 11.2874 22.3135 13.2128 22.5882 15.2747L23.3117 15.1789C22.9684 12.6054 21.7064 10.2426 19.7584 8.52614Z" fill="#252E6C"/>
<path d="M12.6289 19.1783C12.966 19.179 13.3 19.1133 13.6117 18.985C13.9234 18.8566 14.2067 18.6681 14.4456 18.4302C14.6844 18.1923 14.874 17.9096 15.0035 17.5984C15.1331 17.2872 15.2001 16.9535 15.2007 16.6164C15.2035 16.3845 15.171 16.1535 15.1045 15.9313L15.1035 15.9182C15.0839 15.8489 15.0619 15.7756 15.0366 15.7088L12.9756 9.40013C12.952 9.32666 12.9056 9.26258 12.8432 9.21717C12.7809 9.17175 12.7056 9.14734 12.6285 9.14746C12.5513 9.14758 12.4762 9.17223 12.4139 9.21784C12.3516 9.26346 12.3055 9.32768 12.2821 9.40123L10.2292 15.6881H10.2296C10.117 15.9823 10.0586 16.2944 10.0571 16.6094C10.058 17.291 10.3293 17.9443 10.8115 18.426C11.2937 18.9076 11.9474 19.1782 12.6289 19.1783ZM12.6289 18.4487C12.2932 18.4488 11.9638 18.3571 11.6765 18.1835C11.3891 18.01 11.1546 17.7612 10.9983 17.4641C10.842 17.167 10.7699 16.8328 10.7898 16.4976C10.8096 16.1625 10.9207 15.8391 11.111 15.5625C11.3012 15.2859 11.5635 15.0666 11.8693 14.9282C12.1752 14.7898 12.5131 14.7376 12.8465 14.7773C13.1798 14.817 13.496 14.947 13.7609 15.1534C14.0257 15.3597 14.2291 15.6345 14.3491 15.948L14.4071 16.1253C14.4811 16.3984 14.4912 16.685 14.4366 16.9626C14.3819 17.2403 14.2641 17.5016 14.0921 17.7264C13.9201 17.9511 13.6986 18.1332 13.4449 18.2585C13.1911 18.3837 12.9119 18.4488 12.6289 18.4487ZM12.6289 10.6854L13.8195 14.328C13.4523 14.1354 13.0439 14.0347 12.6294 14.0346C12.2148 14.0345 11.8063 14.135 11.4391 14.3274L12.6289 10.6854Z" fill="#252E6C"/>
<path d="M12.6289 15.2524C12.3611 15.2524 12.0993 15.3318 11.8766 15.4806C11.654 15.6294 11.4804 15.8409 11.378 16.0883C11.2755 16.3357 11.2487 16.6079 11.3009 16.8705C11.3532 17.1332 11.4821 17.3744 11.6715 17.5638C11.8608 17.7531 12.1021 17.8821 12.3647 17.9343C12.6274 17.9866 12.8996 17.9598 13.147 17.8573C13.3944 17.7548 13.6059 17.5813 13.7546 17.3586C13.9034 17.136 13.9828 16.8742 13.9828 16.6064C13.9823 16.2475 13.8395 15.9034 13.5857 15.6495C13.3319 15.3957 12.9878 15.2529 12.6289 15.2524ZM12.6289 17.2308C12.5054 17.2308 12.3847 17.1942 12.282 17.1256C12.1793 17.057 12.0993 16.9594 12.052 16.8453C12.0047 16.7313 11.9924 16.6057 12.0165 16.4846C12.0406 16.3635 12.1 16.2522 12.1874 16.1649C12.2747 16.0776 12.3859 16.0181 12.5071 15.994C12.6282 15.9699 12.7537 15.9823 12.8678 16.0295C12.9819 16.0768 13.0794 16.1568 13.148 16.2595C13.2166 16.3622 13.2533 16.4829 13.2533 16.6064C13.2531 16.7719 13.1872 16.9307 13.0702 17.0477C12.9531 17.1648 12.7944 17.2306 12.6289 17.2308Z" fill="#252E6C"/>
<path d="M20.8509 7.00829C18.8963 5.33357 16.4763 4.2965 13.9156 4.03614V3.87059C14.1851 3.67209 14.4037 3.41262 14.5537 3.11339C14.7037 2.81417 14.7807 2.48369 14.7785 2.14899C14.7793 1.78255 14.6862 1.42201 14.5081 1.10179C14.3299 0.781564 14.0727 0.512338 13.7609 0.319806C13.4491 0.127273 13.0932 0.0178596 12.7271 0.00200753C12.361 -0.0138446 11.9969 0.0643937 11.6697 0.229255C11.3424 0.394117 11.0629 0.6401 10.8577 0.943728C10.6526 1.24736 10.5286 1.5985 10.4978 1.96363C10.4669 2.32877 10.5302 2.69573 10.6815 3.02947C10.8328 3.36321 11.0671 3.65261 11.3621 3.87004V4.03481C4.97834 4.67896 0 10.0712 0 16.6064C0 23.5738 5.66505 29.2425 12.6327 29.2425C14.3179 29.2458 15.9866 28.9095 17.539 28.2539L17.2546 27.5816C15.7911 28.1994 14.2182 28.5161 12.6296 28.513C6.06425 28.513 0.722517 23.1717 0.722517 16.6064C0.722517 10.0411 6.06364 4.69981 12.629 4.69981C15.4501 4.69995 18.1796 5.70155 20.3313 7.52619C22.4829 9.35083 23.9169 11.88 24.378 14.6632L25.0993 14.545C24.6137 11.6113 23.1094 8.94268 20.8509 7.00829ZM12.6291 0.731861C13.0048 0.732295 13.365 0.881739 13.6307 1.14741C13.8963 1.41308 14.0458 1.77328 14.0462 2.14899C14.0467 2.35655 13.9993 2.56144 13.9079 2.74778C13.8962 2.5503 13.8105 2.3645 13.6678 2.22747C13.5251 2.09045 13.336 2.01229 13.1382 2.00861H12.12C11.9232 2.01227 11.7349 2.08968 11.5924 2.22552C11.45 2.36135 11.3637 2.54572 11.3506 2.74213C11.2597 2.55491 11.2123 2.34957 11.212 2.14145C11.2123 1.95581 11.2493 1.77206 11.3207 1.60072C11.3922 1.42937 11.4967 1.27379 11.6283 1.14287C11.7599 1.01195 11.9161 0.908266 12.0878 0.837741C12.2595 0.767217 12.4435 0.731237 12.6291 0.731861ZM12.0916 3.98295V2.81113C12.0916 2.78773 12.0966 2.73818 12.12 2.73818H13.1382C13.1617 2.73818 13.186 2.78742 13.186 2.81113V3.9827C13.0036 3.97468 12.8231 3.97054 12.6388 3.97054C12.4545 3.97054 12.274 3.97504 12.0916 3.98295Z" fill="#252E6C"/>
<path d="M8.604 9.96679C8.49007 10.0349 8.37656 10.1066 8.26664 10.1804C8.2266 10.207 8.1922 10.2412 8.16542 10.2811C8.13864 10.321 8.12001 10.3658 8.11059 10.4129C8.10117 10.46 8.10116 10.5085 8.11054 10.5557C8.11993 10.6028 8.13853 10.6476 8.16528 10.6875C8.19203 10.7274 8.22641 10.7616 8.26643 10.7882C8.30645 10.8148 8.35133 10.8333 8.39849 10.8424C8.44565 10.8516 8.49416 10.8514 8.54124 10.8418C8.58832 10.8322 8.63304 10.8134 8.67283 10.7865C8.77229 10.7196 8.8751 10.6547 8.97827 10.5931C9.0603 10.5429 9.11924 10.4625 9.14226 10.3691C9.16528 10.2758 9.15053 10.1772 9.10121 10.0946C9.05189 10.0121 8.97199 9.9524 8.87889 9.92848C8.78578 9.90455 8.687 9.91834 8.604 9.96685V9.96679Z" fill="#252E6C"/>
<path d="M7.58722 11.1664C7.51829 11.0985 7.42522 11.0608 7.32848 11.0615C7.23173 11.0623 7.13924 11.1014 7.07135 11.1703C6.16377 12.0922 5.50164 13.2268 5.14545 14.4704C4.78927 15.7141 4.75037 17.0271 5.03232 18.2897C5.04266 18.3366 5.06217 18.381 5.08971 18.4204C5.11726 18.4597 5.15232 18.4933 5.19286 18.5191C5.23341 18.5448 5.27864 18.5623 5.32597 18.5706C5.3733 18.5788 5.42179 18.5776 5.46866 18.5671C5.51553 18.5565 5.55986 18.5368 5.59909 18.5091C5.63833 18.4814 5.6717 18.4462 5.69729 18.4055C5.72288 18.3649 5.74019 18.3195 5.74822 18.2722C5.75625 18.2248 5.75484 18.1763 5.74408 18.1295C5.485 16.9863 5.51842 15.7961 5.84127 14.6693C6.16412 13.5424 6.76596 12.5151 7.59111 11.6825C7.62475 11.6483 7.65134 11.6079 7.66935 11.5635C7.68737 11.5191 7.69645 11.4716 7.69609 11.4236C7.69573 11.3757 7.68593 11.3283 7.66725 11.2842C7.64857 11.2401 7.62137 11.2 7.58722 11.1664Z" fill="#252E6C"/>
<path d="M30.486 28.3711C30.4272 27.9616 30.3959 27.5486 30.3923 27.1349V24.2932C30.3926 22.5244 29.6932 20.8273 28.4468 19.5723L28.4477 19.5679C28.2618 19.3821 28.0472 19.2272 27.8122 19.1094C27.9147 18.9429 27.9693 18.7513 27.9698 18.5558C27.9701 18.2808 27.8618 18.0167 27.6683 17.8212C27.4749 17.6257 27.212 17.5146 26.937 17.512H26.3797L27.8904 14.8743C27.9165 14.8294 27.9324 14.7793 27.937 14.7275C27.9416 14.6758 27.9347 14.6237 27.9169 14.5749C27.899 14.5256 27.8705 14.4809 27.8336 14.4437C27.7966 14.4065 27.752 14.3778 27.7029 14.3596C26.5133 13.9129 25.1952 13.9553 24.0368 14.4774L23.8307 14.5715C23.3002 14.8125 22.7238 14.936 22.141 14.9335C21.5583 14.931 20.983 14.8026 20.4545 14.5571L20.0559 14.3721C19.9866 14.34 19.9089 14.3304 19.8338 14.3447C19.7588 14.3591 19.6901 14.3966 19.6375 14.4521C19.5851 14.5056 19.5512 14.5746 19.5408 14.6488C19.5305 14.7231 19.5442 14.7987 19.58 14.8645L20.9906 17.512H20.7711C20.578 17.5137 20.3891 17.5689 20.2255 17.6716C20.0619 17.7742 19.93 17.9203 19.8446 18.0935C19.7591 18.2667 19.7234 18.4602 19.7415 18.6525C19.7595 18.8448 19.8306 19.0283 19.9468 19.1826C19.2153 19.5414 18.5907 20.0857 18.135 20.7612C17.4366 21.8058 17.0682 23.0362 17.0776 24.2927V27.1309C17.0751 27.5468 17.0447 27.9621 16.9864 28.3739C16.9491 28.6411 16.9694 28.9132 17.0461 29.1718C17.1228 29.4305 17.2541 29.6697 17.4311 29.8733C17.608 30.077 17.8266 30.2403 18.072 30.3523C18.3175 30.4643 18.5841 30.5224 18.8538 30.5227L28.6228 30.5199C28.8927 30.5206 29.1597 30.4632 29.4054 30.3514C29.6511 30.2397 29.8698 30.0763 30.0467 29.8723C30.2235 29.6684 30.3543 29.4287 30.4301 29.1696C30.506 28.9105 30.525 28.6382 30.486 28.3711ZM20.7046 15.4273C21.8317 15.7896 23.0534 15.72 24.132 15.2319L24.3381 15.1407C25.1834 14.7572 26.1343 14.6733 27.0337 14.9028L25.54 17.512H24.6305L25.1063 16.5527C25.147 16.4661 25.1521 16.3671 25.1206 16.2768C25.089 16.1865 25.0233 16.1121 24.9376 16.0697C24.8518 16.0273 24.7529 16.0202 24.662 16.0499C24.5711 16.0797 24.4954 16.1439 24.4513 16.2288L23.8177 17.512H23.263L23.0498 16.9284C23.0334 16.8835 23.0083 16.8424 22.9759 16.8073C22.9435 16.7722 22.9046 16.7438 22.8612 16.7238C22.8178 16.7038 22.7709 16.6926 22.7232 16.6908C22.6755 16.689 22.6279 16.6966 22.5832 16.7133C22.5383 16.7286 22.4969 16.7528 22.4615 16.7843C22.4261 16.8158 22.3973 16.8541 22.3768 16.8969C22.3564 16.9396 22.3446 16.9861 22.3423 17.0334C22.3399 17.0808 22.3471 17.1281 22.3633 17.1727L22.4877 17.512H21.8166L20.7046 15.4273ZM20.7711 18.2416H26.937C27.0176 18.2416 27.0949 18.2736 27.1519 18.3306C27.209 18.3876 27.241 18.465 27.241 18.5456C27.241 18.6262 27.209 18.7035 27.1519 18.7605C27.0949 18.8175 27.0176 18.8496 26.937 18.8496H20.7711C20.6905 18.8496 20.6131 18.8175 20.5561 18.7605C20.4991 18.7035 20.4671 18.6262 20.4671 18.5456C20.4671 18.465 20.4991 18.3876 20.5561 18.3306C20.6131 18.2736 20.6905 18.2416 20.7711 18.2416ZM29.4966 29.3931C29.3876 29.5178 29.2533 29.6178 29.1025 29.6863C28.9518 29.7548 28.7881 29.7903 28.6225 29.7903L18.8541 29.7931C18.6882 29.7937 18.5238 29.7584 18.3728 29.6897C18.2217 29.621 18.0873 29.5205 17.9786 29.3951C17.87 29.2697 17.7897 29.1223 17.7433 28.963C17.6968 28.8037 17.6853 28.6363 17.7096 28.4721C17.7721 28.0277 17.8048 27.5797 17.8072 27.1309V24.2927C17.798 23.1795 18.1227 22.089 18.7393 21.1621C19.2495 20.4082 20.0089 19.8831 20.8928 19.5791L27.0058 19.5859L27.1428 19.6263C27.4438 19.7047 27.7183 19.8621 27.9381 20.0822L27.9321 20.0879C29.0415 21.206 29.6636 22.7176 29.6627 24.2927V27.1349C29.6663 27.5814 29.6998 28.0271 29.7632 28.4691C29.7874 28.6332 29.7761 28.8006 29.7302 28.96C29.6842 29.1194 29.6045 29.2671 29.4966 29.3931Z" fill="#57E1D1"/>
<path d="M29.4966 29.3931C29.3876 29.5178 29.2533 29.6178 29.1025 29.6863C28.9518 29.7548 28.7881 29.7903 28.6225 29.7903L18.8541 29.7931C18.6882 29.7937 18.5238 29.7584 18.3728 29.6897C18.2217 29.621 18.0873 29.5205 17.9786 29.3951C17.87 29.2697 17.7897 29.1223 17.7433 28.963C17.6968 28.8037 17.6853 28.6363 17.7096 28.4721C17.7721 28.0277 17.8048 27.5797 17.8072 27.1309V24.2927C17.798 23.1795 18.1227 22.089 18.7393 21.1621C19.2495 20.4082 20.0089 19.8831 20.8928 19.5791L27.0058 19.5859L27.1428 19.6263C27.4438 19.7047 27.7183 19.8621 27.9381 20.0822L27.9321 20.0879C29.0415 21.206 29.6636 22.7176 29.6627 24.2927V27.1349C29.6663 27.5814 29.6998 28.0271 29.7632 28.4691C29.7874 28.6332 29.7761 28.8006 29.7302 28.96C29.6842 29.1194 29.6045 29.2671 29.4966 29.3931Z" fill="#57E1D1"/>
<path d="M20.7046 15.4273C21.8317 15.7896 23.0534 15.72 24.132 15.2319L24.3381 15.1407C25.1834 14.7572 26.1343 14.6733 27.0337 14.9028L25.54 17.512H24.6305L25.1063 16.5527C25.147 16.4661 25.1521 16.3671 25.1206 16.2768C25.089 16.1865 25.0233 16.1121 24.9376 16.0697C24.8518 16.0273 24.7529 16.0202 24.662 16.0499C24.5711 16.0797 24.4954 16.1439 24.4513 16.2288L23.8177 17.512H23.263L23.0498 16.9284C23.0334 16.8835 23.0083 16.8424 22.9759 16.8073C22.9435 16.7722 22.9046 16.7438 22.8612 16.7238C22.8178 16.7038 22.7709 16.6926 22.7232 16.6908C22.6755 16.689 22.6279 16.6966 22.5832 16.7133C22.5383 16.7286 22.4969 16.7528 22.4615 16.7843C22.4261 16.8158 22.3973 16.8541 22.3768 16.8969C22.3564 16.9396 22.3446 16.9861 22.3423 17.0334C22.3399 17.0808 22.3471 17.1281 22.3633 17.1727L22.4877 17.512H21.8166L20.7046 15.4273Z" fill="#57E1D1"/>
<path d="M19.4048 21.5331C19.4438 21.5609 19.488 21.5807 19.5347 21.5914C19.5813 21.6021 19.6297 21.6035 19.6769 21.5956C19.7242 21.5876 19.7694 21.5704 19.81 21.545C19.8506 21.5195 19.8857 21.4863 19.9135 21.4473C19.9869 21.3439 20.0655 21.2419 20.1462 21.1433C20.1773 21.1064 20.2008 21.0637 20.2152 21.0176C20.2297 20.9715 20.2349 20.9231 20.2305 20.875C20.2261 20.8269 20.2122 20.7802 20.1896 20.7375C20.167 20.6949 20.1362 20.6571 20.0989 20.6265C20.0616 20.5958 20.0186 20.5728 19.9723 20.5589C19.9261 20.545 19.8776 20.5404 19.8296 20.5454C19.7815 20.5504 19.735 20.5649 19.6926 20.588C19.6502 20.6111 19.6128 20.6424 19.5826 20.68C19.4908 20.7916 19.4021 20.9075 19.319 21.0245C19.2629 21.1033 19.2405 21.2012 19.2566 21.2966C19.2727 21.392 19.326 21.4771 19.4048 21.5331Z" fill="#FBFDFF"/>
<path d="M19.306 21.6952C19.2631 21.6741 19.2164 21.6616 19.1686 21.6585C19.1208 21.6554 19.0729 21.6617 19.0276 21.6772C18.9822 21.6926 18.9404 21.7168 18.9045 21.7484C18.8685 21.78 18.8391 21.8184 18.818 21.8614C18.391 22.7375 18.1698 23.6997 18.1714 24.6743V26.2206C18.1714 26.3174 18.2098 26.4102 18.2782 26.4786C18.3466 26.547 18.4394 26.5854 18.5362 26.5854C18.6329 26.5854 18.7257 26.547 18.7941 26.4786C18.8625 26.4102 18.901 26.3174 18.901 26.2206V24.6722C18.8993 23.81 19.0948 22.9588 19.4725 22.1836C19.4936 22.1406 19.5061 22.0939 19.5092 22.0461C19.5122 21.9983 19.5059 21.9503 19.4904 21.9049C19.4749 21.8596 19.4507 21.8177 19.4191 21.7817C19.3874 21.7458 19.349 21.7164 19.306 21.6952Z" fill="#FBFDFF"/>
</svg>
