<svg width="170" height="155" viewBox="0 0 170 155" fill="none" xmlns="http://www.w3.org/2000/svg">
<path d="M66.2872 42.6951C96.7522 35.2696 110.661 54.7013 110.661 54.7013C162.59 42.7949 155.727 86.7351 155.727 86.7351L145.186 103.189C145.186 103.189 110.661 116.725 105.991 125.927C101.322 135.129 92.2663 147.826 72.2364 147.826C52.2065 147.826 48.1193 125.927 48.1193 125.927C48.1193 125.927 29.0173 141.448 15.5751 129.754C2.13295 118.06 15.5751 109.131 15.5751 109.131C15.5751 109.131 2.27445 110.406 1.00098 96.456C0.591647 91.972 1.38583 82.5234 3.34277 79.4507C6.0452 75.2074 12.0871 69.7663 19.0103 69.0099C23.9883 68.466 29.7559 69.9604 34.1967 72.2783L40.0177 75.3166C40.0177 75.3166 42.0796 48.5955 66.2872 42.6951Z" fill="#C8CEFC"/>
<path d="M109.642 98.1801V69.4412L97.8746 77.0525C97.8746 77.0525 95.787 67.7704 108.552 68.0489L98.7521 58.4883C98.7521 58.4883 107.511 55.7965 110.013 67.2135C110.013 67.2135 114.461 59.1381 124.005 62.1083L111.496 67.9561C111.496 67.9561 124.19 67.0278 125.024 77.2382L110.94 69.6269V98.1801H109.642Z" fill="#252E6C"/>
<path d="M12.0098 98.6309C13.854 98.6309 15.3491 97.1332 15.3491 95.2858C15.3491 93.4383 13.854 91.9407 12.0098 91.9407C10.1655 91.9407 8.67047 93.4383 8.67047 95.2858C8.67047 97.1332 10.1655 98.6309 12.0098 98.6309Z" fill="#929AEA"/>
<path d="M131.399 81.7159C133.273 81.7159 134.792 80.1944 134.792 78.3176C134.792 76.4407 133.273 74.9192 131.399 74.9192C129.525 74.9192 128.007 76.4407 128.007 78.3176C128.007 80.1944 129.525 81.7159 131.399 81.7159Z" fill="#929AEA"/>
<path d="M63.9942 120.885C65.8678 120.885 67.3866 119.364 67.3866 117.487C67.3866 115.61 65.8678 114.088 63.9942 114.088C62.1206 114.088 60.6017 115.61 60.6017 117.487C60.6017 119.364 62.1206 120.885 63.9942 120.885Z" fill="#929AEA"/>
<path d="M70.0531 74.7077C74.4025 74.7077 77.9284 71.4293 77.9284 67.3851C77.9284 63.3409 74.4025 60.0625 70.0531 60.0625C65.7036 60.0625 62.1777 63.3409 62.1777 67.3851C62.1777 71.4293 65.7036 74.7077 70.0531 74.7077Z" fill="#929AEA"/>
<path d="M24.0027 137.422C24.818 137.422 25.479 136.76 25.479 135.944C25.479 135.127 24.818 134.465 24.0027 134.465C23.1873 134.465 22.5263 135.127 22.5263 135.944C22.5263 136.76 23.1873 137.422 24.0027 137.422Z" fill="#929AEA"/>
<path d="M47.891 88.5821C48.7064 88.5821 49.3674 87.92 49.3674 87.1032C49.3674 86.2864 48.7064 85.6243 47.891 85.6243C47.0757 85.6243 46.4147 86.2864 46.4147 87.1032C46.4147 87.92 47.0757 88.5821 47.891 88.5821Z" fill="#929AEA"/>
<path d="M99.2873 104.71C101.882 104.71 103.985 102.603 103.985 100.004C103.985 97.4046 101.882 95.2976 99.2873 95.2976C96.6927 95.2976 94.5894 97.4046 94.5894 100.004C94.5894 102.603 96.6927 104.71 99.2873 104.71Z" fill="#929AEA"/>
<path d="M27.9412 66.0516C27.9412 64.3948 29.2843 63.0516 30.9412 63.0516H49.0193C49.0193 63.0516 60.0602 65.2637 60.261 51.9915C60.4617 38.7193 60.261 34.8985 60.261 34.8985H54.4394L50.6252 27.6592H56.2461C56.2461 27.6592 58.2535 29.0668 58.655 26.0504C59.0565 23.034 57.852 19.4144 62.0676 19.4144C66.2833 19.4144 65.0788 23.4362 65.0788 23.4362C65.0788 23.4362 63.4729 27.6592 67.4878 27.6592C71.5026 27.6592 70.9004 25.6483 70.9004 21.8275C70.9004 18.0067 70.9004 17.4034 72.5063 17.0012C74.1123 16.599 73.7108 15.5936 73.9116 10.7673C74.1123 5.9411 73.9116 4.28207 73.9116 4.28207C73.9116 4.28207 71.129 1.56731 74.0008 0.360746C76.8725 -0.845817 78.9803 2.32141 75.9692 3.98043L75.8186 14.0854C75.8186 14.0854 75.7425 16.951 77.4367 16.951C79.1309 16.951 78.6792 23.1346 78.6792 23.1346C78.6792 23.1346 77.9265 27.5084 80.4859 27.5084C83.0454 27.5084 82.8949 25.0952 82.8949 23.1346C82.8949 21.1739 82.8949 19.3641 86.2071 19.3641C89.5194 19.3641 89.9711 20.269 89.9711 23.1346C89.9711 26.0002 89.0677 28.4133 92.8317 28.2625C96.5957 28.1117 97.9507 28.4133 97.9507 28.4133L95.0901 34.4461L90.4228 34.5969V94.7741C90.4228 94.7741 89.0677 103.673 97.9507 103.823C106.834 103.974 132.278 103.823 132.278 103.823L103.371 135.496H30.9412C29.2843 135.496 27.9412 134.152 27.9412 132.496V66.0516Z" fill="#9AF7C2"/>
<path d="M64.1656 127.28H28.3062V135.51H64.1656V127.28Z" fill="#5CEEA7"/>
<path d="M71.6403 135.51V127.28H77.7828V117.135H116.63V135.51H71.6403Z" fill="#5CEEA7"/>
<path d="M60.261 34.8985L90.4229 34.5969V48.983H60.261V34.8985Z" fill="#5CEEA7"/>
<path d="M66.6598 37.761H63.6986C63.2859 37.761 62.9513 38.0962 62.9513 38.5096V45.2729C62.9513 45.6864 63.2859 46.0215 63.6986 46.0215H66.6598C67.0726 46.0215 67.4071 45.6864 67.4071 45.2729V38.5096C67.4071 38.0962 67.0726 37.761 66.6598 37.761Z" fill="#DCF9E7"/>
<path d="M73.4256 37.761H70.4644C70.0516 37.761 69.717 38.0962 69.717 38.5096V45.2729C69.717 45.6864 70.0516 46.0215 70.4644 46.0215H73.4256C73.8383 46.0215 74.1729 45.6864 74.1729 45.2729V38.5096C74.1729 38.0962 73.8383 37.761 73.4256 37.761Z" fill="#DCF9E7"/>
<path d="M80.1913 37.761H77.2301C76.8174 37.761 76.4828 38.0962 76.4828 38.5096V45.2729C76.4828 45.6864 76.8174 46.0215 77.2301 46.0215H80.1913C80.604 46.0215 80.9386 45.6864 80.9386 45.2729V38.5096C80.9386 38.0962 80.604 37.761 80.1913 37.761Z" fill="#DCF9E7"/>
<path d="M86.9571 37.761H83.9959C83.5831 37.761 83.2485 38.0962 83.2485 38.5096V45.2729C83.2485 45.6864 83.5831 46.0215 83.9959 46.0215H86.9571C87.3698 46.0215 87.7044 45.6864 87.7044 45.2729V38.5096C87.7044 38.0962 87.3698 37.761 86.9571 37.761Z" fill="#DCF9E7"/>
<path d="M70.4817 60.0625H68.2525C67.9265 60.0625 67.6622 60.3272 67.6622 60.6538V62.8869C67.6622 63.2135 67.9265 63.4782 68.2525 63.4782H70.4817C70.8077 63.4782 71.072 63.2135 71.072 62.8869V60.6538C71.072 60.3272 70.8077 60.0625 70.4817 60.0625Z" fill="#EDF9F1"/>
<path d="M76.8055 60.0625H74.5762C74.2502 60.0625 73.986 60.3272 73.986 60.6538V62.8869C73.986 63.2135 74.2502 63.4782 74.5762 63.4782H76.8055C77.1315 63.4782 77.3957 63.2135 77.3957 62.8869V60.6538C77.3957 60.3272 77.1315 60.0625 76.8055 60.0625Z" fill="#EDF9F1"/>
<path d="M83.1291 60.0625H80.8998C80.5738 60.0625 80.3096 60.3272 80.3096 60.6538V62.8869C80.3096 63.2135 80.5738 63.4782 80.8998 63.4782H83.1291C83.4551 63.4782 83.7193 63.2135 83.7193 62.8869V60.6538C83.7193 60.3272 83.4551 60.0625 83.1291 60.0625Z" fill="#EDF9F1"/>
<path d="M70.4817 66.2498H68.2525C67.9265 66.2498 67.6622 66.5145 67.6622 66.8411V69.0742C67.6622 69.4007 67.9265 69.6655 68.2525 69.6655H70.4817C70.8077 69.6655 71.072 69.4007 71.072 69.0742V66.8411C71.072 66.5145 70.8077 66.2498 70.4817 66.2498Z" fill="#EDF9F1"/>
<path d="M76.8055 66.2498H74.5762C74.2502 66.2498 73.986 66.5145 73.986 66.8411V69.0742C73.986 69.4007 74.2502 69.6655 74.5762 69.6655H76.8055C77.1315 69.6655 77.3957 69.4007 77.3957 69.0742V66.8411C77.3957 66.5145 77.1315 66.2498 76.8055 66.2498Z" fill="#EDF9F1"/>
<path d="M83.1291 66.2498H80.8998C80.5738 66.2498 80.3096 66.5145 80.3096 66.8411V69.0742C80.3096 69.4007 80.5738 69.6655 80.8998 69.6655H83.1291C83.4551 69.6655 83.7193 69.4007 83.7193 69.0742V66.8411C83.7193 66.5145 83.4551 66.2498 83.1291 66.2498Z" fill="#EDF9F1"/>
<path d="M70.4817 72.437H68.2525C67.9265 72.437 67.6622 72.7017 67.6622 73.0283V75.2614C67.6622 75.588 67.9265 75.8527 68.2525 75.8527H70.4817C70.8077 75.8527 71.072 75.588 71.072 75.2614V73.0283C71.072 72.7017 70.8077 72.437 70.4817 72.437Z" fill="#EDF9F1"/>
<path d="M76.8055 72.437H74.5762C74.2502 72.437 73.986 72.7017 73.986 73.0283V75.2614C73.986 75.588 74.2502 75.8527 74.5762 75.8527H76.8055C77.1315 75.8527 77.3957 75.588 77.3957 75.2614V73.0283C77.3957 72.7017 77.1315 72.437 76.8055 72.437Z" fill="#EDF9F1"/>
<path d="M83.1291 72.437H80.8998C80.5738 72.437 80.3096 72.7017 80.3096 73.0283V75.2614C80.3096 75.588 80.5738 75.8527 80.8998 75.8527H83.1291C83.4551 75.8527 83.7193 75.588 83.7193 75.2614V73.0283C83.7193 72.7017 83.4551 72.437 83.1291 72.437Z" fill="#EDF9F1"/>
<path d="M70.4817 78.6245H68.2525C67.9265 78.6245 67.6622 78.8892 67.6622 79.2158V81.4489C67.6622 81.7755 67.9265 82.0402 68.2525 82.0402H70.4817C70.8077 82.0402 71.072 81.7755 71.072 81.4489V79.2158C71.072 78.8892 70.8077 78.6245 70.4817 78.6245Z" fill="#EDF9F1"/>
<path d="M76.8055 78.6245H74.5762C74.2502 78.6245 73.986 78.8892 73.986 79.2158V81.4489C73.986 81.7755 74.2502 82.0402 74.5762 82.0402H76.8055C77.1315 82.0402 77.3957 81.7755 77.3957 81.4489V79.2158C77.3957 78.8892 77.1315 78.6245 76.8055 78.6245Z" fill="#EDF9F1"/>
<path d="M83.1291 78.6245H80.8998C80.5738 78.6245 80.3096 78.8892 80.3096 79.2158V81.4489C80.3096 81.7755 80.5738 82.0402 80.8998 82.0402H83.1291C83.4551 82.0402 83.7193 81.7755 83.7193 81.4489V79.2158C83.7193 78.8892 83.4551 78.6245 83.1291 78.6245Z" fill="#EDF9F1"/>
<path d="M70.4817 84.812H68.2525C67.9265 84.812 67.6622 85.0767 67.6622 85.4033V87.6364C67.6622 87.963 67.9265 88.2277 68.2525 88.2277H70.4817C70.8077 88.2277 71.072 87.963 71.072 87.6364V85.4033C71.072 85.0767 70.8077 84.812 70.4817 84.812Z" fill="#EDF9F1"/>
<path d="M76.8055 84.812H74.5762C74.2502 84.812 73.986 85.0767 73.986 85.4033V87.6364C73.986 87.963 74.2502 88.2277 74.5762 88.2277H76.8055C77.1315 88.2277 77.3957 87.963 77.3957 87.6364V85.4033C77.3957 85.0767 77.1315 84.812 76.8055 84.812Z" fill="#EDF9F1"/>
<path d="M83.1291 84.812H80.8998C80.5738 84.812 80.3096 85.0767 80.3096 85.4033V87.6364C80.3096 87.963 80.5738 88.2277 80.8998 88.2277H83.1291C83.4551 88.2277 83.7193 87.963 83.7193 87.6364V85.4033C83.7193 85.0767 83.4551 84.812 83.1291 84.812Z" fill="#EDF9F1"/>
<path d="M70.4817 90.9993H68.2525C67.9265 90.9993 67.6622 91.264 67.6622 91.5906V93.8237C67.6622 94.1502 67.9265 94.415 68.2525 94.415H70.4817C70.8077 94.415 71.072 94.1502 71.072 93.8237V91.5906C71.072 91.264 70.8077 90.9993 70.4817 90.9993Z" fill="#EDF9F1"/>
<path d="M76.8055 90.9993H74.5762C74.2502 90.9993 73.986 91.264 73.986 91.5906V93.8237C73.986 94.1502 74.2502 94.415 74.5762 94.415H76.8055C77.1315 94.415 77.3957 94.1502 77.3957 93.8237V91.5906C77.3957 91.264 77.1315 90.9993 76.8055 90.9993Z" fill="#EDF9F1"/>
<path d="M83.1291 90.9993H80.8998C80.5738 90.9993 80.3096 91.264 80.3096 91.5906V93.8237C80.3096 94.1502 80.5738 94.415 80.8998 94.415H83.1291C83.4551 94.415 83.7193 94.1502 83.7193 93.8237V91.5906C83.7193 91.264 83.4551 90.9993 83.1291 90.9993Z" fill="#EDF9F1"/>
<path d="M70.4817 97.1865H68.2525C67.9265 97.1865 67.6622 97.4512 67.6622 97.7778V100.011C67.6622 100.337 67.9265 100.602 68.2525 100.602H70.4817C70.8077 100.602 71.072 100.337 71.072 100.011V97.7778C71.072 97.4512 70.8077 97.1865 70.4817 97.1865Z" fill="#EDF9F1"/>
<path d="M76.8055 97.1865H74.5762C74.2502 97.1865 73.986 97.4512 73.986 97.7778V100.011C73.986 100.337 74.2502 100.602 74.5762 100.602H76.8055C77.1315 100.602 77.3957 100.337 77.3957 100.011V97.7778C77.3957 97.4512 77.1315 97.1865 76.8055 97.1865Z" fill="#EDF9F1"/>
<path d="M83.1291 97.1865H80.8998C80.5738 97.1865 80.3096 97.4512 80.3096 97.7778V100.011C80.3096 100.337 80.5738 100.602 80.8998 100.602H83.1291C83.4551 100.602 83.7193 100.337 83.7193 100.011V97.7778C83.7193 97.4512 83.4551 97.1865 83.1291 97.1865Z" fill="#EDF9F1"/>
<path d="M70.4817 103.374H68.2525C67.9265 103.374 67.6622 103.639 67.6622 103.965V106.198C67.6622 106.525 67.9265 106.79 68.2525 106.79H70.4817C70.8077 106.79 71.072 106.525 71.072 106.198V103.965C71.072 103.639 70.8077 103.374 70.4817 103.374Z" fill="#EDF9F1"/>
<path d="M76.8055 103.374H74.5762C74.2502 103.374 73.986 103.639 73.986 103.965V106.198C73.986 106.525 74.2502 106.79 74.5762 106.79H76.8055C77.1315 106.79 77.3957 106.525 77.3957 106.198V103.965C77.3957 103.639 77.1315 103.374 76.8055 103.374Z" fill="#EDF9F1"/>
<path d="M83.1291 103.374H80.8998C80.5738 103.374 80.3096 103.639 80.3096 103.965V106.198C80.3096 106.525 80.5738 106.79 80.8998 106.79H83.1291C83.4551 106.79 83.7193 106.525 83.7193 106.198V103.965C83.7193 103.639 83.4551 103.374 83.1291 103.374Z" fill="#EDF9F1"/>
<path d="M51.9755 119.822H49.7463C49.4203 119.822 49.156 120.086 49.156 120.413V122.646C49.156 122.973 49.4203 123.237 49.7463 123.237H51.9755C52.3015 123.237 52.5658 122.973 52.5658 122.646V120.413C52.5658 120.086 52.3015 119.822 51.9755 119.822Z" fill="#EDF9F1"/>
<path d="M58.2992 119.822H56.0699C55.7439 119.822 55.4797 120.086 55.4797 120.413V122.646C55.4797 122.973 55.7439 123.237 56.0699 123.237H58.2992C58.6252 123.237 58.8894 122.973 58.8894 122.646V120.413C58.8894 120.086 58.6252 119.822 58.2992 119.822Z" fill="#EDF9F1"/>
<path d="M64.6229 119.822H62.3937C62.0677 119.822 61.8034 120.086 61.8034 120.413V122.646C61.8034 122.973 62.0677 123.237 62.3937 123.237H64.6229C64.9489 123.237 65.2132 122.973 65.2132 122.646V120.413C65.2132 120.086 64.9489 119.822 64.6229 119.822Z" fill="#EDF9F1"/>
<path d="M33.3536 119.822H31.1243C30.7983 119.822 30.5341 120.086 30.5341 120.413V122.646C30.5341 122.973 30.7983 123.237 31.1243 123.237H33.3536C33.6796 123.237 33.9438 122.973 33.9438 122.646V120.413C33.9438 120.086 33.6796 119.822 33.3536 119.822Z" fill="#EDF9F1"/>
<path d="M39.6772 119.822H37.448C37.122 119.822 36.8577 120.086 36.8577 120.413V122.646C36.8577 122.973 37.122 123.237 37.448 123.237H39.6772C40.0032 123.237 40.2675 122.973 40.2675 122.646V120.413C40.2675 120.086 40.0032 119.822 39.6772 119.822Z" fill="#EDF9F1"/>
<path d="M46.0008 119.822H43.7716C43.4456 119.822 43.1813 120.086 43.1813 120.413V122.646C43.1813 122.973 43.4456 123.237 43.7716 123.237H46.0008C46.3268 123.237 46.5911 122.973 46.5911 122.646V120.413C46.5911 120.086 46.3268 119.822 46.0008 119.822Z" fill="#EDF9F1"/>
<path d="M165.892 150.892H68.9508V95.5652H165.892V150.892Z" fill="#161D50"/>
<path fill-rule="evenodd" clip-rule="evenodd" d="M167.946 91.4575H66.8969C65.7628 91.4575 64.8431 92.377 64.8431 93.5114V152.946C64.8431 154.08 65.7628 155 66.8969 155H167.946C169.08 155 170 154.08 170 152.946V93.5114C170 92.377 169.08 91.4575 167.946 91.4575ZM68.9508 150.892H165.892V95.5652H68.9508V150.892Z" fill="#161D50"/>
<path d="M123.159 103.748V105.478C123.268 108.203 127.159 108.201 127.267 105.478V103.748C127.158 101.022 123.267 101.025 123.159 103.748Z" fill="#C8CEFC"/>
<path d="M130.032 93.7903H167.946V152.946H130.032V93.7903Z" fill="#929AEA"/>
<path d="M144.22 122.809C146.16 122.809 147.874 121.731 148.9 120.09L143.899 132.008C143.46 133.054 143.952 134.258 144.998 134.697C146.018 135.132 147.247 134.654 147.686 133.598L149.735 128.716C149.008 132.413 151.758 136.257 155.311 136.189C162.848 135.849 162.847 123.987 155.311 123.648C153.514 123.648 151.91 124.574 150.868 126.016L155.898 114.029C156.338 112.983 155.845 111.779 154.799 111.34C153.754 110.901 152.55 111.393 152.111 112.439L149.707 118.166C150.72 114.411 147.936 110.18 144.22 110.268C136.683 110.608 136.685 122.47 144.22 122.809ZM155.311 127.755C156.165 127.755 156.886 128.746 156.886 129.918C156.886 131.091 156.165 132.081 155.311 132.081C154.457 132.081 153.736 131.091 153.736 129.918C153.736 128.746 154.457 127.755 155.311 127.755ZM144.22 114.376C145.074 114.376 145.795 115.366 145.795 116.539C145.795 117.711 145.074 118.702 144.22 118.702C143.366 118.702 142.645 117.711 142.645 116.539C142.645 115.366 143.366 114.376 144.22 114.376Z" fill="white"/>
<path d="M125.213 138.926C124.079 138.926 123.159 139.845 123.159 140.979V142.71C123.268 145.435 127.159 145.433 127.267 142.71V140.979C127.267 139.845 126.347 138.926 125.213 138.926Z" fill="#C8CEFC"/>
<path d="M125.213 126.515C124.079 126.515 123.159 127.434 123.159 128.569V130.299C123.268 133.024 127.159 133.022 127.267 130.299V128.569C127.267 127.434 126.347 126.515 125.213 126.515Z" fill="#C8CEFC"/>
<path d="M96.055 133.597L87.0333 137.112L87.5885 127.445L81.4575 119.951L90.8224 117.492L96.055 109.345L101.288 117.492L110.653 119.951L104.522 127.445L105.077 137.112L96.055 133.597Z" fill="white"/>
<path d="M125.213 114.104C124.079 114.104 123.159 115.024 123.159 116.158V117.889C123.268 120.614 127.159 120.612 127.267 117.889V116.158C127.267 115.024 126.347 114.104 125.213 114.104Z" fill="#C8CEFC"/>
</svg>
