<svg width="24" height="24" viewBox="0 0 24 24" fill="none" xmlns="http://www.w3.org/2000/svg">
<path d="M8.50472 6.50051H7.58053C7.47653 6.39651 7.41833 6.33831 7.31433 6.23431V3.52182C7.41833 3.41781 7.47653 3.35962 7.58053 3.25562H8.50472C8.60859 3.35962 8.66691 3.41781 8.77079 3.52182V6.23431C8.66691 6.33831 8.60859 6.39651 8.50472 6.50051Z" fill="#CAFFF9"/>
<path d="M15.5096 6.50039H16.4338C16.5378 6.39638 16.596 6.33819 16.7 6.23419V3.5217C16.596 3.41769 16.5378 3.3595 16.4338 3.25549H15.5096C15.4057 3.3595 15.3474 3.41769 15.2435 3.5217V6.23419C15.3474 6.33819 15.4057 6.39638 15.5096 6.50039Z" fill="#CAFFF9"/>
<path fill-rule="evenodd" clip-rule="evenodd" d="M4 4.4542H7.05862V3.41588L7.47463 3H8.61055L9.02644 3.41588V4.4542H14.988V3.41588L15.4039 3H16.5398L16.9558 3.41588V4.4542H20V8.09057H4V4.4542ZM15.6318 6.24489H16.3281L16.4445 6.12851V3.62775L16.3281 3.51136H15.6158L15.4994 3.62775V6.10269L15.6318 6.24489ZM8.36817 6.24489L8.51507 6.08718V3.62775L8.39868 3.51136H7.68637L7.56998 3.62775V6.12851L7.68637 6.24489H8.36817ZM4.51678 19.9123H19.4832V8.09141H20V20.455H4V8.09141H4.51678V19.9123Z" fill="#161D50"/>
<path d="M16.711 11.808L15.0175 10.1144L10.7708 14.3612L8.99818 12.5886L7.30469 14.2821L10.7708 17.7482L16.711 11.808Z" fill="#CAFFF9"/>
<path d="M15.017 9.75269L10.7703 13.9994L8.99768 12.2268L6.9425 14.282L10.7701 18.1096L17.072 11.8079L15.017 9.75269ZM7.66574 14.282L8.99768 12.95L10.7703 14.7226L15.017 10.4759L16.3489 11.8079L10.7703 17.3865L7.66574 14.282Z" fill="#57E1D1"/>
<path d="M12.689 6.75636H12.1776V6.245H12.689V6.75636ZM11.8367 6.75636H11.3253V6.245H11.8367V6.75636Z" fill="white"/>
</svg>
