<svg width="269" height="120" viewBox="0 0 269 120" fill="none" xmlns="http://www.w3.org/2000/svg">
<path d="M71.5533 2.64941C104.428 -5.33642 119.437 15.5615 119.437 15.5615C175.474 2.75666 168.069 50.0126 168.069 50.0126L156.693 67.7077C156.693 67.7077 119.437 82.2656 114.398 92.1618C109.359 102.058 99.5873 115.714 77.973 115.714C56.3587 115.714 51.9482 92.1618 51.9482 92.1618C51.9482 92.1618 31.3351 108.854 16.8296 96.2777C2.32416 83.7015 16.8296 74.0979 16.8296 74.0979C16.8296 74.0979 2.47684 75.4698 1.10264 60.4669C0.660927 55.6446 1.51794 45.483 3.62968 42.1784C6.54587 37.615 13.0657 31.7633 20.5366 30.9498C25.9083 30.3649 32.1321 31.9721 36.9242 34.4648L43.2058 37.7324C43.2058 37.7324 45.4307 8.99498 71.5533 2.64941Z" fill="#C8CEFC"/>
<path d="M28.0933 50.9212C29.9088 50.9212 31.3806 49.4518 31.3806 47.6392C31.3806 45.8267 29.9088 44.3573 28.0933 44.3573C26.2777 44.3573 24.8059 45.8267 24.8059 47.6392C24.8059 49.4518 26.2777 50.9212 28.0933 50.9212Z" fill="#E6E9FC"/>
<path d="M145.624 34.3257C147.469 34.3257 148.964 32.8329 148.964 30.9915C148.964 29.1501 147.469 27.6573 145.624 27.6573C143.78 27.6573 142.285 29.1501 142.285 30.9915C142.285 32.8329 143.78 34.3257 145.624 34.3257Z" fill="#E6E9FC"/>
<path d="M79.2691 72.755C81.1136 72.755 82.6088 71.2622 82.6088 69.4208C82.6088 67.5793 81.1136 66.0865 79.2691 66.0865C77.4247 66.0865 75.9294 67.5793 75.9294 69.4208C75.9294 71.2622 77.4247 72.755 79.2691 72.755Z" fill="#E6E9FC"/>
<path d="M85.2338 27.4498C89.5155 27.4498 92.9866 24.2332 92.9866 20.2654C92.9866 16.2976 89.5155 13.0811 85.2338 13.0811C80.952 13.0811 77.481 16.2976 77.481 20.2654C77.481 24.2332 80.952 27.4498 85.2338 27.4498Z" fill="#E6E9FC"/>
<path d="M39.8999 88.9801C40.7026 88.9801 41.3533 88.3305 41.3533 87.5291C41.3533 86.7278 40.7026 86.0781 39.8999 86.0781C39.0972 86.0781 38.4465 86.7278 38.4465 87.5291C38.4465 88.3305 39.0972 88.9801 39.8999 88.9801Z" fill="#E6E9FC"/>
<path d="M63.416 41.062C64.2187 41.062 64.8694 40.4124 64.8694 39.611C64.8694 38.8097 64.2187 38.16 63.416 38.16C62.6133 38.16 61.9626 38.8097 61.9626 39.611C61.9626 40.4124 62.6133 41.062 63.416 41.062Z" fill="#E6E9FC"/>
<path d="M114.012 56.8851C116.567 56.8851 118.637 54.8179 118.637 52.2679C118.637 49.7179 116.567 47.6508 114.012 47.6508C111.458 47.6508 109.388 49.7179 109.388 52.2679C109.388 54.8179 111.458 56.8851 114.012 56.8851Z" fill="#E6E9FC"/>
<path d="M20.751 112.781C20.751 112.781 73.9215 97.0674 97.2447 75.1528C120.568 53.2382 136.715 40.9044 163.137 40.6917C189.559 40.4791 222.222 83.1492 222.222 83.1492C222.222 83.1492 250.433 113.127 268.688 117.034H20.751V112.781Z" fill="#9AF7C2"/>
<path d="M111.827 61.0447H71.6484V79.9674H111.827V61.0447Z" fill="#C8CEFC"/>
<path d="M94.0499 65.9563H83.229V79.9673H94.0499V65.9563Z" fill="#7077D8"/>
<path d="M111.827 65.9563H101.006V79.9673H111.827V65.9563Z" fill="#929AEA"/>
<path d="M111.827 59.9532H83.229V67.4572H111.827V59.9532Z" fill="#7077D8"/>
<path d="M113.173 58.8617H70.125V61.0446H113.173V58.8617Z" fill="#161D50"/>
<path d="M159.708 79.9849H34.7615V86.5151C34.7615 86.5151 39.0331 83.7164 39.4336 87.448C39.8341 91.1796 39.4336 117.034 39.4336 117.034H44.3727V87.9826C44.3727 87.9826 45.5742 83.7164 47.977 85.3157C50.3798 86.9149 74.8085 110.104 74.8085 110.104L78.5462 107.305V87.1815C78.5462 87.1815 78.1457 83.8497 80.415 83.8497C82.6844 83.8497 82.4174 87.0482 82.4174 87.0482V105.573L86.0216 103.174V87.9826C86.0216 87.9826 85.4877 84.6494 87.8905 84.6494C90.2933 84.6494 89.6259 87.9826 89.6259 87.9826V101.575L93.2301 99.8422V87.3147C93.2301 87.3147 93.3636 84.7826 95.2324 84.7826C97.1013 84.7826 97.2348 87.1815 97.2348 87.1815V98.5095L100.574 97.8431V86.7817C100.574 86.7817 100.338 84.1163 102.441 84.2162C104.543 84.3162 104.143 86.9149 104.143 86.9149V97.9098L108.248 98.5095L108.348 86.9149C108.348 86.9149 107.947 84.2162 110.35 84.1162C112.753 84.0163 112.453 87.1148 112.453 87.1148V99.1092L115.556 100.509V87.1148C115.556 87.1148 115.556 84.4161 117.358 84.3162C119.16 84.2162 119.661 87.1148 119.661 87.1148V102.907L123.265 104.906V86.9149C123.265 86.9149 123.065 84.2162 125.568 84.1162C128.071 84.0163 127.771 87.3147 127.771 87.3147V106.106L131.375 103.507V87.4147C131.375 87.4147 131.175 84.0163 133.377 83.9163C135.58 83.8164 135.58 87.3147 135.58 87.3147V100.309L138.984 97.2101V86.715C138.984 86.715 138.884 83.7164 140.786 83.7164C142.688 83.7164 142.688 86.815 142.688 86.815V95.211L146.493 90.6132V85.8154C146.493 85.8154 146.192 83.3166 147.994 83.2167C149.796 83.1167 150.097 85.1158 150.097 85.1158L149.997 87.8145L159.708 79.9849Z" fill="#161D50"/>
<path d="M131.875 77.2828L140.536 13.0721L166.054 19.0666L197.577 27.3668V115.178H130.49L131.875 77.2828Z" fill="#7077D8"/>
<path d="M166.054 19.0665L165.477 95.2667H172.059L172.636 20.7957L166.054 19.0665Z" fill="#E6E9FC"/>
<path d="M146.886 21.2568H144.461V25.2916H146.886V21.2568Z" fill="#C8CEFC"/>
<path d="M151.505 21.4397H149.081V25.4745H151.505V21.4397Z" fill="#C8CEFC"/>
<path d="M156.009 21.4397H153.584V25.4745H156.009V21.4397Z" fill="#C8CEFC"/>
<path d="M151.505 29.1628H149.081V33.1976H151.505V29.1628Z" fill="#C8CEFC"/>
<path d="M160.281 29.1628H157.856V33.1976H160.281V29.1628Z" fill="#C8CEFC"/>
<path d="M178.872 29.1628H176.447V33.1976H178.872V29.1628Z" fill="#C8CEFC"/>
<path d="M189.094 29.1628H186.669V33.1976H189.094V29.1628Z" fill="#C8CEFC"/>
<path d="M194.127 29.1628H191.702V33.1976H194.127V29.1628Z" fill="#C8CEFC"/>
<path d="M194.127 36.6561H191.702V40.6909H194.127V36.6561Z" fill="#C8CEFC"/>
<path d="M189.094 36.6561H186.669V40.6909H189.094V36.6561Z" fill="#C8CEFC"/>
<path d="M184.129 36.6561H181.704V40.6909H184.129V36.6561Z" fill="#C8CEFC"/>
<path d="M178.872 36.6561H176.447V40.6909H178.872V36.6561Z" fill="#C8CEFC"/>
<path d="M178.872 45.038H176.447V49.0727H178.872V45.038Z" fill="#C8CEFC"/>
<path d="M184.129 45.038H181.704V49.0727H184.129V45.038Z" fill="#C8CEFC"/>
<path d="M194.127 45.038H191.702V49.0727H194.127V45.038Z" fill="#C8CEFC"/>
<path d="M189.094 53.1317H186.669V57.1665H189.094V53.1317Z" fill="#C8CEFC"/>
<path d="M178.872 53.1317H176.447V57.1665H178.872V53.1317Z" fill="#C8CEFC"/>
<path d="M184.129 60.2792H181.704V64.314H184.129V60.2792Z" fill="#C8CEFC"/>
<path d="M192.915 60.2792H190.49V64.314H192.915V60.2792Z" fill="#C8CEFC"/>
<path d="M189.094 68.9252H186.669V72.96H189.094V68.9252Z" fill="#C8CEFC"/>
<path d="M178.872 68.9252H176.447V72.96H178.872V68.9252Z" fill="#C8CEFC"/>
<path d="M184.129 76.6581H181.704V80.6929H184.129V76.6581Z" fill="#C8CEFC"/>
<path d="M155.431 36.6561H153.007V40.6909H155.431V36.6561Z" fill="#C8CEFC"/>
<path d="M146.886 36.6561H144.461V40.6909H146.886V36.6561Z" fill="#C8CEFC"/>
<path d="M143.307 45.6478H140.882V49.6826H143.307V45.6478Z" fill="#C8CEFC"/>
<path d="M150.293 45.6478H147.868V49.6826H150.293V45.6478Z" fill="#C8CEFC"/>
<path d="M151.505 57.2505H149.081V61.2852H151.505V57.2505Z" fill="#C8CEFC"/>
<path d="M151.505 68.2427H149.081V72.2775H151.505V68.2427Z" fill="#C8CEFC"/>
<path d="M139.496 69.5107H137.072V73.5455H139.496V69.5107Z" fill="#C8CEFC"/>
<path d="M151.505 76.6581H149.081V80.6929H151.505V76.6581Z" fill="#C8CEFC"/>
<path d="M156.009 84.2666H153.584V88.3014H156.009V84.2666Z" fill="#C8CEFC"/>
<path d="M160.743 76.6581H158.318V80.6929H160.743V76.6581Z" fill="#C8CEFC"/>
<path d="M160.743 90.7222H158.318V94.757H160.743V90.7222Z" fill="#C8CEFC"/>
<path d="M155.431 99.9176H153.007V103.952H155.431V99.9176Z" fill="#C8CEFC"/>
<path d="M160.281 45.6478H157.856V48.4628H160.281V45.6478Z" fill="#C8CEFC"/>
<path d="M160.281 57.8602H157.856V60.6753H160.281V57.8602Z" fill="#C8CEFC"/>
<path d="M215.973 97.5084V93.6628C215.973 93.6628 215.803 90.8352 214.217 89.8172C212.631 88.7992 212.744 87.1592 212.687 84.3315C212.631 81.5039 212.687 73.3602 212.687 73.3602C212.687 73.3602 212.711 72.1096 211.753 72.0728C210.795 72.036 210.906 73.3231 210.906 73.3231L210.902 84.9441C210.902 84.9441 210.846 88.7118 211.532 89.6976C212.183 90.6317 213.664 91.3072 213.89 92.248C214.119 93.204 214.074 97.5084 214.074 97.5084H215.973Z" fill="#7077D8"/>
<path d="M211.826 88.967H209.201C209.201 88.967 208.21 89.1767 208.2 87.8207C208.188 86.2328 208.2 79.329 208.2 79.329C208.2 79.329 208.237 78.5825 207.667 78.5589C207.098 78.5352 207.145 79.3405 207.145 79.3405L207.145 88.3644C207.145 88.3644 207.145 90.2118 209.067 90.2118H212.341L211.826 88.967Z" fill="#7077D8"/>
<path d="M212.252 85.205H214.573C214.573 85.205 215.846 85.4746 215.859 83.7312C215.875 81.6897 215.859 76.2707 215.859 76.2707C215.859 76.2707 215.812 75.311 216.544 75.2806C217.276 75.2501 217.215 76.2854 217.215 76.2854L217.216 84.4302C217.216 84.4302 217.216 86.8054 214.744 86.8054H211.589L212.252 85.205Z" fill="#7077D8"/>
<path d="M207.44 87.6396H204.655C204.655 87.6396 203.807 87.7122 203.783 86.6966C203.759 85.681 203.783 84.7903 203.783 84.7903C203.783 84.7903 203.807 84.0126 203.177 84.0126C202.548 84.0126 202.62 84.7903 202.62 84.7903L202.618 87.2044C202.618 87.2044 202.523 88.733 204.001 88.7813C205.478 88.8297 207.44 88.7813 207.44 88.7813L207.44 87.6396Z" fill="#7077D8"/>
<path d="M207.605 81.577H206.118C206.118 81.577 205.39 81.6393 205.37 80.7671C205.349 79.8949 205.37 77.3228 205.37 77.3228C205.37 77.3228 205.39 76.6549 204.85 76.6549C204.309 76.6549 204.371 77.3228 204.371 77.3228L204.369 81.2032C204.369 81.2032 204.288 82.516 205.557 82.5575C206.826 82.5991 207.605 82.5575 207.605 82.5575V81.577Z" fill="#7077D8"/>
<path d="M215.958 81.652H217.445C217.445 81.652 218.173 81.7143 218.194 80.8421C218.214 79.9699 218.194 77.3978 218.194 77.3978C218.194 77.3978 218.173 76.7299 218.714 76.7299C219.254 76.7299 219.192 77.3978 219.192 77.3978L219.194 81.2782C219.194 81.2782 219.275 82.5909 218.006 82.6325C216.738 82.674 215.958 82.6325 215.958 82.6325V81.652Z" fill="#7077D8"/>
<path d="M218.381 90.3577H219.647C219.647 90.3577 220.267 90.4107 220.284 89.6683C220.302 88.9259 220.284 86.7364 220.284 86.7364C220.284 86.7364 220.267 86.1678 220.727 86.1678C221.187 86.1678 221.134 86.7364 221.134 86.7364L221.136 90.0395C221.136 90.0395 221.205 91.157 220.125 91.1923C219.045 91.2277 218.381 91.1923 218.381 91.1923V90.3577Z" fill="#7077D8"/>
<path d="M215.053 91.6334H217.076C217.076 91.6334 218.067 91.7181 218.095 90.5314C218.123 89.3446 218.095 85.8448 218.095 85.8448C218.095 85.8448 218.067 84.936 218.803 84.936C219.539 84.936 219.454 85.8448 219.454 85.8448L219.457 91.1247C219.457 91.1247 219.567 92.911 217.84 92.9675C216.114 93.024 215.053 92.9675 215.053 92.9675V91.6334Z" fill="#7077D8"/>
<path d="M75.7625 109.534C75.7625 109.534 105.247 109.864 119.789 100.568C134.331 91.2725 148.682 85.975 162.231 93.8713C175.78 101.768 187.794 115.561 187.794 115.561L75.7625 117.36L75.7625 109.534Z" fill="#BDF9D3"/>
<path d="M140.079 103.27H113.76V119.401H140.079V103.27Z" fill="#252E6C"/>
<path d="M136.343 99.5405H117.495C115.432 99.5405 113.76 101.21 113.76 103.27V103.27C113.76 105.33 115.432 106.999 117.495 106.999H136.343C138.406 106.999 140.079 105.33 140.079 103.27V103.27C140.079 101.21 138.406 99.5405 136.343 99.5405Z" fill="#C8CEFC"/>
<path d="M117.769 103.541C117.769 103.541 114.312 97.4409 106.337 97.5497C106.337 97.5497 111.69 95.121 118.623 99.4927C118.623 99.4927 114.365 91.3161 106.337 89.2922C106.337 89.2922 112.614 87.256 121.096 96.656C121.096 96.656 117.856 86.1029 106.337 80.8125C106.337 80.8125 119.899 82.3776 127.096 96.0828V103.541L117.769 103.541Z" fill="#929AEA"/>
<path d="M136.424 103.541C136.424 103.541 139.881 97.4409 147.855 97.5497C147.855 97.5497 142.503 95.121 135.57 99.4927C135.57 99.4927 139.828 91.3161 147.855 89.2922C147.855 89.2922 141.579 87.256 133.097 96.656C133.097 96.656 136.337 86.1029 147.855 80.8125C147.855 80.8125 134.294 82.3776 127.096 96.0828V103.541L136.424 103.541Z" fill="#929AEA"/>
</svg>
