<svg width="30" height="18" viewBox="0 0 30 18" fill="none" xmlns="http://www.w3.org/2000/svg">
<path fill-rule="evenodd" clip-rule="evenodd" d="M15.0653 5.75451C15.0487 8.26186 16.2331 9.66108 17.1253 10.493C18.042 11.3467 18.3499 11.894 18.3464 12.6573C18.3394 13.8256 17.6151 14.3411 16.9373 14.3611C15.7546 14.3962 15.0671 13.7502 14.5204 13.2615L14.0944 17.076C14.6428 17.5598 15.6584 17.9816 16.7116 18C19.1836 18 20.8009 15.665 20.8097 12.0447C20.8193 7.45014 17.4883 7.19568 17.5111 5.14192C17.5189 4.5193 17.8295 3.85473 18.51 3.6857C18.8467 3.60042 19.7766 3.53506 20.8306 4.46398L21.2444 0.7734C20.6776 0.378339 19.9489 0 19.0418 0C16.7151 0 15.0785 2.36674 15.0653 5.75451V5.75451ZM25.22 0.318001C24.7687 0.318001 24.3881 0.821895 24.2185 1.59515L20.6872 17.7288H23.1574L23.649 15.1294H26.6676L26.9528 17.7288H29.13L27.2301 0.318001H25.22ZM25.5655 5.02138L26.2784 11.5592H24.326L25.5655 5.02138ZM12.0703 0.318001L10.1232 17.7288H12.477L14.4233 0.318001H12.0703ZM8.58803 0.318001L6.13791 12.1684L5.14683 2.09222C5.03053 0.967517 4.5713 0.318001 4.0613 0.318001H0.0560022L0 0.823566C0.822267 1.16498 1.75647 1.71569 2.32239 2.30487C2.66874 2.66468 2.76764 2.97933 2.88132 3.83467L4.75846 17.7288H7.24623L11.06 0.318001H8.58803Z" fill="#1A1F71"/>
</svg>
