<svg width="30" height="18" viewBox="0 0 30 18" fill="none" xmlns="http://www.w3.org/2000/svg">
<path d="M18.5002 1.92676H10.6252V16.0768H18.5002V1.92676Z" fill="#FF5F00"/>
<path d="M11.125 8.99998C11.125 6.12499 12.475 3.575 14.55 1.925C13.025 0.725003 11.1 0 8.99998 0C4.025 0 0 4.025 0 8.99998C0 13.975 4.025 18 8.99998 18C11.1 18 13.025 17.275 14.55 16.075C12.475 14.45 11.125 11.875 11.125 8.99998Z" fill="#EB001B"/>
<path d="M29.1252 8.99998C29.1252 13.975 25.1002 18 20.1252 18C18.0252 18 16.1002 17.275 14.5752 16.075C16.6752 14.425 18.0002 11.875 18.0002 8.99998C18.0002 6.12499 16.6502 3.575 14.5752 1.925C16.1002 0.725003 18.0252 0 20.1252 0C25.1002 0 29.1252 4.05 29.1252 8.99998Z" fill="#F79E1B"/>
</svg>
