<svg width="290" height="180" viewBox="0 0 290 180" fill="none" xmlns="http://www.w3.org/2000/svg">
<path d="M26.0597 35.6152L5.16992 48.7452V61.993L31.861 44.9202L33.6089 42.6451L33.8968 38.0051L31.7862 35.6152H26.0597Z" fill="#929AEA"/>
<path d="M26.0605 35.6153C26.0605 35.6153 27.7907 33.9675 30.2333 34.1614C32.6759 34.3552 33.4901 34.1455 33.4901 34.1455L44.1264 26.8918L29.2477 23.3055C29.2477 23.3055 32.1171 19.9014 35.0935 20.198C38.07 20.4947 49.774 23.3055 49.774 23.3055L52.929 21.5696C52.929 21.5696 56.3894 19.9131 58.1195 21.1731C59.8497 22.4332 59.1373 24.6625 57.2036 26.0195C55.2698 27.3765 53.0308 28.9273 53.0308 28.9273L50.4864 41.9102C50.4864 41.9102 50.9953 43.3695 45.3977 45.9865L47.0261 31.6413L35.7291 38.2323C35.7291 38.2323 35.5256 42.0281 34.8132 42.6988C34.1008 43.3695 31.8617 44.9203 31.8617 44.9203C31.8617 44.9203 33.5919 39.7458 32.5741 37.7775C31.5564 35.8092 26.0605 35.6153 26.0605 35.6153Z" fill="#7077D8"/>
<path d="M178.08 61.82C178.08 61.82 176.004 60.7803 174.657 62.7565C173.305 64.7387 174.487 67.3488 176.451 67.7157C178.444 68.0878 180.024 67.2082 180.458 65.2851C180.809 63.7282 179.423 62.7289 179.423 62.7289L197.86 45.7119V8.15771H196.511V45.1591L178.08 61.82Z" fill="white"/>
<path d="M171.032 54.6535C171.032 54.6535 168.956 53.6138 167.608 55.59C166.257 57.5722 167.438 60.1823 169.402 60.5492C171.395 60.9213 172.975 60.0417 173.409 58.1186C173.76 56.5617 172.374 55.5624 172.374 55.5624L190.812 38.5454V0.991211H189.462V37.9926L171.032 54.6535Z" fill="white"/>
<path d="M181.963 12.5993L163.532 29.2602V66.2616H162.183V28.7073L180.621 11.6904L181.963 12.5993Z" fill="white"/>
<path d="M189.463 12.5859L171.025 29.6028V67.1571H172.375V30.1557L190.805 13.4948L189.463 12.5859Z" fill="white"/>
<path d="M180.844 29.3183L172.126 37.3363L171.763 35.5531L179.754 28.2964L180.844 29.3183Z" fill="white"/>
<path d="M180.285 36.4639L172.294 43.7208V45.7091L181.375 37.4861L180.285 36.4639Z" fill="white"/>
<path d="M182.373 37.834C183.671 37.834 184.722 36.7983 184.722 35.5207C184.722 34.2432 183.671 33.2075 182.373 33.2075C181.076 33.2075 180.024 34.2432 180.024 35.5207C180.024 36.7983 181.076 37.834 182.373 37.834Z" fill="white"/>
<path d="M181.667 29.7744C182.965 29.7744 184.016 28.7387 184.016 27.4612C184.016 26.1836 182.965 25.1479 181.667 25.1479C180.37 25.1479 179.318 26.1836 179.318 27.4612C179.318 28.7387 180.37 29.7744 181.667 29.7744Z" fill="white"/>
<path d="M289.998 119.04C289.998 119.04 265.613 101.495 255.658 94.2368C202.944 55.8026 150.922 33.8992 101.807 66.5477C20.915 119.04 9.14258 161.621 9.14258 161.621H289.998V119.04Z" fill="#BDF9D3"/>
<path d="M74.8912 92.8979H25.9103C12.0691 92.8979 0.848633 103.948 0.848633 117.579V120.598C0.848633 134.229 12.0691 145.279 25.9103 145.279H74.8912C88.7324 145.279 99.9529 134.229 99.9529 120.598V117.579C99.9529 103.948 88.7324 92.8979 74.8912 92.8979Z" fill="white"/>
<path d="M26.6739 97.4565H74.388C79.8778 97.4565 85.1427 99.6042 89.0246 103.427C92.9065 107.25 95.0873 112.435 95.0873 117.841V120.335C95.0873 125.741 92.9065 130.926 89.0246 134.749C85.1427 138.572 79.8778 140.72 74.388 140.72H26.6739C23.9556 140.72 21.264 140.192 18.7526 139.168C16.2413 138.144 13.9594 136.642 12.0373 134.749C10.1152 132.856 8.59049 130.609 7.55025 128.136C6.51001 125.663 5.97461 123.012 5.97461 120.335V117.841C5.97461 115.164 6.51001 112.514 7.55025 110.04C8.59049 107.567 10.1152 105.32 12.0373 103.427C13.9594 101.534 16.2413 100.033 18.7526 99.0082C21.264 97.9838 23.9556 97.4565 26.6739 97.4565Z" fill="#EDF9F1"/>
<path d="M73.6097 102.076H27.4504C18.4595 102.076 11.1709 109.254 11.1709 118.108V120.069C11.1709 128.923 18.4595 136.101 27.4504 136.101H73.6097C82.6006 136.101 89.8892 128.923 89.8892 120.069V118.108C89.8892 109.254 82.6006 102.076 73.6097 102.076Z" fill="#DCF9E7"/>
<path d="M72.3743 108.955H28.6782C23.613 108.955 19.5068 112.999 19.5068 117.987V120.189C19.5068 125.178 23.613 129.221 28.6782 129.221H72.3743C77.4395 129.221 81.5457 125.178 81.5457 120.189V117.987C81.5457 112.999 77.4395 108.955 72.3743 108.955Z" fill="#9AF7C2"/>
<path d="M101.297 89.1445C101.245 89.1446 101.194 89.1346 101.146 89.1151C101.098 89.0956 101.054 89.067 101.018 89.0309C100.981 88.9948 100.952 88.9519 100.933 88.9047C100.913 88.8575 100.903 88.807 100.903 88.756C100.906 87.8332 100.784 85.5859 99.5191 85.5859H96.922C96.7362 85.5859 96.5524 85.5498 96.3808 85.4799C96.2092 85.4099 96.0533 85.3073 95.922 85.178C95.7907 85.0486 95.6865 84.8951 95.6155 84.7262C95.5444 84.5572 95.5078 84.3761 95.5078 84.1932V81.9844H159.735V84.0313C159.735 84.4306 159.574 84.8135 159.287 85.0958C159 85.3782 158.611 85.5368 158.206 85.5368H156.196C155.896 85.534 155.601 85.6197 155.35 85.7828C155.1 85.946 154.904 86.1793 154.789 86.4526C154.491 87.3183 154.358 88.2311 154.398 89.1445L101.297 89.1445Z" fill="#929AEA"/>
<path d="M102.752 89.2133C102.752 89.2133 102.55 85.6743 105.378 85.6743C108.206 85.6743 108.105 89.2133 108.105 89.2133H102.752Z" fill="#929AEA"/>
<path d="M147.198 89.2133C147.198 89.2133 146.996 85.6743 149.824 85.6743C152.652 85.6743 152.551 89.2133 152.551 89.2133H147.198Z" fill="#929AEA"/>
<path d="M139.793 89.2133C139.793 89.2133 139.591 85.6743 142.419 85.6743C145.247 85.6743 145.146 89.2133 145.146 89.2133H139.793Z" fill="#929AEA"/>
<path d="M132.386 89.2133C132.386 89.2133 132.184 85.6743 135.012 85.6743C137.84 85.6743 137.739 89.2133 137.739 89.2133H132.386Z" fill="#929AEA"/>
<path d="M124.976 89.2133C124.976 89.2133 124.774 85.6743 127.602 85.6743C130.429 85.6743 130.328 89.2133 130.328 89.2133H124.976Z" fill="#929AEA"/>
<path d="M117.57 89.2134C117.57 89.2134 117.368 85.6743 120.195 85.6743C123.023 85.6743 122.922 89.2133 122.922 89.2133L117.57 89.2134Z" fill="#929AEA"/>
<path d="M110.161 89.2134C110.161 89.2134 109.959 85.6743 112.787 85.6743C115.615 85.6743 115.514 89.2133 115.514 89.2133L110.161 89.2134Z" fill="#929AEA"/>
<path d="M244.398 159.593V111.46C244.398 111.46 243.446 101.764 257.558 101.764V96.3462H166.668C166.668 96.3462 159.732 96.8173 159.732 88.8086H95.6308C95.6308 88.8086 94.1956 92.3418 101.132 92.5774C108.068 92.8129 107.112 106.71 107.112 106.71V161.594L244.398 159.593Z" fill="#929AEA"/>
<path d="M114.295 103.755H149.763C149.763 103.755 156.567 103.449 156.567 110.455V158.765H114.295V103.755Z" fill="#C8CEFC"/>
<path d="M114.295 106.185H147.683C147.683 106.185 154.186 106.175 154.186 112.589V158.765H114.295V106.185Z" fill="#7077D8"/>
<path d="M168.142 132.818H174.052C175.192 132.818 176.284 133.264 177.09 134.057C177.896 134.851 178.349 135.927 178.349 137.049V159.465H163.846V137.049C163.846 136.494 163.957 135.943 164.173 135.43C164.389 134.917 164.705 134.45 165.104 134.057C165.503 133.664 165.977 133.353 166.498 133.14C167.019 132.927 167.578 132.818 168.142 132.818Z" fill="#252E6C"/>
<path d="M168.142 134.904H174.052C175.192 134.904 176.284 135.35 177.09 136.144C177.896 136.937 178.349 138.013 178.349 139.136V161.551H163.846V139.136C163.846 138.58 163.957 138.03 164.173 137.516C164.389 137.003 164.705 136.537 165.104 136.144C165.503 135.751 165.977 135.439 166.498 135.226C167.019 135.014 167.578 134.904 168.142 134.904Z" fill="#7077D8"/>
<path d="M187.138 132.818H193.048C194.188 132.818 195.281 133.264 196.086 134.057C196.892 134.851 197.345 135.927 197.345 137.049V159.465H182.842V137.049C182.842 136.494 182.953 135.943 183.169 135.43C183.385 134.917 183.701 134.45 184.1 134.057C184.499 133.664 184.973 133.353 185.494 133.14C186.015 132.927 186.574 132.818 187.138 132.818Z" fill="#252E6C"/>
<path d="M187.137 134.904H193.047C194.187 134.904 195.28 135.35 196.085 136.144C196.891 136.937 197.344 138.013 197.344 139.136V161.551H182.841V139.136C182.841 138.58 182.952 138.03 183.168 137.516C183.384 137.003 183.7 136.537 184.099 136.144C184.498 135.751 184.972 135.439 185.493 135.226C186.014 135.014 186.573 134.904 187.137 134.904Z" fill="#7077D8"/>
<path d="M206.132 132.818H212.041C213.181 132.818 214.274 133.264 215.079 134.057C215.885 134.851 216.338 135.927 216.338 137.049V159.465H201.835V137.049C201.835 136.494 201.946 135.943 202.162 135.43C202.378 134.917 202.694 134.45 203.093 134.057C203.492 133.664 203.966 133.353 204.487 133.14C205.009 132.927 205.567 132.818 206.132 132.818Z" fill="#252E6C"/>
<path d="M206.132 134.904H212.041C213.181 134.904 214.274 135.35 215.079 136.144C215.885 136.937 216.338 138.013 216.338 139.136V161.551H201.835V139.136C201.835 138.58 201.946 138.03 202.162 137.516C202.378 137.003 202.694 136.537 203.093 136.144C203.492 135.751 203.966 135.439 204.487 135.226C205.009 135.014 205.567 134.904 206.132 134.904Z" fill="#7077D8"/>
<path d="M225.124 132.818H231.033C232.173 132.818 233.266 133.264 234.072 134.057C234.877 134.851 235.33 135.927 235.33 137.049V159.465H220.827V137.049C220.827 136.494 220.938 135.943 221.154 135.43C221.37 134.917 221.687 134.45 222.086 134.057C222.485 133.664 222.958 133.353 223.479 133.14C224.001 132.927 224.56 132.818 225.124 132.818Z" fill="#252E6C"/>
<path d="M225.124 134.904H231.033C232.173 134.904 233.266 135.35 234.072 136.144C234.877 136.937 235.33 138.013 235.33 139.136V161.551H220.827V139.136C220.827 138.58 220.938 138.03 221.154 137.516C221.37 137.003 221.687 136.537 222.086 136.144C222.485 135.751 222.958 135.439 223.479 135.226C224.001 135.014 224.56 134.904 225.124 134.904Z" fill="#7077D8"/>
<path d="M69.8899 177.353V128.547L51.3878 139.803C51.3878 139.803 48.1056 126.077 68.1759 126.489L52.7676 112.35C52.7676 112.35 66.5391 108.369 70.4726 125.253C70.4726 125.253 77.4655 113.311 92.4711 117.704L72.8036 126.351C72.8036 126.351 92.7625 124.979 94.0736 140.078L71.9295 128.822V177.353H69.8899Z" fill="#252E6C"/>
<path d="M9.14258 158.938H199.446H290V179.009H9.14295L9.14258 158.938Z" fill="#7077D8"/>
<path d="M195.273 167.328H184.884V169.319H195.273V167.328Z" fill="#C8CEFC"/>
<path d="M175.388 167.328H164.999V169.319H175.388V167.328Z" fill="#C8CEFC"/>
<path d="M155.93 167.328H145.541V169.319H155.93V167.328Z" fill="#C8CEFC"/>
<path d="M254.494 167.328H244.104V169.319H254.494V167.328Z" fill="#C8CEFC"/>
<path d="M274.322 167.328H263.933V169.319H274.322V167.328Z" fill="#C8CEFC"/>
<path d="M234.609 167.328H224.22V169.319H234.609V167.328Z" fill="#C8CEFC"/>
<path d="M215.153 167.328H204.764V169.319H215.153V167.328Z" fill="#C8CEFC"/>
<path d="M136.05 167.328H125.661V169.319H136.05V167.328Z" fill="#C8CEFC"/>
<path d="M116.431 167.328H106.042V169.319H116.431V167.328Z" fill="#C8CEFC"/>
<path d="M96.5465 167.328H86.1572V169.319H96.5465V167.328Z" fill="#C8CEFC"/>
<path d="M56.485 167.328H46.0957V169.319H56.485V167.328Z" fill="#C8CEFC"/>
<path d="M76.1041 167.328H65.7148V169.319H76.1041V167.328Z" fill="#C8CEFC"/>
<path d="M36.0426 167.328H25.6533V169.319H36.0426V167.328Z" fill="#C8CEFC"/>
<path d="M260.307 140.111V135.977C260.307 135.977 260.492 132.938 262.22 131.844C263.949 130.75 263.825 128.987 263.887 125.947C263.948 122.908 263.887 114.154 263.887 114.154C263.887 114.154 263.861 112.81 264.905 112.77C265.948 112.731 265.828 114.114 265.828 114.114L265.832 126.606C265.832 126.606 265.894 130.656 265.146 131.715C264.437 132.719 262.823 133.445 262.577 134.457C262.327 135.484 262.376 140.111 262.376 140.111L260.307 140.111Z" fill="#7077D8"/>
<path d="M264.826 130.93H267.687C267.687 130.93 268.766 131.155 268.777 129.698C268.79 127.991 268.777 120.57 268.777 120.57C268.777 120.57 268.737 119.768 269.357 119.742C269.978 119.717 269.926 120.582 269.926 120.582L269.927 130.282C269.927 130.282 269.927 132.268 267.832 132.268H264.265L264.826 130.93Z" fill="#7077D8"/>
<path d="M264.363 126.886H261.834C261.834 126.886 260.446 127.176 260.432 125.302C260.415 123.108 260.432 117.283 260.432 117.283C260.432 117.283 260.483 116.251 259.686 116.218C258.888 116.186 258.954 117.299 258.954 117.299L258.953 126.053C258.953 126.053 258.953 128.606 261.647 128.606H265.085L264.363 126.886Z" fill="#7077D8"/>
<path d="M269.606 129.503H272.642C272.642 129.503 273.565 129.581 273.592 128.49C273.618 127.398 273.592 126.44 273.592 126.44C273.592 126.44 273.565 125.604 274.251 125.604C274.938 125.604 274.858 126.44 274.858 126.44L274.861 129.035C274.861 129.035 274.964 130.678 273.354 130.73C271.744 130.782 269.606 130.73 269.606 130.73L269.606 129.503Z" fill="#7077D8"/>
<path d="M269.425 122.987H271.045C271.045 122.987 271.838 123.054 271.861 122.116C271.884 121.178 271.861 118.414 271.861 118.414C271.861 118.414 271.838 117.696 272.428 117.696C273.017 117.696 272.949 118.414 272.949 118.414L272.951 122.585C272.951 122.585 273.04 123.996 271.657 124.04C270.274 124.085 269.425 124.04 269.425 124.04V122.987Z" fill="#7077D8"/>
<path d="M260.323 123.067H258.702C258.702 123.067 257.909 123.134 257.886 122.197C257.864 121.259 257.886 118.494 257.886 118.494C257.886 118.494 257.909 117.776 257.32 117.776C256.73 117.776 256.798 118.494 256.798 118.494L256.796 122.665C256.796 122.665 256.708 124.076 258.09 124.121C259.473 124.166 260.323 124.121 260.323 124.121V123.067Z" fill="#7077D8"/>
<path d="M257.684 132.425H256.304C256.304 132.425 255.629 132.482 255.61 131.684C255.59 130.885 255.61 128.532 255.61 128.532C255.61 128.532 255.629 127.921 255.127 127.921C254.626 127.921 254.684 128.532 254.684 128.532L254.682 132.083C254.682 132.083 254.606 133.284 255.783 133.322C256.96 133.36 257.684 133.322 257.684 133.322L257.684 132.425Z" fill="#7077D8"/>
<path d="M261.31 133.796H259.105C259.105 133.796 258.026 133.887 257.995 132.612C257.964 131.336 257.995 127.574 257.995 127.574C257.995 127.574 258.026 126.597 257.224 126.597C256.422 126.597 256.515 127.574 256.515 127.574L256.511 133.249C256.511 133.249 256.391 135.169 258.272 135.23C260.154 135.291 261.31 135.23 261.31 135.23L261.31 133.796Z" fill="#7077D8"/>
<path d="M235.931 174.743C239.164 174.743 241.786 172.161 241.786 168.976C241.786 165.792 239.164 163.21 235.931 163.21C232.697 163.21 230.075 165.792 230.075 168.976C230.075 172.161 232.697 174.743 235.931 174.743Z" fill="#929AEA"/>
<path d="M235.933 172.291C237.783 172.291 239.282 170.814 239.282 168.992C239.282 167.17 237.783 165.693 235.933 165.693C234.083 165.693 232.583 167.17 232.583 168.992C232.583 170.814 234.083 172.291 235.933 172.291Z" fill="#C8CEFC"/>
<path d="M235.932 170.85C236.975 170.85 237.82 170.018 237.82 168.991C237.82 167.965 236.975 167.132 235.932 167.132C234.89 167.132 234.045 167.965 234.045 168.991C234.045 170.018 234.89 170.85 235.932 170.85Z" fill="white"/>
<path d="M216.392 147.905H225.861C225.861 147.905 228.391 147.721 229.371 149.329C230.351 150.937 233.697 157.288 233.697 157.288H225.044L216.392 147.905Z" fill="#252E6C"/>
<path d="M195.516 156.698H160.441C160.441 156.698 158.445 156.885 158.383 158.86C158.321 160.835 158.134 164.704 158.695 166.362C158.973 167.221 159.306 168.062 159.693 168.879C159.693 168.879 159.737 169.812 162.518 169.812H229.328L230.159 167.766H241.627L242.457 169.812H248.773C249.852 169.808 250.921 169.614 251.931 169.239C253.925 168.585 257.83 167.03 257.83 167.03C258.453 166.804 259.101 166.653 259.76 166.581C260.575 166.539 261.391 166.623 261.606 165.862C261.82 165.101 262.422 162.057 262.207 160.619C261.992 159.182 261.131 157.056 260.23 157.014C259.328 156.972 230.85 156.476 230.85 156.476L227.047 149.723C227.047 149.723 225.429 147.905 222.091 147.905H206.078C206.078 147.905 203.755 147.919 202.457 149.095C201.159 150.271 195.516 156.698 195.516 156.698" fill="#161D50"/>
<path d="M262.191 163.197H161.353V164.001H262.191V163.197Z" fill="white"/>
<path d="M162.667 163.21V166.045H158.377C158.377 166.045 156.3 166.156 156.298 164.628C156.295 162.961 158.421 163.21 158.421 163.21H162.667Z" fill="white"/>
<path d="M203.286 151.175L198.543 156.246C198.39 156.41 198.305 156.625 198.305 156.848H212.592V150.864H204.008C203.872 150.864 203.738 150.891 203.614 150.945C203.49 150.999 203.378 151.077 203.286 151.175Z" fill="white"/>
<path d="M213.738 150.864V156.849H227.456L224.622 151.711C224.473 151.439 224.248 151.214 223.973 151.064C223.698 150.914 223.385 150.844 223.072 150.864L213.738 150.864Z" fill="white"/>
<path d="M181.316 174.743C184.55 174.743 187.172 172.161 187.172 168.976C187.172 165.792 184.55 163.21 181.316 163.21C178.082 163.21 175.461 165.792 175.461 168.976C175.461 172.161 178.082 174.743 181.316 174.743Z" fill="#929AEA"/>
<path d="M181.344 172.29C183.194 172.29 184.694 170.813 184.694 168.991C184.694 167.169 183.194 165.692 181.344 165.692C179.494 165.692 177.994 167.169 177.994 168.991C177.994 170.813 179.494 172.29 181.344 172.29Z" fill="#C8CEFC"/>
<path d="M181.344 170.85C182.386 170.85 183.231 170.018 183.231 168.991C183.231 167.965 182.386 167.132 181.344 167.132C180.301 167.132 179.456 167.965 179.456 168.991C179.456 170.018 180.301 170.85 181.344 170.85Z" fill="white"/>
</svg>
