<svg width="177" height="116" viewBox="0 0 177 116" fill="none" xmlns="http://www.w3.org/2000/svg">
<path d="M17.1496 86.1702C5.38943 76.8209 -7.5455 55.0691 7.00062 55.0691C7.00062 55.0691 8.73946 36.4885 28.9098 42.2691C28.9098 42.2691 67.5118 -26.0701 117.416 27.5059C117.416 27.5059 137.065 12.9531 142.455 40.2046C142.455 40.2046 165.756 35.4563 166.973 57.1336C168.19 78.811 152.366 81.6995 144.194 76.5391C144.194 76.5391 134.616 90.2653 121.575 92.1192C108.534 93.9732 78.5347 101.273 78.5347 101.273C78.5347 101.273 72.3389 117.67 45.3727 114.937C26.3002 113.004 28.9098 95.5195 17.1496 86.1702Z" fill="white"/>
<path d="M7.1264 68.5593C7.88777 68.5593 8.50499 67.941 8.50499 67.1784C8.50499 66.4157 7.88777 65.7974 7.1264 65.7974C6.36502 65.7974 5.7478 66.4157 5.7478 67.1784C5.7478 67.941 6.36502 68.5593 7.1264 68.5593Z" fill="#C8CEFC"/>
<path d="M30.9952 56.9254C32.8462 56.9254 34.3468 55.4222 34.3468 53.5679C34.3468 51.7136 32.8462 50.2104 30.9952 50.2104C29.1441 50.2104 27.6436 51.7136 27.6436 53.5679C27.6436 55.4222 29.1441 56.9254 30.9952 56.9254Z" fill="#C8CEFC"/>
<path d="M119.039 42.0665C120.92 42.0665 122.444 40.5393 122.444 38.6555C122.444 36.7717 120.92 35.2446 119.039 35.2446C117.159 35.2446 115.634 36.7717 115.634 38.6555C115.634 40.5393 117.159 42.0665 119.039 42.0665Z" fill="#C8CEFC"/>
<path d="M59.1831 107.245C61.0636 107.245 62.588 105.718 62.588 103.834C62.588 101.95 61.0636 100.423 59.1831 100.423C57.3025 100.423 55.7781 101.95 55.7781 103.834C55.7781 105.718 57.3025 107.245 59.1831 107.245Z" fill="#C8CEFC"/>
<path d="M150.37 54.9483C152.25 54.9483 153.775 53.4212 153.775 51.5374C153.775 49.6536 152.25 48.1265 150.37 48.1265C148.489 48.1265 146.965 49.6536 146.965 51.5374C146.965 53.4212 148.489 54.9483 150.37 54.9483Z" fill="#C8CEFC"/>
<path d="M83.3498 32.1257C87.7153 32.1257 91.2542 28.8351 91.2542 24.776C91.2542 20.7169 87.7153 17.4263 83.3498 17.4263C78.9843 17.4263 75.4453 20.7169 75.4453 24.776C75.4453 28.8351 78.9843 32.1257 83.3498 32.1257Z" fill="#C8CEFC"/>
<path d="M33.6799 79.4906C36.6426 79.4906 39.0443 77.2574 39.0443 74.5026C39.0443 71.7478 36.6426 69.5146 33.6799 69.5146C30.7172 69.5146 28.3154 71.7478 28.3154 74.5026C28.3154 77.2574 30.7172 79.4906 33.6799 79.4906Z" fill="#C8CEFC"/>
<path d="M61.7674 89.4229C62.5858 89.4229 63.2492 88.7583 63.2492 87.9385C63.2492 87.1187 62.5858 86.4541 61.7674 86.4541C60.9491 86.4541 60.2856 87.1187 60.2856 87.9385C60.2856 88.7583 60.9491 89.4229 61.7674 89.4229Z" fill="#C8CEFC"/>
<path d="M61.1063 46.0508C61.9247 46.0508 62.5881 45.3862 62.5881 44.5664C62.5881 43.7466 61.9247 43.082 61.1063 43.082C60.2879 43.082 59.6245 43.7466 59.6245 44.5664C59.6245 45.3862 60.2879 46.0508 61.1063 46.0508Z" fill="#C8CEFC"/>
<path d="M112.692 78.0064C115.296 78.0064 117.408 75.8917 117.408 73.283C117.408 70.6743 115.296 68.5596 112.692 68.5596C110.088 68.5596 107.977 70.6743 107.977 73.283C107.977 75.8917 110.088 78.0064 112.692 78.0064Z" fill="#C8CEFC"/>
<path d="M70.0505 43.3753L62.8526 72.9001C62.5853 73.995 62.5365 75.1319 62.7087 76.2457C62.881 77.3595 63.271 78.4284 63.8565 79.3914C64.442 80.3545 65.2115 81.1927 66.1211 81.8582C67.0306 82.5237 68.0624 83.0035 69.1575 83.2702L104.956 91.9975C105.877 102.104 114.24 102.851 117.54 103.197C117.573 103.199 117.605 103.19 117.632 103.172C117.658 103.153 117.678 103.127 117.689 103.096C117.699 103.065 117.698 103.031 117.687 103.001C117.676 102.97 117.655 102.944 117.628 102.926C115.259 101.482 114.551 97.5221 114.393 94.2982L117.051 94.9461C118.146 95.2133 119.282 95.2622 120.396 95.09C121.51 94.9177 122.579 94.5277 123.542 93.9422C124.505 93.3567 125.343 92.5872 126.009 91.6776C126.674 90.768 127.154 89.7363 127.421 88.6412L134.619 59.1163C134.886 58.0214 134.935 56.8846 134.762 55.7708C134.59 54.657 134.2 53.5881 133.615 52.6251C133.029 51.6621 132.26 50.8238 131.35 50.1583C130.441 49.4928 129.409 49.013 128.314 48.7463L80.4205 37.0704C79.3256 36.8031 78.1888 36.7542 77.075 36.9265C75.9612 37.0987 74.8923 37.4888 73.9292 38.0743C72.9662 38.6598 72.128 39.4293 71.4625 40.3389C70.797 41.2484 70.3172 42.2802 70.0505 43.3753Z" fill="#9AF7C2"/>
<rect x="79.2358" y="47.8374" width="30.6579" height="4.54973" rx="2.27486" transform="rotate(12.7318 79.2358 47.8374)" fill="#9AF7C2"/>
<rect x="78.551" y="62.479" width="43.2736" height="4.54973" rx="2.27486" transform="rotate(11.2089 78.551 62.479)" fill="#5CEEA7"/>
<rect x="73.908" y="71.936" width="45.4838" height="4.54973" rx="2.27486" transform="rotate(12.88 73.908 71.936)" fill="#5CEEA7"/>
<path d="M90.206 7.95769L101.977 45.7563C102.413 47.158 102.57 48.632 102.437 50.0942C102.304 51.5563 101.884 52.978 101.202 54.2779C100.519 55.5777 99.5872 56.7304 98.459 57.67C97.3308 58.6095 96.0286 59.3176 94.6267 59.7537L48.7968 74.0249C48.4259 87.2394 37.6131 88.8942 33.3513 89.6136C33.309 89.6192 33.2661 89.6105 33.2293 89.5889C33.1925 89.5673 33.164 89.534 33.1483 89.4943C33.1326 89.4547 33.1306 89.4109 33.1426 89.37C33.1546 89.329 33.1799 89.2933 33.2146 89.2684C36.1772 87.1969 36.7735 81.9911 36.7156 77.7867L33.3129 78.8462C31.9112 79.283 30.4373 79.4394 28.9752 79.3064C27.5131 79.1735 26.0916 78.7537 24.7918 78.0712C23.4919 77.3887 22.3393 76.4568 21.3998 75.3287C20.4602 74.2006 19.7521 72.8985 19.3159 71.4966L7.5454 33.698C7.10849 32.2963 6.95203 30.8223 7.08498 29.3601C7.21792 27.898 7.63765 26.4763 8.32019 25.1764C9.00274 23.8766 9.93472 22.7239 11.0629 21.7843C12.191 20.8447 13.4933 20.1366 14.8952 19.7004L76.2085 0.607895C77.6102 0.170986 79.0842 0.0145316 80.5464 0.147475C82.0085 0.280419 83.4302 0.70015 84.7301 1.38269C86.03 2.06524 87.1826 2.99722 88.1222 4.12538C89.0618 5.25354 89.7699 6.55578 90.206 7.95769Z" fill="#5CEEA7"/>
<rect x="16.7178" y="31.1108" width="30.6579" height="4.54973" rx="2.27486" transform="rotate(-17.3666 16.7178 31.1108)" fill="#9AF7C2"/>
<rect x="21.1768" y="44.8584" width="68.9538" height="4.54973" rx="2.27486" transform="rotate(-17.3666 21.1768 44.8584)" fill="#DCF9E7"/>
<rect x="26.7014" y="58.3462" width="68.9538" height="4.54973" rx="2.27486" transform="rotate(-17.3666 26.7014 58.3462)" fill="#DCF9E7"/>
<path d="M165.407 92.4468H128.02V115.44H165.407V92.4468Z" fill="#252E6C"/>
<path d="M160.1 87.1313H133.326C130.395 87.1313 128.02 89.5113 128.02 92.4471V92.4471C128.02 95.383 130.395 97.7629 133.326 97.7629H160.1C163.031 97.7629 165.407 95.383 165.407 92.4471V92.4471C165.407 89.5113 163.031 87.1313 160.1 87.1313Z" fill="#C8CEFC"/>
<path d="M133.715 92.8326C133.715 92.8326 128.804 84.1384 117.476 84.2936C117.476 84.2936 125.078 80.8318 134.927 87.063C134.927 87.063 128.88 75.4084 117.476 72.5236C117.476 72.5236 126.392 69.6213 138.44 83.0197C138.44 83.0197 133.838 67.9777 117.476 60.437C117.476 60.437 136.741 62.6678 146.965 82.2026V92.8326L133.715 92.8326Z" fill="#929AEA"/>
<path d="M160.214 92.8326C160.214 92.8326 165.125 84.1384 176.454 84.2936C176.454 84.2936 168.851 80.8318 159.002 87.063C159.002 87.063 165.05 75.4084 176.454 72.5236C176.454 72.5236 167.537 69.6213 155.489 83.0197C155.489 83.0197 160.091 67.9777 176.454 60.437C176.454 60.437 157.188 62.6678 146.965 82.2026V92.8326L160.214 92.8326Z" fill="#929AEA"/>
</svg>
