<svg width="55" height="55" viewBox="0 0 55 55" fill="none" xmlns="http://www.w3.org/2000/svg">
<g clip-path="url(#clip0_853_88689)">
<path d="M14.3221 42.4672C10.6533 42.4672 7.38986 40.1182 6.20483 36.621L6.12468 36.3575C5.84521 35.4314 5.72813 34.6525 5.72813 33.8733V18.248L0.168494 36.8065C-0.54655 39.5361 1.08286 42.3661 3.81673 43.1202L39.2538 52.6105C39.6961 52.725 40.1384 52.78 40.574 52.78C42.8563 52.78 44.9419 51.2651 45.5264 49.0327L47.591 42.4672H14.3221Z" fill="#ECEFF1"/>
<path d="M54.9996 7.51819V33.8733C54.9996 36.715 52.685 39.0297 49.8433 39.0297H14.3214C14.0923 39.0297 13.8632 39.0066 13.6567 38.9835C11.2506 38.686 9.3715 36.715 9.18812 34.2858C9.16504 34.1481 9.16504 34.0105 9.16504 33.8733V7.51819C9.16504 4.67648 11.4797 2.36182 14.3214 2.36182H49.8433C52.685 2.36182 54.9996 4.67648 54.9996 7.51819Z" fill="#ECEFF1"/>
<path d="M25.2075 13.8204C25.2075 16.3516 23.1555 18.404 20.6244 18.404C18.0927 18.404 16.0408 16.3516 16.0408 13.8204C16.0408 11.2892 18.0927 9.23682 20.6244 9.23682C23.1555 9.23682 25.2075 11.2892 25.2075 13.8204Z" fill="#F6CA51"/>
<path d="M55.0001 27.433V33.8731C55.0001 36.7148 52.6855 39.0294 49.8438 39.0294H14.3219C14.0928 39.0294 13.8637 39.0064 13.6572 38.9833L37.2621 15.3788C38.8206 13.8203 41.387 13.8203 42.9455 15.3788L55.0001 27.433Z" fill="#252E6C"/>
<path d="M41.3869 39.0293H14.3218C14.0927 39.0293 13.8635 39.0063 13.6571 38.9832C11.2509 38.6857 9.37185 36.7147 9.18848 34.2855L20.074 23.3995C21.6325 21.8414 24.199 21.8414 25.7575 23.3995L41.3869 39.0293Z" fill="#7077D8"/>
</g>
<defs>
<clipPath id="clip0_853_88689">
<rect width="55" height="55" fill="white"/>
</clipPath>
</defs>
</svg>
