<svg width="196" height="131" viewBox="0 0 196 131" fill="none" xmlns="http://www.w3.org/2000/svg">
<path d="M60.4431 71.7609C60.4431 71.7609 34.7677 75.4984 39.8966 56.2303C39.8966 56.2303 16.6175 60.9774 19.276 37.1631C19.276 37.1631 5.27333 42.7517 1.69987 30.156C-0.871572 21.0922 3.70709 14.7128 14.0171 13.4103C14.0171 13.4103 16.6175 0.163148 31.5769 0.948106C46.394 1.7256 46.7283 14.378 46.7283 14.378C46.7283 14.378 59.3494 3.56271 64.5883 18.8298C64.5883 18.8298 79.5907 12.104 82.9245 25.3666C86.2584 38.6292 70.7797 40.1397 70.7797 40.1397L60.4431 71.7609Z" fill="#252E6C"/>
<path d="M42.5788 30.6703C43.1044 30.6703 43.5305 30.2435 43.5305 29.717C43.5305 29.1905 43.1044 28.7637 42.5788 28.7637C42.0533 28.7637 41.6272 29.1905 41.6272 29.717C41.6272 30.2435 42.0533 30.6703 42.5788 30.6703Z" fill="#7077D8"/>
<path d="M43.5288 62.0613C44.0543 62.0613 44.4804 61.6345 44.4804 61.1081C44.4804 60.5816 44.0543 60.1548 43.5288 60.1548C43.0032 60.1548 42.5771 60.5816 42.5771 61.1081C42.5771 61.6345 43.0032 62.0613 43.5288 62.0613Z" fill="#7077D8"/>
<path d="M31.8913 41.6876C33.169 41.6876 34.2049 40.6499 34.2049 39.3699C34.2049 38.0899 33.169 37.0522 31.8913 37.0522C30.6135 37.0522 29.5776 38.0899 29.5776 39.3699C29.5776 40.6499 30.6135 41.6876 31.8913 41.6876Z" fill="#7077D8"/>
<path d="M58.9232 23.9816C60.2213 23.9816 61.2737 22.9274 61.2737 21.627C61.2737 20.3266 60.2213 19.2725 58.9232 19.2725C57.6251 19.2725 56.5728 20.3266 56.5728 21.627C56.5728 22.9274 57.6251 23.9816 58.9232 23.9816Z" fill="#7077D8"/>
<path d="M63.7201 37.4034C65.0182 37.4034 66.0706 36.3493 66.0706 35.0489C66.0706 33.7485 65.0182 32.6943 63.7201 32.6943C62.422 32.6943 61.3696 33.7485 61.3696 35.0489C61.3696 36.3493 62.422 37.4034 63.7201 37.4034Z" fill="#7077D8"/>
<path d="M32.7184 19.126C35.7319 19.126 38.1749 16.8545 38.1749 14.0525C38.1749 11.2505 35.7319 8.979 32.7184 8.979C29.7049 8.979 27.262 11.2505 27.262 14.0525C27.262 16.8545 29.7049 19.126 32.7184 19.126Z" fill="#7077D8"/>
<path d="M17.3634 28.7388C17.9284 28.7388 18.3863 28.28 18.3863 27.7141C18.3863 27.1482 17.9284 26.6895 17.3634 26.6895C16.7985 26.6895 16.3406 27.1482 16.3406 27.7141C16.3406 28.28 16.7985 28.7388 17.3634 28.7388Z" fill="#7077D8"/>
<path d="M85.7499 94.0113V91.396L81.2097 91.8507L77.3505 94.0113L75.5343 98.1044L74.7398 103.392L76.7828 107.201L80.7555 110.498L84.7283 111.635L90.6305 112.204L96.7601 112.772L99.8248 114.364L101.187 117.458L100.619 121.527L98.9167 124.029L95.6249 125.789H90.5173H58.0542V129.101H94.7168L99.3706 128.236L103.343 124.821L105.046 120.049L104.251 114.478L100.96 110.953L95.5114 109.378L87.9065 108.366L82.3449 106.746L79.0529 102.539L79.3935 97.7635L82.3449 94.9207L85.7499 94.0113Z" fill="#929AEA"/>
<path d="M58.0547 124.821H95.0578C95.0578 124.821 100.107 124.484 100.166 118.458C100.22 112.846 93.2417 113.114 93.2417 113.114C93.2417 113.114 73.8321 114.364 73.7186 102.198C73.6051 90.0317 84.8422 90.2591 84.8422 90.2591L84.7287 91.7372C84.7287 91.7372 75.1955 92.0379 75.5347 102.198C75.8865 112.738 93.2417 111.408 93.2417 111.408C93.2417 111.408 102.095 111.181 102.095 118.458C102.095 125.735 95.1713 126.474 95.1713 126.474H58.0547V124.821Z" fill="#7077D8"/>
<path d="M84.6147 93.1016C84.6147 93.1016 77.2368 94.0112 77.6908 101.516C78.1449 109.02 86.6872 109.747 91.2785 109.744C95.9794 109.741 104.091 109.904 104.138 118.912C104.187 128.41 93.6953 128.463 93.6953 128.463H58.3948V130.169H93.9223C93.9223 130.169 106.294 130.397 106.294 118.912C106.294 106.581 92.0189 107.306 92.0189 107.306C92.0189 107.306 80.0745 107.356 80.0745 101.402C80.0745 95.1987 84.6147 95.2619 84.6147 95.2619V93.1016Z" fill="#C8CEFC"/>
<path d="M26.958 88.1196C26.958 88.1196 63.756 75.5867 79.8974 58.1077C96.0388 40.6287 107.214 30.7913 125.5 30.6217C143.786 30.4521 165.233 64.9396 165.233 64.9396C165.233 64.9396 182.848 84.3882 195.656 91.5118H26.958V88.1196Z" fill="#252E6C"/>
<path d="M112.482 83.9385V39.8381C112.482 39.8381 106.006 28.8281 98.9814 27.8741C91.9567 26.9202 96.0403 83.9385 96.0403 83.9385H112.482Z" fill="#C8CEFC"/>
<path d="M25.5295 94.1199V51.7376C25.5295 51.2033 25.6346 50.6742 25.8388 50.1806C26.0429 49.687 26.3421 49.2385 26.7194 48.8607C27.0966 48.483 27.5444 48.1834 28.0372 47.979C28.53 47.7747 29.0582 47.6696 29.5916 47.6697L65.7921 47.6811L65.7401 27.7995L92.8727 27.8078C92.8727 27.8078 101.9 27.0902 102.043 29.3867C102.186 31.6832 102.043 41.0128 102.043 41.0128H112.932C112.932 41.0128 114.401 40.9052 114.401 42.7352C114.401 44.5653 113.111 44.5294 113.111 44.5294H102.258V47.7948H112.467C112.467 47.7948 114.401 47.5794 114.401 48.9789C114.401 50.3783 113.935 50.773 112.502 50.9166C111.07 51.0601 102.186 50.9166 102.186 50.9166V54.2896H112.431C112.431 54.2896 114.365 54.4331 114.401 55.7967C114.437 57.1603 114.294 57.7344 112.431 57.8779C110.568 58.0215 102.186 57.8779 102.186 57.8779V61.3227H112.288C112.288 61.3227 114.374 60.9639 114.405 62.758C114.437 64.5522 113.362 64.6957 112.431 64.7675C111.5 64.8392 102.186 64.7675 102.186 64.7675V68.0687H112.288C112.288 68.0687 114.304 68.1405 114.406 70.0782C114.508 72.0159 112.359 71.9441 112.359 71.9441H102.186V75.5324H112.288C112.288 75.5324 114.382 75.3171 114.41 77.3266C114.437 79.336 112.216 79.2643 112.216 79.2643H102.258V82.6373H112.288C112.288 82.6373 114.383 82.3502 114.41 84.0009C114.437 85.6515 113.505 86.0103 112.502 86.0821C111.499 86.1539 102.473 86.0821 102.473 86.0821V93.5852L25.5295 94.1199Z" fill="#929AEA"/>
<path d="M94.2546 86.3018H75.8665V93.779H94.2546V86.3018Z" fill="#252E6C"/>
<path d="M76.7138 82.7466H93.6745L97.4892 86.5678H72.8562L76.7138 82.7466Z" fill="#161D50"/>
<path d="M89.6646 39.1875H85.6541C85.1855 39.1875 84.8057 39.568 84.8057 40.0374V43.7444C84.8057 44.2137 85.1855 44.5942 85.6541 44.5942H89.6646C90.1332 44.5942 90.5131 44.2137 90.5131 43.7444V40.0374C90.5131 39.568 90.1332 39.1875 89.6646 39.1875Z" fill="#E6E9FC"/>
<path d="M81.7415 49.7139H77.7036C77.2426 49.7139 76.8689 50.0882 76.8689 50.55V54.2845C76.8689 54.7462 77.2426 55.1206 77.7036 55.1206H81.7415C82.2025 55.1206 82.5762 54.7462 82.5762 54.2845V50.55C82.5762 50.0882 82.2025 49.7139 81.7415 49.7139Z" fill="#E6E9FC"/>
<path d="M97.6165 49.7139H93.5761C93.1158 49.7139 92.7427 50.0877 92.7427 50.5488V54.2857C92.7427 54.7468 93.1158 55.1206 93.5761 55.1206H97.6165C98.0768 55.1206 98.45 54.7468 98.45 54.2857V50.5488C98.45 50.0877 98.0768 49.7139 97.6165 49.7139Z" fill="#E6E9FC"/>
<path d="M73.8107 60.1377H69.7604C69.3028 60.1377 68.9319 60.5093 68.9319 60.9676V64.7145C68.9319 65.1729 69.3028 65.5444 69.7604 65.5444H73.8107C74.2682 65.5444 74.6392 65.1729 74.6392 64.7145V60.9676C74.6392 60.5093 74.2682 60.1377 73.8107 60.1377Z" fill="#E6E9FC"/>
<path d="M81.7431 60.1377H77.702C77.2419 60.1377 76.8689 60.5113 76.8689 60.9722V64.7099C76.8689 65.1708 77.2419 65.5444 77.702 65.5444H81.7431C82.2032 65.5444 82.5762 65.1708 82.5762 64.7099V60.9722C82.5762 60.5113 82.2032 60.1377 81.7431 60.1377Z" fill="#E6E9FC"/>
<path d="M61.0193 70.2915H48.9852C48.5406 70.2915 48.1802 70.6526 48.1802 71.0979V74.8918C48.1802 75.3372 48.5406 75.6982 48.9852 75.6982H61.0193C61.4639 75.6982 61.8243 75.3372 61.8243 74.8918V71.0979C61.8243 70.6526 61.4639 70.2915 61.0193 70.2915Z" fill="#E6E9FC"/>
<path d="M89.6809 70.2915H85.6378C85.1782 70.2915 84.8057 70.6647 84.8057 71.1251V74.8647C84.8057 75.325 85.1782 75.6982 85.6378 75.6982H89.6809C90.1405 75.6982 90.5131 75.325 90.5131 74.8647V71.1251C90.5131 70.6647 90.1405 70.2915 89.6809 70.2915Z" fill="#E6E9FC"/>
<path d="M97.6211 60.1377H93.5715C93.1137 60.1377 92.7427 60.5094 92.7427 60.968V64.7142C92.7427 65.1727 93.1137 65.5444 93.5715 65.5444H97.6211C98.0789 65.5444 98.45 65.1727 98.45 64.7142V60.968C98.45 60.5094 98.0789 60.1377 97.6211 60.1377Z" fill="#E6E9FC"/>
<path d="M44.7632 60.6846H32.7291C32.2845 60.6846 31.9241 61.0456 31.9241 61.491V65.2849C31.9241 65.7303 32.2845 66.0913 32.7291 66.0913H44.7632C45.2078 66.0913 45.5683 65.7303 45.5683 65.2849V61.491C45.5683 61.0456 45.2078 60.6846 44.7632 60.6846Z" fill="#E6E9FC"/>
<path d="M47.0554 81.2354H43.0449C42.5764 81.2354 42.1965 81.6159 42.1965 82.0852V85.7922C42.1965 86.2616 42.5764 86.6421 43.0449 86.6421H47.0554C47.524 86.6421 47.9038 86.2616 47.9038 85.7922V82.0852C47.9038 81.6159 47.524 81.2354 47.0554 81.2354Z" fill="#E6E9FC"/>
<path d="M82.5762 63.3877H76.8689V64.1886H82.5762V63.3877Z" fill="#161D50"/>
<path d="M74.6392 63.3877H68.9319V64.1886H74.6392V63.3877Z" fill="#161D50"/>
<path d="M61.8243 73.7192H48.1802V74.5201H61.8243V73.7192Z" fill="#161D50"/>
<path d="M45.5683 64.1123H31.9241V64.9132H45.5683V64.1123Z" fill="#161D50"/>
<path d="M98.45 63.3877H92.7427V64.1886H98.45V63.3877Z" fill="#161D50"/>
<path d="M98.45 52.9927H92.7427V53.7936H98.45V52.9927Z" fill="#161D50"/>
<path d="M90.5131 42.5215H84.8057V43.3224H90.5131V42.5215Z" fill="#161D50"/>
<path d="M47.9038 84.3545H42.1965V85.1554H47.9038V84.3545Z" fill="#161D50"/>
<path d="M90.5131 73.7192H84.8057V74.5201H90.5131V73.7192Z" fill="#161D50"/>
<path d="M82.5762 52.9927H76.8689V53.7936H82.5762V52.9927Z" fill="#161D50"/>
<path d="M159.695 50.1074H128.669V69.1885H159.695V50.1074Z" fill="#5CEEA7"/>
<path d="M155.291 45.6963H133.073C130.641 45.6963 128.669 47.6713 128.669 50.1077C128.669 52.544 130.641 54.519 133.073 54.519H155.291C157.723 54.519 159.695 52.544 159.695 50.1077C159.695 47.6713 157.723 45.6963 155.291 45.6963Z" fill="#BDF9D3"/>
<path d="M155.195 46.6812H133.169C131.363 46.6812 129.899 48.1477 129.899 49.9568V50.1104C129.899 51.9195 131.363 53.3861 133.169 53.3861H155.195C157.001 53.3861 158.465 51.9195 158.465 50.1104V49.9568C158.465 48.1477 157.001 46.6812 155.195 46.6812Z" fill="#EDF9F1"/>
<path d="M170.534 113.361L102.863 113.361C102.198 113.361 101.54 113.23 100.926 112.975C100.312 112.721 99.754 112.347 99.2841 111.876C98.8141 111.406 98.4414 110.847 98.187 110.232C97.9327 109.617 97.8018 108.957 97.8018 108.292V85.4728L170.534 85.4728V113.361Z" fill="#5CEEA7"/>
<path d="M107.344 96.4346L160.992 96.4346C166.262 96.4346 170.534 92.155 170.534 86.876V83.0498C170.534 77.7707 166.262 73.4912 160.992 73.4912H107.344C102.074 73.4912 97.8018 77.7707 97.8018 83.0498V86.876C97.8018 92.155 102.074 96.4346 107.344 96.4346Z" fill="#BDF9D3"/>
<path d="M107.457 93.9863L160.879 93.9863C164.907 93.9863 168.173 90.715 168.173 86.6797V83.2467C168.173 79.2113 164.907 75.94 160.879 75.94H107.457C103.429 75.94 100.163 79.2113 100.163 83.2467V86.6797C100.163 90.715 103.429 93.9863 107.457 93.9863Z" fill="#EDF9F1"/>
<path d="M109.797 93.9864C109.797 93.9864 109.879 91.2031 107.434 91.218C104.849 91.2338 105.012 93.9864 105.012 93.9864V113.362H104.262V93.9482C104.262 93.9482 104.021 90.3418 107.334 90.3418C110.773 90.3418 110.609 93.9865 110.609 93.9865H109.797" fill="#252E6C"/>
<path d="M117.666 93.9864C117.666 93.9864 117.748 91.2031 115.303 91.218C112.718 91.2338 112.882 93.9864 112.882 93.9864V113.362H112.131V93.9482C112.131 93.9482 111.891 90.3418 115.204 90.3418C118.642 90.3418 118.478 93.9865 118.478 93.9865H117.666" fill="#252E6C"/>
<path d="M104.684 98.6616H112.485V98.0236H104.684V98.6616Z" fill="#252E6C"/>
<path d="M104.684 101.99H112.485V101.352H104.684V101.99Z" fill="#252E6C"/>
<path d="M104.684 105.299H112.485V104.661H104.684V105.299Z" fill="#252E6C"/>
<path d="M149.54 53.3781C149.54 53.3781 149.458 50.5947 151.903 50.6096C154.488 50.6254 154.325 53.3781 154.325 53.3781V75.9375H155.075V53.3398C155.075 53.3398 155.315 49.7334 152.002 49.7334C148.564 49.7334 148.728 53.3781 148.728 53.3781H149.54" fill="#252E6C"/>
<path d="M141.671 53.3781C141.671 53.3781 141.589 50.5947 144.034 50.6096C146.619 50.6254 146.455 53.3781 146.455 53.3781V75.9375H147.206V53.3398C147.206 53.3398 147.446 49.7334 144.133 49.7334C140.695 49.7334 140.859 53.3781 140.859 53.3781H141.671" fill="#252E6C"/>
<path d="M154.653 56.3271H146.852V56.9651H154.653V56.3271Z" fill="#252E6C"/>
<path d="M154.653 59.6553H146.852V60.2932H154.653V59.6553Z" fill="#252E6C"/>
<path d="M154.653 62.9644H146.852V63.6023H154.653V62.9644Z" fill="#252E6C"/>
<path d="M154.653 66.2925H146.852V66.9304H154.653V66.2925Z" fill="#252E6C"/>
<path d="M154.653 69.5942H146.852V70.2321H154.653V69.5942Z" fill="#252E6C"/>
<path d="M154.653 72.856H146.852V73.4938H154.653V72.856Z" fill="#252E6C"/>
<path d="M136.628 47.2192C138.396 47.2192 139.829 45.8867 139.829 44.2429C139.829 42.5991 138.396 41.2666 136.628 41.2666C134.86 41.2666 133.427 42.5991 133.427 44.2429C133.427 45.8867 134.86 47.2192 136.628 47.2192Z" fill="#BDF9D3"/>
<path d="M159.734 18.8001C162.215 18.8001 164.226 16.9302 164.226 14.6237C164.226 12.3171 162.215 10.4473 159.734 10.4473C157.254 10.4473 155.243 12.3171 155.243 14.6237C155.243 16.9302 157.254 18.8001 159.734 18.8001Z" fill="#BDF9D3"/>
<path d="M149.643 34.1538C151.342 34.1538 152.719 32.873 152.719 31.2932C152.719 29.7133 151.342 28.4326 149.643 28.4326C147.944 28.4326 146.566 29.7133 146.566 31.2932C146.566 32.873 147.944 34.1538 149.643 34.1538Z" fill="#BDF9D3"/>
<path d="M118.803 14.4633C120.502 14.4633 121.88 13.1826 121.88 11.6028C121.88 10.0229 120.502 8.74219 118.803 8.74219C117.104 8.74219 115.727 10.0229 115.727 11.6028C115.727 13.1826 117.104 14.4633 118.803 14.4633Z" fill="#BDF9D3"/>
<path d="M135.434 24.5558C136.691 24.5558 137.71 23.6082 137.71 22.4392C137.71 21.2703 136.691 20.3228 135.434 20.3228C134.177 20.3228 133.158 21.2703 133.158 22.4392C133.158 23.6082 134.177 24.5558 135.434 24.5558Z" fill="#BDF9D3"/>
<path d="M167.227 40.0631C168.484 40.0631 169.503 39.1155 169.503 37.9466C169.503 36.7777 168.484 35.8301 167.227 35.8301C165.97 35.8301 164.951 36.7777 164.951 37.9466C164.951 39.1155 165.97 40.0631 167.227 40.0631Z" fill="#BDF9D3"/>
<path d="M126.845 29.5214C127.587 29.5214 128.188 28.9622 128.188 28.2724C128.188 27.5826 127.587 27.0234 126.845 27.0234C126.103 27.0234 125.501 27.5826 125.501 28.2724C125.501 28.9622 126.103 29.5214 126.845 29.5214Z" fill="#BDF9D3"/>
</svg>
