<svg width="189" height="189" viewBox="0 0 189 189" fill="none" xmlns="http://www.w3.org/2000/svg">
<path d="M87.845 62.0434C87.5501 62.0246 87.2739 61.8922 87.0745 61.674C86.8752 61.4558 86.7683 61.1688 86.7763 60.8734L86.8583 49.7405C86.8565 49.5857 86.8858 49.4321 86.9446 49.2888C87.0034 49.1456 87.0904 49.0157 87.2005 48.9068C87.3106 48.7979 87.4414 48.7122 87.5853 48.655C87.7292 48.5977 87.8831 48.57 88.0379 48.5735L88.9278 48.6133C89.0821 48.6235 89.2327 48.6647 89.3706 48.7346C89.5085 48.8045 89.6308 48.9016 89.7302 49.0199C89.8296 49.1383 89.9041 49.2756 89.949 49.4235C89.994 49.5714 90.0086 49.7269 89.992 49.8806L89.02 60.9736C88.9997 61.269 88.8661 61.545 88.6472 61.7443C88.4283 61.9436 88.1409 62.0507 87.845 62.0434Z" fill="#5CEEA7"/>
<path d="M82.6404 63.249C82.4586 63.3119 82.2593 63.3 82.0864 63.216C81.9134 63.1319 81.7809 62.9826 81.718 62.8008L79.2199 55.9961C79.1474 55.8026 79.1546 55.5883 79.24 55.4002C79.3253 55.2121 79.4819 55.0655 79.6752 54.9927L80.2293 54.7964C80.3244 54.7637 80.4253 54.751 80.5255 54.7593C80.6258 54.7675 80.7232 54.7965 80.8117 54.8443C80.9002 54.8921 80.9778 54.9577 81.0397 55.037C81.1016 55.1163 81.1463 55.2076 81.1711 55.3051L83.1152 62.306C83.169 62.4941 83.15 62.6955 83.062 62.8703C82.9741 63.045 82.8235 63.1802 82.6404 63.249Z" fill="#5CEEA7"/>
<path d="M79.9 67.3712C79.5338 67.8716 78.7512 67.9029 78.1259 67.4421L67.0225 59.2617C66.3593 58.773 66.1303 57.9233 66.5187 57.3926L67.0601 56.6529C67.4485 56.1221 68.298 56.1237 68.9291 56.6568L79.4908 65.577C80.0857 66.0794 80.2661 66.8708 79.9 67.3712Z" fill="#5CEEA7"/>
<path d="M157.889 85.0469L89.3856 68.7397C86.847 68.1354 84.2992 69.7035 83.6949 72.2421L73.621 114.561C73.0166 117.099 74.5847 119.647 77.1233 120.251L145.627 136.559C148.166 137.163 150.713 135.595 151.318 133.056L161.392 90.7377C161.996 88.1991 160.428 85.6513 157.889 85.0469Z" fill="#5CEEA7"/>
<path d="M160.44 94.732L82.7436 76.2363L80.6356 85.0918L158.332 103.587L160.44 94.732Z" fill="#7077D8"/>
<path d="M147.986 127.81L132.537 124.133C132.488 124.121 132.439 124.151 132.427 124.2L131.448 128.312C131.436 128.361 131.467 128.411 131.516 128.422L146.965 132.1C147.014 132.112 147.064 132.081 147.076 132.032L148.054 127.921C148.066 127.871 148.036 127.822 147.986 127.81Z" fill="#F7FAFD"/>
<path d="M118.2 62.8343L38.4139 90.3195C35.9466 91.1694 34.6355 93.8585 35.4855 96.3258L52.6704 146.212C53.5203 148.679 56.2094 149.99 58.6767 149.14L138.463 121.655C140.93 120.805 142.241 118.116 141.392 115.649L124.207 65.7628C123.357 63.2955 120.668 61.9844 118.2 62.8343Z" fill="#252E6C"/>
<path d="M116.543 69.2837L107.236 72.4897C105.755 72.9997 104.969 74.6132 105.479 76.0935L108.685 85.4003C109.195 86.8807 110.808 87.6673 112.289 87.1574L121.595 83.9513C123.076 83.4414 123.862 81.8279 123.352 80.3475L120.146 71.0407C119.636 69.5604 118.023 68.7737 116.543 69.2837Z" fill="#F7FAFD"/>
<path d="M83.9454 113.886L52.9886 124.55C52.8999 124.581 52.8528 124.677 52.8833 124.766L54.4601 129.343C54.4907 129.432 54.5873 129.479 54.676 129.449L85.6329 118.784C85.7215 118.754 85.7687 118.657 85.7381 118.569L84.1613 113.991C84.1307 113.903 84.0341 113.855 83.9454 113.886Z" fill="#F7FAFD"/>
<path d="M100.427 118.789L56.2463 134.008C56.1576 134.039 56.1105 134.135 56.1411 134.224L57.7179 138.801C57.7484 138.89 57.8451 138.937 57.9338 138.907L102.114 123.687C102.203 123.657 102.25 123.56 102.22 123.471L100.643 118.894C100.612 118.805 100.516 118.758 100.427 118.789Z" fill="#F7FAFD"/>
<path d="M127.205 158.566C127.205 158.566 127.276 148.615 127.276 142.453C127.276 138.871 124.227 135 119.326 135C103.316 135 20.6465 135.116 20.6465 135.116C20.6465 135.116 18.503 162.296 36.0292 162.444C53.1866 162.589 53.6673 149.429 53.6673 149.429C53.6673 149.429 54.4292 163.169 68.3997 163.169C84.6794 163.169 86.5574 151.031 87.0849 147.9C87.1392 147.578 87.4502 145.533 87.5043 145.211C87.7846 143.542 88.2696 140.586 91.7418 140.486C97.5871 140.317 116.026 140.346 116.026 140.346C116.026 140.346 120.982 139.693 121.005 146.643C121.027 153.146 121.071 158.564 121.071 158.564L127.205 158.566Z" fill="#7077D8"/>
<path d="M81.2006 141.096C81.2006 141.096 81.3447 156.44 70.4318 157.253C56.1027 158.321 58.0596 141.096 58.0596 141.096H81.2006Z" fill="#C8CEFC"/>
<path d="M49.6032 141.096C49.6032 141.096 49.6033 157.297 38.173 157.297C25.5663 157.297 26.1816 141.096 26.1816 141.096H49.6032Z" fill="#C8CEFC"/>
</svg>
