<svg width="190" height="190" viewBox="0 0 190 190" fill="none" xmlns="http://www.w3.org/2000/svg">
<path d="M73.5905 38.2017C106.465 30.2158 121.474 51.1137 121.474 51.1137C177.511 38.3089 173.5 73.2846 173.5 85.5002C173.5 96.0192 160.5 109.65 160.5 109.65C160.5 109.65 120.039 121.934 115 131.83C109.961 141.726 101.625 151.266 80.0102 151.266C58.396 151.266 53.9855 127.714 53.9855 127.714C53.9855 127.714 33.3724 144.406 18.8669 131.83C4.36139 119.254 18.8669 109.65 18.8669 109.65C18.8669 109.65 4.51407 111.022 3.13987 96.0192C2.69816 91.1968 3.55517 81.0353 5.66691 77.7307C8.5831 73.1672 15.1029 67.3156 22.5738 66.5021C27.9455 65.9171 34.1694 67.5243 38.9615 70.0171L45.243 73.2846C45.243 73.2846 47.468 44.5472 73.5905 38.2017Z" fill="#E6E9FC"/>
<path d="M27.6035 89.4731C29.4191 89.4731 30.8909 88.0037 30.8909 86.1911C30.8909 84.3786 29.4191 82.9092 27.6035 82.9092C25.788 82.9092 24.3162 84.3786 24.3162 86.1911C24.3162 88.0037 25.788 89.4731 27.6035 89.4731Z" fill="#C8CEFC"/>
<path d="M145.135 72.8773C146.979 72.8773 148.474 71.3846 148.474 69.5432C148.474 67.7018 146.979 66.209 145.135 66.209C143.29 66.209 141.795 67.7018 141.795 69.5432C141.795 71.3846 143.29 72.8773 145.135 72.8773Z" fill="#C8CEFC"/>
<path d="M78.7793 111.307C80.6237 111.307 82.1189 109.814 82.1189 107.973C82.1189 106.131 80.6237 104.639 78.7793 104.639C76.9348 104.639 75.4396 106.131 75.4396 107.973C75.4396 109.814 76.9348 111.307 78.7793 111.307Z" fill="#C8CEFC"/>
<path d="M84.7439 66.0015C89.0257 66.0015 92.4967 62.785 92.4967 58.8172C92.4967 54.8494 89.0257 51.6328 84.7439 51.6328C80.4621 51.6328 76.9911 54.8494 76.9911 58.8172C76.9911 62.785 80.4621 66.0015 84.7439 66.0015Z" fill="#C8CEFC"/>
<path d="M39.4102 127.532C40.2129 127.532 40.8636 126.882 40.8636 126.081C40.8636 125.28 40.2129 124.63 39.4102 124.63C38.6075 124.63 37.9568 125.28 37.9568 126.081C37.9568 126.882 38.6075 127.532 39.4102 127.532Z" fill="#C8CEFC"/>
<path d="M62.9263 79.6139C63.7289 79.6139 64.3796 78.9643 64.3796 78.1629C64.3796 77.3615 63.7289 76.7119 62.9263 76.7119C62.1236 76.7119 61.4729 77.3615 61.4729 78.1629C61.4729 78.9643 62.1236 79.6139 62.9263 79.6139Z" fill="#C8CEFC"/>
<path d="M113.523 95.4365C116.077 95.4365 118.147 93.3693 118.147 90.8193C118.147 88.2693 116.077 86.2021 113.523 86.2021C110.969 86.2021 108.898 88.2693 108.898 90.8193C108.898 93.3693 110.969 95.4365 113.523 95.4365Z" fill="#C8CEFC"/>
<path d="M48.9154 77.8379H48.3672V81.3268H48.9154V77.8379Z" fill="#252E6C"/>
<path d="M56.2841 77.8379H55.7356V81.3268H56.2841V77.8379Z" fill="#252E6C"/>
<path fill-rule="evenodd" clip-rule="evenodd" d="M48.0816 81.1025H53.0936V86.1906H48.0816C47.9805 86.1903 47.8836 86.15 47.8121 86.0786C47.7405 86.0071 47.7002 85.9103 47.7 85.8093V81.4839C47.7002 81.3829 47.7405 81.2861 47.8121 81.2146C47.8836 81.1432 47.9805 81.1029 48.0816 81.1025Z" fill="#252E6C"/>
<path fill-rule="evenodd" clip-rule="evenodd" d="M56.586 81.1025H52.334V86.1906H56.586C56.6872 86.1903 56.7841 86.15 56.8556 86.0786C56.9271 86.0072 56.9674 85.9103 56.9677 85.8093V81.4839C56.9674 81.3829 56.9271 81.2861 56.8556 81.2146C56.7841 81.1432 56.6872 81.1029 56.586 81.1025Z" fill="#252E6C"/>
<path fill-rule="evenodd" clip-rule="evenodd" d="M52.334 27.0879C63.0965 27.0879 73.449 33.1741 73.7702 44.381C74.0665 54.7145 64.4728 63.9077 61.091 70.3344H52.334V27.0879Z" fill="#7077D8"/>
<path fill-rule="evenodd" clip-rule="evenodd" d="M52.334 27.0879C60.2569 27.0879 70.9097 33.6521 70.3527 45.0704C69.9048 54.266 64.0299 61.5646 58.7807 70.3344H52.334V27.0879Z" fill="#C8CEFC"/>
<path fill-rule="evenodd" clip-rule="evenodd" d="M52.334 27.0879C57.9656 27.0879 65.5372 33.6521 65.1417 45.0704C64.8231 54.266 60.6474 61.5646 56.9162 70.3344H52.334V27.0879Z" fill="#7077D8"/>
<path fill-rule="evenodd" clip-rule="evenodd" d="M52.3342 27.0879C41.5711 27.0879 31.2191 33.1741 30.8976 44.381C30.6014 54.7145 40.1952 63.9078 43.577 70.3344H52.3342V27.0879Z" fill="#7077D8"/>
<path fill-rule="evenodd" clip-rule="evenodd" d="M52.3342 27.0879C44.4107 27.0879 33.7581 33.6521 34.3149 45.0704C34.7631 54.266 40.6378 61.5646 45.8872 70.3344H52.3342V27.0879Z" fill="#C8CEFC"/>
<path fill-rule="evenodd" clip-rule="evenodd" d="M52.3341 27.0879C46.702 27.0879 39.1304 33.6521 39.5261 45.0704C39.8447 54.266 44.0205 61.5646 47.7514 70.3344H52.3341L52.3341 27.0879Z" fill="#7077D8"/>
<path fill-rule="evenodd" clip-rule="evenodd" d="M52.3338 27.0879C49.1041 27.0879 44.7617 33.6521 44.9885 45.0704C45.1713 54.266 47.5661 61.5646 49.7057 70.3344H54.9617C57.1013 61.5646 59.4961 54.266 59.6789 45.0704C59.9057 33.6521 55.5634 27.0879 52.3338 27.0879Z" fill="#C8CEFC"/>
<path fill-rule="evenodd" clip-rule="evenodd" d="M52.3341 70.334H43.5319L47.5552 78.1785H52.3341V70.334Z" fill="#929AEA"/>
<path fill-rule="evenodd" clip-rule="evenodd" d="M52.334 70.334H61.1359L57.1125 78.1785H52.334V70.334Z" fill="#929AEA"/>
<path d="M126.337 58.8876L46.1215 75.4424C43.5658 75.9699 41.9216 78.4693 42.449 81.0249L52.7809 131.087C53.3083 133.643 55.8077 135.287 58.3634 134.76L138.579 118.205C141.134 117.677 142.779 115.178 142.251 112.622L131.919 62.5601C131.392 60.0044 128.892 58.3602 126.337 58.8876Z" fill="#252E6C"/>
<path d="M123.982 64.8983L114.744 66.8049C113.21 67.1214 112.224 68.621 112.54 70.1544L114.447 79.3929C114.764 80.9263 116.263 81.9128 117.797 81.5964L127.035 79.6897C128.568 79.3733 129.555 77.8736 129.239 76.3402L127.332 67.1018C127.015 65.5683 125.516 64.5818 123.982 64.8983Z" fill="#F7FAFD"/>
<path d="M132.725 102.331L122.887 104.362C121.254 104.698 120.212 106.335 120.559 108.017L122.65 118.151C122.997 119.833 124.602 120.923 126.235 120.586L136.073 118.556C137.706 118.219 138.748 116.582 138.401 114.9L136.31 104.767C135.962 103.085 134.357 101.994 132.725 102.331Z" fill="#F7FAFD"/>
<path d="M87.005 103.895L55.8332 110.328C55.7309 110.349 55.6652 110.449 55.6863 110.551L56.6294 115.121C56.6505 115.223 56.7504 115.289 56.8527 115.268L88.0245 108.835C88.1267 108.814 88.1925 108.714 88.1714 108.611L87.2283 104.042C87.2072 103.939 87.1072 103.874 87.005 103.895Z" fill="#F7FAFD"/>
<path d="M102.309 110.681L57.8017 119.866C57.6994 119.887 57.6337 119.987 57.6548 120.089L58.5979 124.659C58.619 124.761 58.7189 124.827 58.8212 124.806L103.328 115.621C103.431 115.599 103.496 115.499 103.475 115.397L102.532 110.828C102.511 110.725 102.411 110.66 102.309 110.681Z" fill="#F7FAFD"/>
<path d="M129.411 95C138.161 95 145.298 102.137 145.298 110.888C145.298 119.638 138.161 126.776 129.411 126.776C120.66 126.776 113.523 119.638 113.523 110.888C113.523 102.137 120.66 95 129.411 95ZM123.373 115.214C122.884 115.679 122.884 116.461 123.373 116.925C123.772 117.368 124.551 117.458 125.084 116.925L129.411 112.623C132.038 114.677 134.021 118.511 135.448 116.925C135.937 116.461 135.937 115.679 135.448 115.214L131.146 110.888L135.448 106.561C135.937 106.097 135.937 105.315 135.448 104.85C134.984 104.361 134.201 104.361 133.737 104.85L129.411 109.152L125.084 104.85C124.62 104.362 123.838 104.362 123.373 104.85C122.884 105.315 122.884 106.097 123.373 106.561L127.675 110.888L123.373 115.214ZM143.988 122.009C144.465 121.531 145.239 121.531 145.716 122.009L154.88 131.173C155.358 131.65 155.358 132.424 154.88 132.901L151.424 136.358C150.946 136.835 150.173 136.835 149.696 136.358L140.531 127.193C140.054 126.716 140.054 125.942 140.531 125.465L143.988 122.009Z" fill="#5CEEA7"/>
</svg>
