<svg width="196" height="130" viewBox="0 0 196 130" fill="none" xmlns="http://www.w3.org/2000/svg">
<path d="M60.2871 71.5914C60.2871 71.5914 34.6117 75.329 39.7406 56.0608C39.7406 56.0608 16.4615 60.808 19.12 36.9936C19.12 36.9936 5.11732 42.5823 1.54386 29.9865C-1.02758 20.9227 3.55108 14.5433 13.8611 13.2409C13.8611 13.2409 16.4615 -0.00628579 31.4209 0.778673C46.238 1.55616 46.5723 14.2086 46.5723 14.2086C46.5723 14.2086 59.1934 3.39327 64.4323 18.6603C64.4323 18.6603 79.4347 11.9345 82.7685 25.1972C86.1024 38.4598 70.6237 39.9703 70.6237 39.9703L60.2871 71.5914Z" fill="#252E6C"/>
<path d="M42.4228 30.5008C42.9484 30.5008 43.3745 30.074 43.3745 29.5475C43.3745 29.021 42.9484 28.5942 42.4228 28.5942C41.8973 28.5942 41.4712 29.021 41.4712 29.5475C41.4712 30.074 41.8973 30.5008 42.4228 30.5008Z" fill="#7077D8"/>
<path d="M43.3728 61.8917C43.8983 61.8917 44.3244 61.4649 44.3244 60.9384C44.3244 60.4119 43.8983 59.9851 43.3728 59.9851C42.8472 59.9851 42.4211 60.4119 42.4211 60.9384C42.4211 61.4649 42.8472 61.8917 43.3728 61.8917Z" fill="#7077D8"/>
<path d="M31.7353 41.518C33.013 41.518 34.0489 40.4803 34.0489 39.2003C34.0489 37.9203 33.013 36.8827 31.7353 36.8827C30.4575 36.8827 29.4216 37.9203 29.4216 39.2003C29.4216 40.4803 30.4575 41.518 31.7353 41.518Z" fill="#7077D8"/>
<path d="M58.7672 23.8121C60.0653 23.8121 61.1177 22.758 61.1177 21.4576C61.1177 20.1572 60.0653 19.103 58.7672 19.103C57.4691 19.103 56.4167 20.1572 56.4167 21.4576C56.4167 22.758 57.4691 23.8121 58.7672 23.8121Z" fill="#7077D8"/>
<path d="M63.5638 37.234C64.862 37.234 65.9143 36.1798 65.9143 34.8794C65.9143 33.5791 64.862 32.5249 63.5638 32.5249C62.2657 32.5249 61.2134 33.5791 61.2134 34.8794C61.2134 36.1798 62.2657 37.234 63.5638 37.234Z" fill="#7077D8"/>
<path d="M32.5624 18.9564C35.5759 18.9564 38.0189 16.685 38.0189 13.8829C38.0189 11.0809 35.5759 8.80945 32.5624 8.80945C29.5489 8.80945 27.106 11.0809 27.106 13.8829C27.106 16.685 29.5489 18.9564 32.5624 18.9564Z" fill="#7077D8"/>
<path d="M17.2074 28.5691C17.7723 28.5691 18.2303 28.1103 18.2303 27.5444C18.2303 26.9785 17.7723 26.5198 17.2074 26.5198C16.6425 26.5198 16.1846 26.9785 16.1846 27.5444C16.1846 28.1103 16.6425 28.5691 17.2074 28.5691Z" fill="#7077D8"/>
<path d="M85.5939 93.842V91.2267L81.0537 91.6814L77.1945 93.842L75.3783 97.9351L74.5838 103.222L76.6268 107.032L80.5995 110.329L84.5723 111.466L90.4745 112.034L96.6041 112.603L99.6687 114.195L101.031 117.289L100.463 121.358L98.7606 123.86L95.4689 125.62H90.3613H57.8982V128.932H94.5608L99.2146 128.067L103.187 124.651L104.89 119.88L104.095 114.308L100.804 110.784L95.3554 109.209L87.7505 108.197L82.1889 106.577L78.8969 102.37L79.2375 97.5942L82.1889 94.7514L85.5939 93.842Z" fill="#929AEA"/>
<path d="M57.8984 124.651H94.9016C94.9016 124.651 99.9507 124.314 100.009 118.288C100.064 112.676 93.0855 112.944 93.0855 112.944C93.0855 112.944 73.6758 114.195 73.5623 102.029C73.4488 89.8622 84.686 90.0897 84.686 90.0897L84.5725 91.5678C84.5725 91.5678 75.0393 91.8684 75.3784 102.029C75.7303 112.569 93.0855 111.239 93.0855 111.239C93.0855 111.239 101.939 111.011 101.939 118.288C101.939 125.565 95.0151 126.304 95.0151 126.304H57.8984V124.651Z" fill="#7077D8"/>
<path d="M84.4587 92.9323C84.4587 92.9323 77.0808 93.8419 77.5348 101.346C77.9889 108.851 86.5312 109.577 91.1225 109.575C95.8234 109.572 103.935 109.735 103.982 118.743C104.031 128.24 93.5392 128.294 93.5392 128.294H58.2388V130H93.7663C93.7663 130 106.138 130.228 106.138 118.743C106.138 106.411 91.8628 107.137 91.8628 107.137C91.8628 107.137 79.9185 107.186 79.9185 101.233C79.9185 95.0294 84.4587 95.0926 84.4587 95.0926V92.9323Z" fill="#C8CEFC"/>
<path d="M26.802 87.9499C26.802 87.9499 63.6 75.417 79.7414 57.938C95.8828 40.4591 107.058 30.6217 125.344 30.452C143.63 30.2824 165.077 64.7699 165.077 64.7699C165.077 64.7699 182.692 84.2185 195.5 91.3422H26.802V87.9499Z" fill="#252E6C"/>
<path d="M112.326 83.769V39.6686C112.326 39.6686 105.85 28.6585 98.8254 27.7046C91.8007 26.7506 95.8843 83.769 95.8843 83.769H112.326Z" fill="#C8CEFC"/>
<path d="M25.3735 93.9503V51.5679C25.3735 51.0336 25.4786 50.5045 25.6828 50.0109C25.8869 49.5173 26.1861 49.0688 26.5634 48.691C26.9406 48.3133 27.3884 48.0137 27.8812 47.8093C28.374 47.605 28.9022 47.4999 29.4356 47.5L65.6361 47.5114L65.5841 27.6298L92.7166 27.6381C92.7166 27.6381 101.743 26.9205 101.887 29.217C102.03 31.5135 101.887 40.8432 101.887 40.8432H112.776C112.776 40.8432 114.245 40.7355 114.245 42.5655C114.245 44.3956 112.955 44.3597 112.955 44.3597H102.102V47.6251H112.311C112.311 47.6251 114.245 47.4098 114.245 48.8092C114.245 50.2087 113.779 50.6034 112.346 50.7469C110.914 50.8904 102.03 50.7469 102.03 50.7469V54.1199H112.275C112.275 54.1199 114.209 54.2635 114.245 55.627C114.281 56.9906 114.138 57.5647 112.275 57.7082C110.412 57.8518 102.03 57.7082 102.03 57.7082V61.153H112.132C112.132 61.153 114.218 60.7942 114.249 62.5883C114.281 64.3825 113.206 64.526 112.275 64.5978C111.343 64.6696 102.03 64.5978 102.03 64.5978V67.8991H112.132C112.132 67.8991 114.148 67.9708 114.25 69.9085C114.352 71.8462 112.203 71.7744 112.203 71.7744H102.03V75.3628H112.132C112.132 75.3628 114.226 75.1475 114.254 77.1569C114.281 79.1664 112.06 79.0946 112.06 79.0946H102.102V82.4676H112.132C112.132 82.4676 114.227 82.1805 114.254 83.8312C114.281 85.4818 113.349 85.8406 112.346 85.9124C111.343 85.9842 102.317 85.9124 102.317 85.9124V93.4155L25.3735 93.9503Z" fill="#929AEA"/>
<path d="M94.0986 86.1321H75.7104V93.6093H94.0986V86.1321Z" fill="#252E6C"/>
<path d="M76.5578 82.5771H93.5185L97.3332 86.3984H72.7002L76.5578 82.5771Z" fill="#161D50"/>
<path d="M89.5086 39.0178H85.4981C85.0295 39.0178 84.6497 39.3983 84.6497 39.8677V43.5747C84.6497 44.0441 85.0295 44.4246 85.4981 44.4246H89.5086C89.9772 44.4246 90.3571 44.0441 90.3571 43.5747V39.8677C90.3571 39.3983 89.9772 39.0178 89.5086 39.0178Z" fill="#E6E9FC"/>
<path d="M81.5855 49.5441H77.5476C77.0866 49.5441 76.7129 49.9184 76.7129 50.3802V54.1147C76.7129 54.5764 77.0866 54.9508 77.5476 54.9508H81.5855C82.0465 54.9508 82.4202 54.5764 82.4202 54.1147V50.3802C82.4202 49.9184 82.0465 49.5441 81.5855 49.5441Z" fill="#E6E9FC"/>
<path d="M97.4605 49.5441H93.4201C92.9598 49.5441 92.5867 49.9179 92.5867 50.379V54.1159C92.5867 54.577 92.9598 54.9508 93.4201 54.9508H97.4605C97.9208 54.9508 98.294 54.577 98.294 54.1159V50.379C98.294 49.9179 97.9208 49.5441 97.4605 49.5441Z" fill="#E6E9FC"/>
<path d="M73.6547 59.9683H69.6044C69.1468 59.9683 68.7759 60.3398 68.7759 60.7982V64.5451C68.7759 65.0034 69.1468 65.375 69.6044 65.375H73.6547C74.1122 65.375 74.4832 65.0034 74.4832 64.5451V60.7982C74.4832 60.3398 74.1122 59.9683 73.6547 59.9683Z" fill="#E6E9FC"/>
<path d="M81.5871 59.9683H77.546C77.0859 59.9683 76.7129 60.3419 76.7129 60.8028V64.5405C76.7129 65.0014 77.0859 65.375 77.546 65.375H81.5871C82.0472 65.375 82.4202 65.0014 82.4202 64.5405V60.8028C82.4202 60.3419 82.0472 59.9683 81.5871 59.9683Z" fill="#E6E9FC"/>
<path d="M60.8633 70.1219H48.8292C48.3846 70.1219 48.0242 70.483 48.0242 70.9284V74.7223C48.0242 75.1676 48.3846 75.5287 48.8292 75.5287H60.8633C61.3079 75.5287 61.6683 75.1676 61.6683 74.7223V70.9284C61.6683 70.483 61.3079 70.1219 60.8633 70.1219Z" fill="#E6E9FC"/>
<path d="M89.5249 70.1219H85.4818C85.0222 70.1219 84.6497 70.4951 84.6497 70.9555V74.6951C84.6497 75.1555 85.0222 75.5287 85.4818 75.5287H89.5249C89.9845 75.5287 90.3571 75.1555 90.3571 74.6951V70.9555C90.3571 70.4951 89.9845 70.1219 89.5249 70.1219Z" fill="#E6E9FC"/>
<path d="M97.4651 59.9683H93.4155C92.9577 59.9683 92.5867 60.34 92.5867 60.7985V64.5447C92.5867 65.0033 92.9577 65.375 93.4155 65.375H97.4651C97.9229 65.375 98.294 65.0033 98.294 64.5447V60.7985C98.294 60.34 97.9229 59.9683 97.4651 59.9683Z" fill="#E6E9FC"/>
<path d="M44.6072 60.5148H32.5731C32.1285 60.5148 31.7681 60.8758 31.7681 61.3212V65.1151C31.7681 65.5605 32.1285 65.9215 32.5731 65.9215H44.6072C45.0518 65.9215 45.4123 65.5605 45.4123 65.1151V61.3212C45.4123 60.8758 45.0518 60.5148 44.6072 60.5148Z" fill="#E6E9FC"/>
<path d="M46.8994 81.0656H42.8889C42.4204 81.0656 42.0405 81.4461 42.0405 81.9154V85.6224C42.0405 86.0918 42.4204 86.4723 42.8889 86.4723H46.8994C47.368 86.4723 47.7478 86.0918 47.7478 85.6224V81.9154C47.7478 81.4461 47.368 81.0656 46.8994 81.0656Z" fill="#E6E9FC"/>
<path d="M82.4202 63.2181H76.7129V64.019H82.4202V63.2181Z" fill="#161D50"/>
<path d="M74.4832 63.2181H68.7759V64.019H74.4832V63.2181Z" fill="#161D50"/>
<path d="M61.6683 73.5498H48.0242V74.3507H61.6683V73.5498Z" fill="#161D50"/>
<path d="M45.4123 63.9426H31.7681V64.7435H45.4123V63.9426Z" fill="#161D50"/>
<path d="M98.294 63.2181H92.5867V64.019H98.294V63.2181Z" fill="#161D50"/>
<path d="M98.294 52.8229H92.5867V53.6238H98.294V52.8229Z" fill="#161D50"/>
<path d="M90.3571 42.3521H84.6497V43.153H90.3571V42.3521Z" fill="#161D50"/>
<path d="M47.7478 84.1848H42.0405V84.9857H47.7478V84.1848Z" fill="#161D50"/>
<path d="M90.3571 73.5498H84.6497V74.3507H90.3571V73.5498Z" fill="#161D50"/>
<path d="M82.4202 52.8229H76.7129V53.6238H82.4202V52.8229Z" fill="#161D50"/>
<path d="M159.539 49.9377H128.513V69.0188H159.539V49.9377Z" fill="#5CEEA7"/>
<path d="M155.135 45.5264H132.916C130.484 45.5264 128.513 47.5014 128.513 49.9377C128.513 52.3741 130.484 54.3491 132.916 54.3491H155.135C157.567 54.3491 159.539 52.3741 159.539 49.9377C159.539 47.5014 157.567 45.5264 155.135 45.5264Z" fill="#BDF9D3"/>
<path d="M155.039 46.511H133.013C131.207 46.511 129.743 47.9776 129.743 49.7866V49.9403C129.743 51.7493 131.207 53.2159 133.013 53.2159H155.039C156.845 53.2159 158.309 51.7493 158.309 49.9403V49.7866C158.309 47.9776 156.845 46.511 155.039 46.511Z" fill="#EDF9F1"/>
<path d="M170.378 113.192L102.706 113.192C102.042 113.192 101.384 113.061 100.77 112.806C100.156 112.552 99.5978 112.178 99.1278 111.707C98.6579 111.237 98.2851 110.678 98.0308 110.063C97.7765 109.448 97.6455 108.788 97.6455 108.123V85.3037L170.378 85.3037V113.192Z" fill="#5CEEA7"/>
<path d="M107.188 96.2654L160.836 96.2654C166.106 96.2654 170.378 91.9858 170.378 86.7068V82.8806C170.378 77.6015 166.106 73.322 160.836 73.322H107.188C101.918 73.322 97.6455 77.6015 97.6455 82.8806V86.7068C97.6455 91.9858 101.918 96.2654 107.188 96.2654Z" fill="#BDF9D3"/>
<path d="M107.301 93.8169L160.723 93.8169C164.751 93.8169 168.017 90.5456 168.017 86.5102V83.0772C168.017 79.0419 164.751 75.7706 160.723 75.7706H107.301C103.272 75.7706 100.007 79.0419 100.007 83.0772V86.5102C100.007 90.5456 103.272 93.8169 107.301 93.8169Z" fill="#EDF9F1"/>
<path d="M109.641 93.8168C109.641 93.8168 109.722 91.0334 107.278 91.0484C104.693 91.0641 104.856 93.8168 104.856 93.8168V113.192H104.105V93.7785C104.105 93.7785 103.865 90.1721 107.178 90.1721C110.617 90.1721 110.452 93.8168 110.452 93.8168H109.641" fill="#252E6C"/>
<path d="M117.51 93.8168C117.51 93.8168 117.592 91.0334 115.147 91.0484C112.562 91.0641 112.726 93.8168 112.726 93.8168V113.192H111.975V93.7785C111.975 93.7785 111.735 90.1721 115.048 90.1721C118.486 90.1721 118.322 93.8168 118.322 93.8168H117.51" fill="#252E6C"/>
<path d="M104.528 98.4921H112.328V97.8541H104.528V98.4921Z" fill="#252E6C"/>
<path d="M104.528 101.82H112.328V101.182H104.528V101.82Z" fill="#252E6C"/>
<path d="M104.528 105.129H112.328V104.491H104.528V105.129Z" fill="#252E6C"/>
<path d="M149.384 53.2086C149.384 53.2086 149.302 50.4253 151.747 50.4402C154.332 50.456 154.168 53.2086 154.168 53.2086V75.768H154.919V53.1704C154.919 53.1704 155.159 49.564 151.846 49.564C148.408 49.564 148.572 53.2086 148.572 53.2086H149.384" fill="#252E6C"/>
<path d="M141.515 53.2086C141.515 53.2086 141.433 50.4253 143.877 50.4402C146.462 50.456 146.299 53.2086 146.299 53.2086V75.768H147.05V53.1704C147.05 53.1704 147.29 49.564 143.977 49.564C140.538 49.564 140.703 53.2086 140.703 53.2086H141.515Z" fill="#252E6C"/>
<path d="M154.497 56.1575H146.696V56.7954H154.497V56.1575Z" fill="#252E6C"/>
<path d="M154.497 59.4856H146.696V60.1235H154.497V59.4856Z" fill="#252E6C"/>
<path d="M154.497 62.7947H146.696V63.4326H154.497V62.7947Z" fill="#252E6C"/>
<path d="M154.497 66.1228H146.696V66.7607H154.497V66.1228Z" fill="#252E6C"/>
<path d="M154.497 69.425H146.696V70.0629H154.497V69.425Z" fill="#252E6C"/>
<path d="M154.497 72.6865H146.696V73.3244H154.497V72.6865Z" fill="#252E6C"/>
<path d="M136.471 47.0494C138.239 47.0494 139.672 45.7169 139.672 44.0731C139.672 42.4293 138.239 41.0968 136.471 41.0968C134.704 41.0968 133.271 42.4293 133.271 44.0731C133.271 45.7169 134.704 47.0494 136.471 47.0494Z" fill="#BDF9D3"/>
<path d="M159.578 18.6305C162.059 18.6305 164.07 16.7607 164.07 14.4541C164.07 12.1475 162.059 10.2777 159.578 10.2777C157.097 10.2777 155.086 12.1475 155.086 14.4541C155.086 16.7607 157.097 18.6305 159.578 18.6305Z" fill="#BDF9D3"/>
<path d="M149.487 33.9838C151.186 33.9838 152.563 32.7031 152.563 31.1233C152.563 29.5434 151.186 28.2627 149.487 28.2627C147.788 28.2627 146.41 29.5434 146.41 31.1233C146.41 32.7031 147.788 33.9838 149.487 33.9838Z" fill="#BDF9D3"/>
<path d="M118.647 14.2937C120.346 14.2937 121.723 13.0129 121.723 11.4331C121.723 9.85323 120.346 8.57251 118.647 8.57251C116.948 8.57251 115.571 9.85323 115.571 11.4331C115.571 13.0129 116.948 14.2937 118.647 14.2937Z" fill="#BDF9D3"/>
<path d="M135.278 24.3861C136.535 24.3861 137.554 23.4385 137.554 22.2696C137.554 21.1007 136.535 20.1531 135.278 20.1531C134.021 20.1531 133.002 21.1007 133.002 22.2696C133.002 23.4385 134.021 24.3861 135.278 24.3861Z" fill="#BDF9D3"/>
<path d="M167.071 39.8934C168.328 39.8934 169.347 38.9458 169.347 37.7769C169.347 36.608 168.328 35.6604 167.071 35.6604C165.814 35.6604 164.794 36.608 164.794 37.7769C164.794 38.9458 165.814 39.8934 167.071 39.8934Z" fill="#BDF9D3"/>
<path d="M126.688 29.3517C127.43 29.3517 128.032 28.7925 128.032 28.1027C128.032 27.4129 127.43 26.8538 126.688 26.8538C125.947 26.8538 125.345 27.4129 125.345 28.1027C125.345 28.7925 125.947 29.3517 126.688 29.3517Z" fill="#BDF9D3"/>
</svg>
