<svg width="190" height="189" viewBox="0 0 190 189" fill="none" xmlns="http://www.w3.org/2000/svg">
<path d="M80.0905 43.2017C112.965 35.2158 127.974 56.1137 127.974 56.1137C184.011 43.3089 180 78.2846 180 90.5002C180 101.019 167 114.65 167 114.65C167 114.65 126.539 126.934 121.5 136.83C116.461 146.726 108.125 156.266 86.5102 156.266C64.896 156.266 60.4855 132.714 60.4855 132.714C60.4855 132.714 39.8724 149.406 25.3669 136.83C10.8614 124.254 25.3669 114.65 25.3669 114.65C25.3669 114.65 11.0141 116.022 9.63987 101.019C9.19816 96.1968 10.0552 86.0353 12.1669 82.7307C15.0831 78.1672 21.6029 72.3156 29.0738 71.5021C34.4455 70.9171 40.6694 72.5243 45.4615 75.0171L51.743 78.2846C51.743 78.2846 53.968 49.5472 80.0905 43.2017Z" fill="#E6E9FC"/>
<path d="M34.1035 94.4731C35.9191 94.4731 37.3909 93.0037 37.3909 91.1911C37.3909 89.3786 35.9191 87.9092 34.1035 87.9092C32.288 87.9092 30.8162 89.3786 30.8162 91.1911C30.8162 93.0037 32.288 94.4731 34.1035 94.4731Z" fill="#C8CEFC"/>
<path d="M151.635 77.8773C153.479 77.8773 154.974 76.3846 154.974 74.5432C154.974 72.7018 153.479 71.209 151.635 71.209C149.79 71.209 148.295 72.7018 148.295 74.5432C148.295 76.3846 149.79 77.8773 151.635 77.8773Z" fill="#C8CEFC"/>
<path d="M85.2793 116.307C87.1237 116.307 88.6189 114.814 88.6189 112.973C88.6189 111.131 87.1237 109.639 85.2793 109.639C83.4348 109.639 81.9396 111.131 81.9396 112.973C81.9396 114.814 83.4348 116.307 85.2793 116.307Z" fill="#C8CEFC"/>
<path d="M45.9102 132.532C46.7129 132.532 47.3636 131.882 47.3636 131.081C47.3636 130.28 46.7129 129.63 45.9102 129.63C45.1075 129.63 44.4568 130.28 44.4568 131.081C44.4568 131.882 45.1075 132.532 45.9102 132.532Z" fill="#C8CEFC"/>
<path d="M69.4263 84.6139C70.2289 84.6139 70.8796 83.9643 70.8796 83.1629C70.8796 82.3615 70.2289 81.7119 69.4263 81.7119C68.6236 81.7119 67.9729 82.3615 67.9729 83.1629C67.9729 83.9643 68.6236 84.6139 69.4263 84.6139Z" fill="#C8CEFC"/>
<path d="M120.023 100.437C122.577 100.437 124.647 98.3693 124.647 95.8193C124.647 93.2693 122.577 91.2021 120.023 91.2021C117.469 91.2021 115.398 93.2693 115.398 95.8193C115.398 98.3693 117.469 100.437 120.023 100.437Z" fill="#C8CEFC"/>
<path d="M96.4655 120.023L97.4672 121.211L97.1661 130.488L56.4908 138.638C56.1907 138.698 55.8817 138.699 55.5813 138.64C55.281 138.581 54.9952 138.463 54.7403 138.293C54.4855 138.124 54.2665 137.906 54.096 137.652C53.9254 137.397 53.8066 137.112 53.7463 136.812L41.8481 77.4249C41.7874 77.125 41.7865 76.8161 41.8455 76.5159C41.9045 76.2157 42.0223 75.9302 42.192 75.6757C42.3617 75.4211 42.5801 75.2027 42.8346 75.0328C43.089 74.863 43.3746 74.7451 43.6747 74.686L86.9998 66L85.1035 72.6069C85.1035 72.6069 88.5708 79.1455 89.2419 80.2067L86.0536 93.9953L95.4702 103.32L92.484 115.279L96.4655 120.023Z" fill="#252E6C"/>
<path d="M90.2441 105.032L56.6071 111.772C56.5047 111.793 56.4384 111.893 56.4589 111.995L57.452 116.95C57.4725 117.053 57.5721 117.119 57.6744 117.099L91.3114 110.358C91.4138 110.337 91.4801 110.238 91.4596 110.135L90.4666 105.18C90.446 105.077 90.3464 105.011 90.2441 105.032Z" fill="white"/>
<path d="M92.4841 115.279L96.4652 120.024L60.6923 127.19C60.3893 127.25 60.075 127.188 59.8178 127.017C59.5607 126.846 59.3817 126.58 59.32 126.277L58.7128 123.237C58.6821 123.087 58.6814 122.932 58.7107 122.782C58.74 122.632 58.7988 122.489 58.8836 122.361C58.9685 122.234 59.0777 122.124 59.2051 122.039C59.3324 121.954 59.4754 121.895 59.6257 121.865L92.4841 115.279Z" fill="white"/>
<path d="M165.2 66.8724L149.547 125.376C149.386 125.972 148.995 126.481 148.461 126.79C147.926 127.099 147.291 127.184 146.694 127.027L100.484 114.663L105.441 107.031L104.883 105.077L103.141 98.9888L103.143 98.9831L111.336 89.8946L106.786 76.5481L115.789 66.0611L115.382 56.4953L120.396 52.4688L163.556 64.015C164.152 64.1767 164.66 64.5683 164.968 65.1039C165.276 65.6395 165.36 66.2755 165.2 66.8724Z" fill="#252E6C"/>
<path d="M155.018 67.7644L146.609 65.5142C144.593 64.9746 142.52 66.172 141.981 68.1886L139.73 76.5975C139.191 78.6142 140.388 80.6865 142.405 81.2262L150.814 83.4764C152.83 84.016 154.903 82.8186 155.442 80.802L157.693 72.3931C158.232 70.3764 157.035 68.3041 155.018 67.7644Z" fill="white"/>
<path d="M112.642 102.734L111.844 105.73C111.764 106.028 111.568 106.282 111.301 106.437C111.033 106.591 110.716 106.634 110.417 106.555L104.883 105.077L103.141 98.9883L111.822 101.309C111.969 101.348 112.108 101.416 112.229 101.509C112.351 101.602 112.453 101.718 112.529 101.85C112.605 101.983 112.655 102.129 112.674 102.281C112.693 102.432 112.682 102.586 112.642 102.734Z" fill="white"/>
<path d="M94.6321 62.3728C94.4118 62.1326 94.2932 61.8162 94.3013 61.4903C94.3094 61.1645 94.4436 60.8544 94.6757 60.6255L103.246 51.8309C103.758 51.3056 104.589 51.2931 105.076 51.8036L105.753 52.5151C106.239 53.0254 106.184 53.8534 105.632 54.3362L96.3841 62.4193C96.1423 62.6387 95.8252 62.7563 95.4988 62.7476C95.1724 62.739 94.8619 62.6047 94.6321 62.3728Z" fill="#5CEEA7"/>
<path d="M89.5707 59.3563C89.4753 59.3124 89.3895 59.25 89.3182 59.1729C89.2469 59.0958 89.1915 59.0054 89.1551 58.9068C89.1188 58.8083 89.1022 58.7035 89.1063 58.5986C89.1105 58.4936 89.1352 58.3905 89.1792 58.2951L92.3901 50.9732C92.4802 50.7639 92.6496 50.5989 92.8613 50.5144C93.0729 50.4299 93.3094 50.4329 93.5188 50.5227L94.1096 50.7899C94.2103 50.8365 94.3002 50.9035 94.3736 50.9867C94.4471 51.0698 94.5025 51.1672 94.5364 51.2729C94.5703 51.3785 94.5819 51.49 94.5706 51.6003C94.5592 51.7107 94.5251 51.8175 94.4704 51.914L90.6688 58.969C90.5679 59.1597 90.399 59.3055 90.1955 59.3773C89.992 59.449 89.7689 59.4416 89.5707 59.3563Z" fill="#5CEEA7"/>
<path d="M84.241 60.542C83.5674 60.6604 82.9208 60.0875 82.7753 59.2432L80.191 44.2529C80.0367 43.3574 80.5035 42.5065 81.2179 42.3809L82.2139 42.2059C82.9283 42.0804 83.603 42.7309 83.6975 43.6368L85.286 58.8021C85.3757 59.6562 84.9146 60.4237 84.241 60.542Z" fill="#5CEEA7"/>
</svg>
