<svg width="40" height="40" viewBox="0 0 40 40" fill="none" xmlns="http://www.w3.org/2000/svg">
<path d="M36.1454 29.0424L23.2994 6.89531C21.8253 4.36823 18.14 4.36823 16.6658 6.89531L3.85491 29.0424C2.38078 31.6046 4.20589 34.7985 7.15416 34.7985H32.8462C35.7944 34.7985 37.6195 31.6046 36.1454 29.0424ZM18.5611 12.1601C18.5611 11.3528 19.1929 10.721 20.0002 10.721C20.8074 10.721 21.4392 11.3528 21.4392 12.1601V22.7598C21.4392 23.567 20.8074 24.1988 20.0002 24.1988C19.1929 24.1988 18.5611 23.567 18.5611 22.7598V12.1601ZM20.0002 30.7271C18.8068 30.7271 17.8241 29.7444 17.8241 28.551C17.8241 27.3577 18.8068 26.3749 20.0002 26.3749C21.1935 26.3749 22.1763 27.3577 22.1763 28.551C22.1763 29.7444 21.1935 30.7271 20.0002 30.7271Z" fill="#F6CA51"/>
</svg>
